<svg width="24" height="25" viewBox="0 0 24 25" fill="none" xmlns="http://www.w3.org/2000/svg">
<path d="M21 11.1493L12.9628 18.7294C11.9782 19.658 10.6427 20.1797 9.25028 20.1797C7.85782 20.1797 6.52239 19.658 5.53777 18.7294C4.55315 17.8008 4 16.5413 4 15.228C4 13.9148 4.55315 12.6553 5.53777 11.7267L13.575 4.14656C14.2314 3.52748 15.1217 3.17969 16.05 3.17969C16.9783 3.17969 17.8686 3.52748 18.525 4.14656C19.1814 4.76564 19.5502 5.60529 19.5502 6.4808C19.5502 7.35631 19.1814 8.19596 18.525 8.81504L10.479 16.3951C10.1508 16.7047 9.70569 16.8786 9.24154 16.8786C8.77738 16.8786 8.33224 16.7047 8.00403 16.3951C7.67583 16.0856 7.49144 15.6658 7.49144 15.228C7.49144 14.7903 7.67583 14.3704 8.00403 14.0609L15.429 7.06642" stroke="#EAEAEA" stroke-width="1.5" stroke-linecap="round" stroke-linejoin="round"/>
</svg>
