<svg width="436" height="902" viewBox="0 0 436 902" fill="none" xmlns="http://www.w3.org/2000/svg">
<path d="M-20.4795 265.665L-23.3688 261.352C-23.5992 261.006 -23.4261 260.49 -23.0245 260.369L-18.1983 258.872C-18.3612 258.725 -18.5379 258.572 -18.6955 258.41C-21.2468 255.974 -22.7144 251.632 -22.6545 247.949C-22.5888 243.596 -20.8141 240.558 -18.3678 237.177C-21.4144 241.385 -18.0211 236.384 -17.415 235.273C-16.9041 234.337 -16.4303 233.393 -15.9883 232.424C-16.1924 233.02 -16.4151 233.617 -16.6469 234.204C-16.1539 232.99 -15.6608 231.776 -15.1772 230.561C-15.4336 231.184 -15.7087 231.806 -15.9883 232.424C-15.2014 230.203 -14.6001 227.944 -14.1511 225.632C-14.2218 226.417 -14.3109 227.191 -14.4235 227.971C-14.2344 226.631 -14.0452 225.291 -13.8515 223.956C-13.9374 224.517 -14.0371 225.072 -14.1462 225.627C-13.934 223.274 -13.8998 220.933 -14.034 218.594C-14.4041 216.319 -14.9447 214.105 -15.66 211.939C-15.3748 212.574 -15.1041 213.224 -14.8477 213.879C-15.2954 212.703 -15.7569 211.521 -16.2091 210.34C-16.0133 210.866 -15.8273 211.403 -15.6551 211.934C-16.1945 210.709 -16.7914 209.524 -17.4501 208.365C-17.867 207.627 -18.3319 206.92 -18.7874 206.213C-18.5814 206.459 -18.3897 206.711 -18.1934 206.968C-18.9534 205.895 -19.3941 205.298 -19.4874 205.164C-19.4432 205.233 -19.2923 205.451 -19.0346 205.817C-18.9507 205.95 -18.8668 206.084 -18.7825 206.208C-18.8945 206.074 -19.0016 205.936 -19.1135 205.803C-24.159 199.623 -24.3582 191.137 -18.7859 184.57C-18.5808 184.327 -18.3618 184.09 -18.1342 183.872L-23.3694 182.625C-23.7678 182.531 -23.9318 182.029 -23.68 181.661L-20.6591 177.135C-20.3726 176.711 -19.7815 176.778 -19.6304 177.245L-17.6211 183.386C-12.3587 178.649 -3.25709 178.447 1.12152 183.822C9.30729 193.842 14.0568 206.074 14.233 219.79C14.315 226.112 13.3305 232.842 11.254 238.893C8.81746 245.972 5.56163 251.685 1.23065 257.662C-1.04336 260.807 -5.33065 262.137 -8.79035 262.433C-11.9452 262.7 -14.9234 261.458 -17.3583 259.545L-19.4256 265.471C-19.6163 265.958 -20.214 266.07 -20.4795 265.665Z" fill="#EAEAEA" fill-opacity="0.08"/>
<path d="M144.524 285.14C146.208 281.238 145.679 276.96 143.5 273.915C142.478 272.67 141.14 271.685 139.779 270.957L138.562 270.387L139.866 270.76C141.023 271.15 142.151 271.696 143.169 272.415C143.49 267.448 140.973 262.707 136.497 260.717C135.904 260.454 135.314 260.247 134.708 260.095C134.708 260.095 134.703 260.09 134.708 260.085C133.136 259.846 131.459 260.004 129.921 260.367L128.594 260.752L129.872 260.167C131.349 259.559 132.94 259.161 134.513 259.119C133.212 253.086 129.372 247.867 123.641 245.317C122.016 244.593 120.344 244.129 118.658 243.912C118.648 243.912 118.644 243.907 118.629 243.912C116.402 244.084 114.183 245.289 112.388 246.738L111.309 247.687L112.258 246.585C113.811 244.912 115.746 243.491 117.851 242.809C116.217 238.908 113.273 235.683 109.287 233.907C106.148 232.516 102.799 232.212 99.609 232.833C99.6041 232.838 99.5996 232.833 99.5996 232.833C98.1546 233.35 96.7724 234.207 95.5698 235.167L94.49 236.115L95.439 235.013C96.4144 233.961 97.5367 233.007 98.7639 232.273C97.1677 230.263 95.1061 228.621 92.6479 227.526C86.3562 224.729 79.1775 226.319 74.1297 230.985C74.1203 230.985 74.115 231 74.1101 231.005C72.8893 232.457 72.021 234.306 71.4652 236.1L71.093 237.51L71.2738 236.057C71.5475 234.383 72.0619 232.69 72.8664 231.168C67.3469 228.997 61.0634 231.192 57.4652 236.234C56.787 237.393 56.2694 238.664 55.9077 239.919L55.5544 241.328L55.7114 239.881C55.8946 238.619 56.2145 237.351 56.6964 236.155C50.7716 235.65 45.0562 238.645 42.5166 244.074C42.5068 244.084 42.5015 244.099 42.5012 244.109C41.785 246.041 41.545 248.201 41.5897 250.172L41.4026 248.745C41.2704 247.357 41.31 245.907 41.5597 244.498C38.7073 245.281 36.1671 247.418 34.8387 250.507C32.5897 255.711 34.6425 261.658 39.4155 263.784C40.536 264.281 41.7083 264.52 42.8609 264.529C42.8842 264.534 42.9076 264.539 42.9264 264.538C46.7763 264.65 52.6755 266.736 52.8706 266.803L52.88 266.803C66.6589 273.916 88.7014 283.313 114.493 287.028C114.493 287.028 114.497 287.033 114.502 287.028C123.84 288.649 129.376 290.619 129.725 290.739C130.024 290.911 130.333 291.072 130.648 291.208C135.856 293.539 142.07 290.818 144.524 285.14ZM96.808 258.043C96.8501 257.922 96.8972 257.796 96.9442 257.67L97.1261 257.713C97.023 257.83 96.9198 257.947 96.808 258.043ZM130.586 270.131C128.344 259.892 118.151 255.193 109.115 253.818L108.553 253.746L108.228 253.223C103.517 245.367 95.9245 240.079 86.7097 241.12C83.6484 241.444 80.4931 242.271 77.6995 243.754L77.2312 243.565C64.4642 238.355 53.2145 244.918 46.2437 257.423C51.0491 245.701 61.4969 237.538 73.5033 239.774C74.9246 240.025 76.3131 240.397 77.6705 240.85C86.5189 236.357 97.4259 237.273 104.474 244.034C106.732 246.09 108.604 248.537 110.172 251.174C119.711 252.963 130.138 258.829 131.617 269.871C132.115 273.437 131.581 277.081 130.538 280.463C131.145 277.032 131.319 273.463 130.586 270.131Z" fill="#EAEAEA" fill-opacity="0.08"/>
<path d="M18.5346 319.226C15.6236 318.971 12.7082 318.71 9.79722 318.455C9.65651 321.904 9.52482 325.362 9.38862 328.816C12.3041 329.076 15.2199 329.327 18.1354 329.587C18.2716 326.133 18.3984 322.68 18.5346 319.226ZM19.04 306.358C16.1245 306.097 13.2135 305.842 10.2981 305.582C10.1542 309.245 10.0103 312.909 9.86635 316.573C12.7818 316.834 15.6976 317.084 18.6082 317.349C18.7521 313.685 18.896 310.022 19.04 306.358ZM8.53644 305.431C5.88251 305.197 3.22857 304.963 0.579521 304.724C0.435603 308.388 0.291701 312.051 0.147783 315.715C2.80171 315.949 5.45561 316.183 8.10954 316.417C8.25346 312.753 8.3974 309.089 8.53644 305.431ZM-14.1107 308.796C-13.2143 325.743 0.398622 340.67 16.2378 342.074C23.4938 342.721 30.1679 340.449 35.1663 335.683C37.8676 331.054 39.2811 325.366 38.9485 319.108C38.3089 306.91 31.237 295.761 21.4548 289.741C21.4221 290.632 21.3898 291.513 21.3529 292.389C22.2032 292.467 23.0628 292.546 23.9179 292.619C25.0346 292.719 24.9749 294.601 23.8488 294.501C22.9937 294.428 22.1341 294.349 21.2838 294.271C21.2738 294.416 21.2687 294.556 21.2631 294.706C21.137 298.015 21.0059 301.328 20.8703 304.637C23.5569 304.875 26.239 305.109 28.9256 305.347C28.9679 304.321 29.0103 303.295 29.0527 302.269C29.102 301.053 30.8654 301.029 30.8161 302.245C30.7715 303.331 30.7269 304.417 30.6917 305.503C31.6166 305.591 32.5419 305.668 33.4717 305.75C34.5884 305.85 34.5331 307.737 33.4026 307.632C32.4728 307.55 31.5479 307.463 30.6177 307.39C30.4738 311.054 30.3254 314.713 30.1815 318.377C31.5037 318.494 32.8305 318.616 34.1528 318.733C35.2743 318.828 35.2097 320.715 34.0837 320.615C32.7614 320.498 31.4298 320.381 30.103 320.259L29.9399 324.318C29.8954 325.53 28.132 325.554 28.1765 324.342C28.2328 322.936 28.2895 321.519 28.3413 320.108C25.6593 319.874 22.9776 319.631 20.2955 319.397C20.1593 322.851 20.0231 326.305 19.8869 329.758C21.8913 329.936 23.8957 330.114 25.9002 330.292C27.0217 330.386 26.9616 332.278 25.8311 332.173C23.8266 331.996 21.8173 331.823 19.8084 331.64C19.7522 333.172 19.6866 334.704 19.6303 336.235C19.5858 337.446 17.8224 337.47 17.8669 336.259C17.9254 334.668 17.9883 333.081 18.0561 331.489C15.1407 331.229 12.2249 330.978 9.30941 330.718C9.25234 332.145 9.20014 333.566 9.14307 334.993C9.09859 336.204 7.3352 336.228 7.37967 335.017C7.43895 333.53 7.49335 332.049 7.55714 330.567C6.8142 330.502 6.07129 330.437 5.32835 330.372C4.2117 330.272 4.27141 328.391 5.39745 328.49C6.14038 328.555 6.88331 328.62 7.63075 328.69C7.76245 325.231 7.89864 321.778 8.03484 318.324C5.38091 318.09 2.72698 317.856 0.0730495 317.622C0.0310515 318.638 -0.00679204 319.669 -0.0487927 320.686C-0.0932727 321.897 -1.85667 321.921 -1.81219 320.71C-1.76762 319.623 -1.72831 318.552 -1.68373 317.466C-2.61353 317.384 -3.5433 317.301 -4.4776 317.214C-5.59912 317.119 -5.53454 315.233 -4.4085 315.332C-3.47871 315.415 -2.54891 315.497 -1.60973 315.579C-1.46131 311.92 -1.3174 308.256 -1.17349 304.593C-2.50027 304.471 -3.82741 304.359 -5.15907 304.242C-6.2806 304.147 -6.21599 302.26 -5.08996 302.36C-3.75831 302.477 -2.42664 302.594 -1.09499 302.71C-1.045 301.349 -0.986001 299.998 -0.936008 298.636C-0.886656 297.42 0.876733 297.396 0.831887 298.617C0.775184 300.034 0.718496 301.45 0.66179 302.867C3.31084 303.106 5.96476 303.339 8.61868 303.573C8.75488 300.12 8.89108 296.666 9.02728 293.212C7.13017 293.048 5.24244 292.884 3.35021 292.715C2.23356 292.615 2.28878 290.728 3.41932 290.833C5.31643 290.997 7.20867 291.166 9.10577 291.33C9.15035 290.244 9.19042 289.153 9.23048 288.062C9.27984 286.846 11.0432 286.822 10.9939 288.038C10.9516 289.189 10.9048 290.335 10.8625 291.487C13.7735 291.742 16.689 292.002 19.5999 292.258C19.6471 291.101 19.6942 289.945 19.7368 288.784C19.7372 288.774 19.7372 288.774 19.7372 288.774L19.7327 288.769C16.0873 286.813 12.1119 285.546 7.99089 285.182C2.14573 284.667 -3.2054 286.016 -7.61447 288.772C-12.2112 293.958 -14.5192 301.028 -14.1107 308.796ZM32.1447 339.846C27.4851 342.786 21.9434 344.093 16.0517 343.568C7.8141 342.845 0.151269 338.597 -5.56696 332.327C-11.2852 326.057 -15.0543 317.769 -15.518 308.95C-15.8582 302.642 -14.4842 296.755 -11.5997 291.858C-17.0083 297.07 -20.1408 304.891 -19.6661 313.92C-18.7502 331.231 -4.8895 346.43 11.2952 347.87C19.7241 348.615 27.124 345.473 32.1447 339.846ZM19.5176 294.115C16.6067 293.859 13.6864 293.604 10.7803 293.344C10.7744 293.504 10.7685 293.664 10.7626 293.824C10.6323 297.118 10.502 300.411 10.3717 303.705C13.2872 303.965 16.1981 304.22 19.1136 304.481C19.2501 301.017 19.3815 297.568 19.5176 294.115ZM28.852 307.224C26.1654 306.986 23.4833 306.752 20.7967 306.514C20.6528 310.178 20.5089 313.842 20.365 317.505C23.0516 317.744 25.7336 317.977 28.4153 318.221C28.5641 314.552 28.708 310.888 28.852 307.224Z" fill="#EAEAEA" fill-opacity="0.08"/>
<path d="M28.6845 307.468C25.9976 307.229 23.3153 306.996 20.6284 306.757C20.4844 310.422 20.3405 314.086 20.1965 317.75C22.8834 317.988 25.5658 318.222 28.2478 318.466C28.3966 314.796 28.5406 311.132 28.6845 307.468ZM28.6845 307.468C25.9976 307.229 23.3153 306.996 20.6284 306.757C20.4844 310.422 20.3405 314.086 20.1965 317.75C22.8834 317.988 25.5658 318.222 28.2478 318.466C28.3966 314.796 28.5406 311.132 28.6845 307.468ZM28.6845 307.468C25.9976 307.229 23.3153 306.996 20.6284 306.757C20.4844 310.422 20.3405 314.086 20.1965 317.75C22.8834 317.988 25.5658 318.222 28.2478 318.466C28.3966 314.796 28.5406 311.132 28.6845 307.468ZM18.3659 319.471C15.4546 319.216 12.5388 318.955 9.62751 318.7C9.48677 322.149 9.35504 325.608 9.2188 329.062C12.1346 329.322 15.0508 329.572 17.9666 329.833C18.1028 326.379 18.2297 322.925 18.3659 319.471ZM28.6845 307.468C25.9976 307.229 23.3153 306.996 20.6284 306.757C20.4844 310.422 20.3405 314.086 20.1965 317.75C22.8834 317.988 25.5658 318.222 28.2478 318.466C28.3966 314.796 28.5406 311.132 28.6845 307.468ZM18.8714 306.601C15.9556 306.341 13.0443 306.085 10.1285 305.825C9.98456 309.489 9.84062 313.153 9.69666 316.818C12.6125 317.078 15.5286 317.328 18.4395 317.594C18.5835 313.93 18.7274 310.265 18.8714 306.601ZM18.3659 319.471C15.4546 319.216 12.5388 318.955 9.62751 318.7C9.48677 322.149 9.35504 325.608 9.2188 329.062C12.1346 329.322 15.0508 329.572 17.9666 329.833C18.1028 326.379 18.2297 322.925 18.3659 319.471ZM28.6845 307.468C25.9976 307.229 23.3153 306.996 20.6284 306.757C20.4844 310.422 20.3405 314.086 20.1965 317.75C22.8834 317.988 25.5658 318.222 28.2478 318.466C28.3966 314.796 28.5406 311.132 28.6845 307.468ZM18.8714 306.601C15.9556 306.341 13.0443 306.085 10.1285 305.825C9.98456 309.489 9.84062 313.153 9.69666 316.818C12.6125 317.078 15.5286 317.328 18.4395 317.594C18.5835 313.93 18.7274 310.265 18.8714 306.601ZM18.3659 319.471C15.4546 319.216 12.5388 318.955 9.62751 318.7C9.48677 322.149 9.35504 325.608 9.2188 329.062C12.1346 329.322 15.0508 329.572 17.9666 329.833C18.1028 326.379 18.2297 322.925 18.3659 319.471ZM28.6845 307.468C25.9976 307.229 23.3153 306.996 20.6284 306.757C20.4844 310.422 20.3405 314.086 20.1965 317.75C22.8834 317.988 25.5658 318.222 28.2478 318.466C28.3966 314.796 28.5406 311.132 28.6845 307.468ZM18.8714 306.601C15.9556 306.341 13.0443 306.085 10.1285 305.825C9.98456 309.489 9.84062 313.153 9.69666 316.818C12.6125 317.078 15.5286 317.328 18.4395 317.594C18.5835 313.93 18.7274 310.265 18.8714 306.601ZM8.36667 305.674C5.71244 305.44 3.05819 305.206 0.408831 304.967C0.264875 308.631 0.120931 312.296 -0.0230261 315.96C2.63121 316.194 5.28542 316.428 7.93965 316.662C8.08361 312.997 8.22759 309.333 8.36667 305.674ZM18.3659 319.471C15.4546 319.216 12.5388 318.955 9.62751 318.7C9.48677 322.149 9.35504 325.608 9.2188 329.062C12.1346 329.322 15.0508 329.572 17.9666 329.833C18.1028 326.379 18.2297 322.925 18.3659 319.471ZM28.2481 318.455C28.3921 314.791 28.5406 311.132 28.6845 307.468C25.9976 307.229 23.3153 306.996 20.6284 306.757C20.4844 310.422 20.3405 314.086 20.1965 317.75C22.8789 317.984 25.5613 318.217 28.2481 318.455ZM18.8714 306.601C15.9556 306.341 13.0443 306.085 10.1285 305.825C9.98456 309.489 9.84062 313.153 9.69666 316.818C12.6125 317.078 15.5286 317.328 18.4395 317.594C18.5835 313.93 18.7274 310.265 18.8714 306.601ZM0.408831 304.967C0.264875 308.631 0.120931 312.296 -0.0230261 315.96C2.63121 316.194 5.28542 316.428 7.93965 316.662C8.08361 312.997 8.22271 309.338 8.36667 305.674C5.71731 305.435 3.06306 305.201 0.408831 304.967ZM18.9499 304.719C19.0816 301.26 19.2179 297.806 19.3541 294.352C16.4428 294.097 13.5222 293.841 10.6157 293.581C10.6099 293.741 10.604 293.901 10.5981 294.061C10.4677 297.355 10.3374 300.649 10.207 303.943C13.1228 304.203 16.0292 304.464 18.9499 304.719ZM42.9259 314.388C42.473 305.914 38.8512 297.943 33.3576 291.92C27.8596 285.891 20.4944 281.814 12.5741 281.107C4.95699 280.44 -2.02728 282.967 -7.09165 288.234C-7.33049 288.483 -7.56031 288.741 -7.78526 288.994C-12.3881 294.205 -14.692 301.281 -14.2832 309.04C-13.3867 325.988 0.227684 340.917 16.0687 342.321C23.3255 342.968 30.0004 340.695 34.9995 335.929C35.2473 335.69 35.5 335.447 35.7389 335.198C40.8032 329.931 43.3579 322.537 42.9259 314.388ZM25.659 332.404C23.6544 332.227 21.6448 332.054 19.6357 331.871C19.5794 333.403 19.5137 334.935 19.4575 336.466C19.413 337.678 17.6494 337.702 17.6939 336.491C17.7524 334.899 17.8153 333.312 17.8832 331.72C14.9674 331.46 12.0512 331.209 9.13542 330.949C9.07834 332.376 9.02613 333.797 8.96904 335.224C8.92455 336.435 7.16095 336.459 7.20544 335.248C7.26473 333.761 7.31915 332.28 7.38295 330.798C6.63993 330.733 5.89691 330.668 5.15389 330.603C4.03711 330.503 4.09686 328.621 5.22302 328.721C5.96604 328.786 6.70906 328.851 7.45658 328.921C7.58832 325.462 7.72455 322.008 7.86078 318.554C5.20655 318.32 2.55234 318.086 -0.101896 317.852C-0.143906 318.868 -0.181788 319.899 -0.2238 320.916C-0.268292 322.127 -2.03189 322.151 -1.9874 320.94C-1.94282 319.853 -1.90347 318.782 -1.85888 317.696C-2.78878 317.614 -3.7187 317.531 -4.65311 317.444C-5.77477 317.349 -5.71015 315.462 -4.58398 315.562C-3.65408 315.644 -2.72419 315.727 -1.7849 315.809C-1.63644 312.15 -1.49247 308.485 -1.34851 304.821C-2.67544 304.699 -4.00274 304.587 -5.33455 304.47C-6.45621 304.376 -6.3916 302.489 -5.26544 302.588C-3.93363 302.705 -2.60181 302.822 -1.27001 302.939C-1.22 301.577 -1.16099 300.226 -1.11098 298.864C-1.06161 297.648 0.701994 297.624 0.657135 298.845C0.600416 300.262 0.543684 301.678 0.486965 303.095C3.13632 303.334 5.79057 303.568 8.4448 303.802C8.58104 300.348 8.71727 296.894 8.85351 293.44C6.95618 293.276 5.06824 293.111 3.17579 292.942C2.05901 292.842 2.11424 290.955 3.24491 291.06C5.14224 291.224 7.03468 291.394 8.93201 291.558C8.9766 290.471 9.01668 289.38 9.05676 288.289C9.10612 287.073 10.8697 287.049 10.8203 288.265C10.7781 289.416 10.7313 290.563 10.689 291.714C13.6003 291.969 16.5161 292.23 19.4274 292.485C19.4745 291.329 19.5217 290.172 19.5643 289.011C19.5647 289.001 19.5647 289.001 19.5647 289.001L19.5602 288.996C19.6231 287.794 21.3769 287.781 21.3234 288.982C21.3113 289.312 21.2988 289.653 21.2818 289.988C21.2491 290.879 21.2167 291.76 21.1798 292.636C22.0302 292.715 22.8899 292.793 23.7451 292.866C24.8619 292.966 24.8022 294.848 23.676 294.748C22.8208 294.675 21.9611 294.597 21.1107 294.518C21.1007 294.664 21.0955 294.804 21.09 294.954C20.9638 298.263 20.8327 301.576 20.6971 304.885C23.384 305.124 26.0664 305.357 28.7533 305.596C28.7957 304.57 28.838 303.543 28.8804 302.517C28.9298 301.301 30.6934 301.277 30.644 302.493C30.5994 303.579 30.5549 304.666 30.5196 305.752C31.4447 305.839 32.37 305.917 33.2999 305.999C34.4167 306.099 34.3615 307.986 33.2308 307.881C32.3009 307.799 31.3759 307.711 30.4456 307.639C30.3017 311.303 30.1532 314.962 30.0092 318.627C31.3317 318.744 32.6586 318.866 33.981 318.983C35.1027 319.077 35.0381 320.964 33.9119 320.865C32.5895 320.748 31.2577 320.631 29.9307 320.509L29.7676 324.568C29.7231 325.78 27.9595 325.804 28.004 324.593C28.0603 323.186 28.117 321.769 28.1689 320.358C25.4865 320.124 22.8045 319.881 20.1221 319.647C19.9859 323.101 19.8496 326.555 19.7134 330.009C21.7181 330.187 23.7227 330.365 25.7274 330.542C26.8543 330.622 26.7946 332.504 25.659 332.404ZM9.62751 318.7C9.48677 322.149 9.35504 325.608 9.2188 329.062C12.1346 329.322 15.0508 329.572 17.9666 329.833C18.1028 326.379 18.2345 322.92 18.3708 319.466C15.4546 319.216 12.5388 318.955 9.62751 318.7ZM28.2481 318.455C28.3921 314.791 28.5406 311.132 28.6845 307.468C25.9976 307.229 23.3153 306.996 20.6284 306.757C20.4844 310.422 20.3405 314.086 20.1965 317.75C22.8789 317.984 25.5613 318.217 28.2481 318.455ZM18.8714 306.601C15.9556 306.341 13.0443 306.085 10.1285 305.825C9.98456 309.489 9.84062 313.153 9.69666 316.818C12.6125 317.078 15.5286 317.328 18.4395 317.594C18.5835 313.93 18.7274 310.265 18.8714 306.601ZM0.408831 304.967C0.264875 308.631 0.120931 312.296 -0.0230261 315.96C2.63121 316.194 5.28542 316.428 7.93965 316.662C8.08361 312.997 8.22271 309.338 8.36667 305.674C5.71731 305.435 3.06306 305.201 0.408831 304.967ZM18.9499 304.719C19.0816 301.26 19.2179 297.806 19.3541 294.352C16.4428 294.097 13.5222 293.841 10.6157 293.581C10.6099 293.741 10.604 293.901 10.5981 294.061C10.4677 297.355 10.3374 300.649 10.207 303.943C13.1228 304.203 16.0292 304.464 18.9499 304.719ZM19.3492 294.357C16.4379 294.102 13.5173 293.847 10.6109 293.586C10.605 293.746 10.5991 293.906 10.5932 294.067C10.4628 297.36 10.3325 300.654 10.2022 303.948C13.118 304.208 16.0292 304.464 18.945 304.724C19.0816 301.26 19.213 297.811 19.3492 294.357ZM8.36667 305.674C5.71244 305.44 3.05819 305.206 0.408831 304.967C0.264875 308.631 0.120931 312.296 -0.0230261 315.96C2.63121 316.194 5.28542 316.428 7.93965 316.662C8.08361 312.997 8.22759 309.333 8.36667 305.674ZM18.8714 306.601C15.9556 306.341 13.0443 306.085 10.1285 305.825C9.98456 309.489 9.84062 313.153 9.69666 316.818C12.6125 317.078 15.5286 317.328 18.4395 317.594C18.5835 313.93 18.7274 310.265 18.8714 306.601ZM28.6845 307.468C25.9976 307.229 23.3153 306.996 20.6284 306.757C20.4844 310.422 20.3405 314.086 20.1965 317.75C22.8834 317.988 25.5658 318.222 28.2478 318.466C28.3966 314.796 28.5406 311.132 28.6845 307.468ZM18.3659 319.471C15.4546 319.216 12.5388 318.955 9.62751 318.7C9.48677 322.149 9.35504 325.608 9.2188 329.062C12.1346 329.322 15.0508 329.572 17.9666 329.833C18.1028 326.379 18.2297 322.925 18.3659 319.471ZM8.36667 305.674C5.71244 305.44 3.05819 305.206 0.408831 304.967C0.264875 308.631 0.120931 312.296 -0.0230261 315.96C2.63121 316.194 5.28542 316.428 7.93965 316.662C8.08361 312.997 8.22759 309.333 8.36667 305.674ZM18.8714 306.601C15.9556 306.341 13.0443 306.085 10.1285 305.825C9.98456 309.489 9.84062 313.153 9.69666 316.818C12.6125 317.078 15.5286 317.328 18.4395 317.594C18.5835 313.93 18.7274 310.265 18.8714 306.601ZM28.6845 307.468C25.9976 307.229 23.3153 306.996 20.6284 306.757C20.4844 310.422 20.3405 314.086 20.1965 317.75C22.8834 317.988 25.5658 318.222 28.2478 318.466C28.3966 314.796 28.5406 311.132 28.6845 307.468ZM18.3659 319.471C15.4546 319.216 12.5388 318.955 9.62751 318.7C9.48677 322.149 9.35504 325.608 9.2188 329.062C12.1346 329.322 15.0508 329.572 17.9666 329.833C18.1028 326.379 18.2297 322.925 18.3659 319.471ZM18.8714 306.601C15.9556 306.341 13.0443 306.085 10.1285 305.825C9.98456 309.489 9.84062 313.153 9.69666 316.818C12.6125 317.078 15.5286 317.328 18.4395 317.594C18.5835 313.93 18.7274 310.265 18.8714 306.601ZM28.6845 307.468C25.9976 307.229 23.3153 306.996 20.6284 306.757C20.4844 310.422 20.3405 314.086 20.1965 317.75C22.8834 317.988 25.5658 318.222 28.2478 318.466C28.3966 314.796 28.5406 311.132 28.6845 307.468ZM18.3659 319.471C15.4546 319.216 12.5388 318.955 9.62751 318.7C9.48677 322.149 9.35504 325.608 9.2188 329.062C12.1346 329.322 15.0508 329.572 17.9666 329.833C18.1028 326.379 18.2297 322.925 18.3659 319.471ZM18.8714 306.601C15.9556 306.341 13.0443 306.085 10.1285 305.825C9.98456 309.489 9.84062 313.153 9.69666 316.818C12.6125 317.078 15.5286 317.328 18.4395 317.594C18.5835 313.93 18.7274 310.265 18.8714 306.601ZM28.6845 307.468C25.9976 307.229 23.3153 306.996 20.6284 306.757C20.4844 310.422 20.3405 314.086 20.1965 317.75C22.8834 317.988 25.5658 318.222 28.2478 318.466C28.3966 314.796 28.5406 311.132 28.6845 307.468ZM18.3659 319.471C15.4546 319.216 12.5388 318.955 9.62751 318.7C9.48677 322.149 9.35504 325.608 9.2188 329.062C12.1346 329.322 15.0508 329.572 17.9666 329.833C18.1028 326.379 18.2297 322.925 18.3659 319.471ZM28.6845 307.468C25.9976 307.229 23.3153 306.996 20.6284 306.757C20.4844 310.422 20.3405 314.086 20.1965 317.75C22.8834 317.988 25.5658 318.222 28.2478 318.466C28.3966 314.796 28.5406 311.132 28.6845 307.468ZM28.6845 307.468C25.9976 307.229 23.3153 306.996 20.6284 306.757C20.4844 310.422 20.3405 314.086 20.1965 317.75C22.8834 317.988 25.5658 318.222 28.2478 318.466C28.3966 314.796 28.5406 311.132 28.6845 307.468ZM28.6845 307.468C25.9976 307.229 23.3153 306.996 20.6284 306.757C20.4844 310.422 20.3405 314.086 20.1965 317.75C22.8834 317.988 25.5658 318.222 28.2478 318.466C28.3966 314.796 28.5406 311.132 28.6845 307.468Z" fill="#EAEAEA" fill-opacity="0.08"/>
<path d="M69.1374 328.492C67.9232 329.126 66.8952 329.781 66.131 330.452C67.0139 329.658 68.028 329.008 69.1374 328.492Z" fill="#EAEAEA" fill-opacity="0.08"/>
<path d="M104.962 371.006C104.904 371.085 104.846 371.155 104.783 371.229L104.779 371.224C104.742 371.215 104.71 371.211 104.684 371.192C104.778 371.132 104.872 371.071 104.962 371.006Z" fill="#EAEAEA" fill-opacity="0.08"/>
<path d="M94.8292 339.92C94.7452 339.871 94.6463 339.837 94.557 339.803C94.5681 339.645 94.5601 339.488 94.5566 339.336C94.654 339.527 94.7464 339.724 94.8292 339.92Z" fill="#EAEAEA" fill-opacity="0.08"/>
<path d="M103.744 345.908C103.72 345.923 103.691 345.944 103.672 345.964C103.672 345.954 103.663 345.945 103.654 345.945C103.678 345.93 103.706 345.919 103.744 345.908Z" fill="#EAEAEA" fill-opacity="0.08"/>
<path d="M124.183 363.147C124.184 362.868 124.211 361.629 124.19 359.777C124.336 360.914 124.336 362.047 124.183 363.147Z" fill="#EAEAEA" fill-opacity="0.08"/>
<path d="M79.6643 331.912C77.7796 332.816 75.4992 333.93 73.5285 335.395C71.2168 337.108 69.322 339.311 68.9555 342.171C68.5962 340.364 69.4215 338.381 70.5037 336.918C71.0936 336.131 71.7456 335.434 72.4558 334.81C75.1333 332.427 78.5531 331.098 81.8705 330.269C82.7139 330.093 83.557 329.927 84.4027 329.816C82.8562 330.551 81.2201 331.177 79.6643 331.912ZM91.9953 345.43C90.2159 347.291 87.9997 348.694 85.9587 350.164C83.3359 351.817 82.0428 354.7 81.3786 357.775C81.0465 359.312 80.8716 360.897 80.7652 362.401C80.4641 360.917 80.3507 359.286 80.4897 357.662C80.7372 354.473 81.9145 351.307 84.409 349.326C86.3313 347.903 88.9717 346.279 90.8447 344.801C90.8589 344.796 90.8735 344.781 90.8832 344.771C92.5531 343.475 94.036 341.922 94.637 339.807C94.6799 339.657 94.7232 339.497 94.7526 339.332C94.7683 339.286 94.775 339.231 94.7858 339.191C94.7923 339.271 94.7991 339.341 94.7965 339.411C94.8925 339.599 94.9836 339.793 95.0653 339.986C94.983 339.938 94.886 339.904 94.7984 339.87C94.7663 340.874 94.4667 341.907 93.9657 342.822C93.4153 343.808 92.7435 344.661 91.9953 345.43ZM94.7125 365.223C92.8168 366.687 90.5238 367.631 88.3719 368.045C90.2879 367.05 92.3149 365.835 93.9565 364.29C95.6317 362.719 96.9036 360.8 97.2623 358.409C97.8746 355.475 98.3445 352.343 99.7018 349.624C99.9995 349.026 100.348 348.442 100.752 347.888C101.498 346.909 102.495 346.132 103.57 345.763L103.574 345.768C103.603 345.757 103.636 345.742 103.664 345.731C103.64 345.747 103.612 345.767 103.592 345.787C102.094 346.866 101.214 348.415 100.623 350.126C100.456 350.607 100.312 351.104 100.186 351.61C99.5799 353.979 99.1306 357.185 98.5844 359.589C97.9892 361.929 96.5361 363.816 94.7125 365.223ZM115.278 367.357C117.364 365.426 118.052 362.576 118.118 359.635C118.181 357.138 117.798 354.567 117.455 352.455C117.199 350.876 116.827 349.283 116.548 347.709C116.512 347.555 116.49 347.395 116.463 347.241C116.562 347.454 116.671 347.678 116.766 347.886C117.03 348.466 117.275 349.057 117.525 349.653C118.737 352.937 119.594 356.6 119.2 360.219C119.1 361.179 118.911 362.126 118.614 363.068C118.054 364.823 116.922 366.636 115.278 367.357ZM123.321 362.465C123.321 362.465 123.322 362.445 123.324 362.405C123.329 362.121 123.351 360.887 123.33 359.035C123.247 352.866 122.647 339.883 119.12 333.261C117.864 330.907 118.049 327.909 119.633 325.636C120.166 324.87 120.744 324.143 121.321 323.601C119.432 322.818 116.843 321.639 113.886 320.027C110.833 318.371 107.38 316.246 103.9 313.602C104.25 316.687 103.254 320.021 95.309 321.696C92.7361 322.24 77.733 325.398 70.0297 329.426C68.7855 330.077 67.7322 330.75 66.9543 331.434C66.8672 331.515 66.7801 331.597 66.6978 331.673C65.8019 332.518 65.055 333.507 64.4759 334.638C61.6611 340.133 63.7579 347.234 69.141 352.184C69.3114 351.872 69.496 351.555 69.6847 351.253C72.5937 346.505 76.8058 342.564 81.3589 339.652C82.2162 339.096 83.1001 338.58 83.9874 338.099C84.0065 338.089 84.0207 338.084 84.0398 338.073C85.8069 337.061 87.8779 336.174 89.7125 335.361C88.1721 336.185 86.4756 337.057 84.9394 338.021C84.6858 338.179 84.4319 338.348 84.1828 338.511C83.4455 338.98 82.7166 339.479 82.0007 340.003C77.6098 343.208 73.7078 347.364 71.1426 352.301C70.9561 352.668 70.7697 353.035 70.5968 353.417C70.3386 353.955 70.0989 354.502 69.8819 355.064C70.9168 361.156 75.3413 367.257 82.0945 370.925C89.6591 375.037 98.0227 374.944 103.594 371.309C103.689 371.248 103.785 371.176 103.881 371.115C103.886 371.12 103.891 371.105 103.891 371.105C105.884 368.637 107.4 365.666 108.482 362.676C108.808 361.558 109.386 359.833 109.586 358.702C109.641 358.481 109.686 358.261 109.732 358.041C109.737 358.036 109.737 358.036 109.732 358.031C109.923 357.16 110.073 356.254 110.2 355.344C110.337 354.403 110.451 353.458 110.559 352.558L110.781 348.406L110.854 352.559C110.813 353.533 110.761 354.567 110.682 355.602C110.609 356.696 110.489 357.791 110.321 358.822C110.102 360.327 109.785 361.819 109.372 363.288C109.3 363.573 109.215 363.854 109.125 364.14C108.282 366.882 107.082 369.524 105.47 371.903C112.482 373.735 119.384 371.54 122.204 366.04C122.779 364.894 123.15 363.701 123.321 362.465Z" fill="#EAEAEA" fill-opacity="0.08"/>
<path d="M122.994 323.625C119.776 322.421 110.834 318.713 102.069 311.679C101.775 310.413 101.584 309.331 102.065 308.628C105.565 303.508 115.786 307.257 124.198 315.24C128.607 319.427 125.564 323.153 122.994 323.625Z" fill="#EAEAEA" fill-opacity="0.08"/>
<path d="M94.5378 339.342C94.5247 339.317 94.5121 339.282 94.4941 339.263C94.5101 339.217 94.5172 339.162 94.5283 339.121C94.5348 339.191 94.5363 339.267 94.5378 339.342Z" fill="#EAEAEA" fill-opacity="0.08"/>
<path d="M94.8292 339.92C94.7452 339.871 94.6463 339.837 94.557 339.803C94.5681 339.645 94.5601 339.488 94.5566 339.336C94.654 339.527 94.7464 339.724 94.8292 339.92Z" fill="#EAEAEA" fill-opacity="0.08"/>
<path d="M103.744 345.908C103.72 345.923 103.691 345.944 103.672 345.964C103.672 345.954 103.663 345.945 103.654 345.945C103.678 345.93 103.706 345.919 103.744 345.908Z" fill="#EAEAEA" fill-opacity="0.08"/>
<path d="M117.047 348.53C116.973 348.46 116.903 348.405 116.824 348.351C116.787 348.194 116.765 348.032 116.737 347.875C116.834 348.097 116.945 348.313 117.047 348.53Z" fill="#EAEAEA" fill-opacity="0.08"/>
<path d="M103.744 345.908C103.72 345.923 103.691 345.944 103.672 345.964C103.672 345.954 103.663 345.945 103.654 345.945C103.678 345.93 103.706 345.919 103.744 345.908Z" fill="#EAEAEA" fill-opacity="0.08"/>
<path d="M94.5378 339.342C94.5247 339.317 94.5121 339.282 94.4941 339.263C94.5101 339.217 94.5172 339.162 94.5283 339.121C94.5348 339.191 94.5363 339.267 94.5378 339.342Z" fill="#EAEAEA" fill-opacity="0.08"/>
<path d="M117.047 348.53C116.973 348.46 116.903 348.405 116.824 348.351C116.787 348.194 116.765 348.032 116.737 347.875C116.834 348.097 116.945 348.313 117.047 348.53Z" fill="#EAEAEA" fill-opacity="0.08"/>
<path d="M62.5023 443.85L62.4835 443.869C61.7055 444.67 60.6254 444.772 59.8209 444.316C60.1393 444.153 60.4377 443.929 60.7017 443.657L104.763 397.552C105.395 396.883 105.746 396.027 105.759 395.132C105.769 394.663 105.679 394.206 105.51 393.792L105.662 393.828C106.691 394.1 107.273 395.052 107.255 396.051C107.244 396.659 107.021 397.274 106.544 397.774L62.5023 443.85Z" fill="#EAEAEA" fill-opacity="0.08"/>
<path d="M57.7124 442.557C57.5335 442.743 57.3239 442.875 57.1027 442.943C56.759 443.052 56.379 443.007 56.0689 442.832C55.8457 442.701 55.5478 442.446 55.4359 441.941L41.1903 378.323C41.1623 378.199 41.1487 378.06 41.1538 377.921C41.1676 377.543 41.3251 377.178 41.596 376.895C41.9636 376.513 42.4481 376.372 42.9276 376.495L102.341 392.281C102.557 392.343 102.731 392.44 102.888 392.582C102.915 392.612 102.942 392.631 102.969 392.661C103.202 392.916 103.333 393.278 103.333 393.66C103.323 393.939 103.252 394.348 102.899 394.725L57.7173 442.552L57.7124 442.557Z" fill="#EAEAEA" fill-opacity="0.08"/>
<path d="M155.115 391.43C155.274 391.448 155.994 391.538 157.274 391.71C156.956 391.685 156.647 391.649 156.328 391.633C156.179 391.605 156.03 391.577 155.881 391.549C155.451 391.485 155.189 391.449 155.115 391.43Z" fill="#EAEAEA" fill-opacity="0.08"/>
<path d="M161.064 392.782C162.194 393.255 163.324 393.739 164.453 394.222C163.825 393.959 163.191 393.711 162.543 393.478C162.057 393.232 161.565 393.002 161.064 392.782Z" fill="#EAEAEA" fill-opacity="0.08"/>
<path d="M151.192 403.968L148.302 399.655C148.072 399.309 148.245 398.792 148.647 398.672L153.468 397.17C153.305 397.023 153.129 396.87 152.971 396.708C150.42 394.272 148.952 389.93 149.012 386.247C149.078 381.894 150.853 378.856 153.299 375.475C150.252 379.683 153.646 374.681 154.252 373.57C154.762 372.635 155.236 371.691 155.678 370.722C155.474 371.318 155.251 371.915 155.02 372.502C155.513 371.288 156.006 370.074 156.489 368.859C156.233 369.482 155.958 370.104 155.678 370.722C156.465 368.5 157.066 366.242 157.516 363.93C157.445 364.715 157.356 365.489 157.243 366.269C157.432 364.929 157.621 363.589 157.815 362.254C157.729 362.814 157.629 363.37 157.52 363.925C157.733 361.572 157.767 359.231 157.633 356.892C157.262 354.617 156.722 352.403 156.007 350.237C156.292 350.872 156.562 351.522 156.819 352.177C156.367 350.996 155.91 349.819 155.458 348.638C155.653 349.164 155.839 349.7 156.011 350.232C155.472 349.007 154.875 347.822 154.217 346.663C153.8 345.925 153.335 345.218 152.879 344.511C153.085 344.757 153.277 345.009 153.473 345.266C152.713 344.193 152.272 343.596 152.179 343.462C152.223 343.531 152.374 343.749 152.632 344.115C152.716 344.248 152.8 344.382 152.884 344.505C152.772 344.372 152.665 344.234 152.553 344.101C147.508 337.921 147.308 329.435 152.881 322.868C153.086 322.625 153.305 322.388 153.528 322.165L148.293 320.918C147.894 320.824 147.73 320.322 147.982 319.954L151.003 315.427C151.29 315.004 151.881 315.071 152.032 315.538L154.041 321.679C159.303 316.942 168.405 316.74 172.784 322.115C180.969 332.135 185.719 344.367 185.895 358.083C185.977 364.405 184.993 371.135 182.916 377.186C180.48 384.265 177.224 389.978 172.893 395.955C170.619 399.1 166.331 400.43 162.872 400.726C159.717 400.993 156.739 399.751 154.304 397.837L152.236 403.764C152.055 404.26 151.462 404.368 151.192 403.968Z" fill="#EAEAEA" fill-opacity="0.08"/>
<path d="M-10.112 375.01C-8.42884 371.108 -8.95759 366.83 -11.1366 363.785C-12.1588 362.54 -13.4964 361.555 -14.8577 360.827L-16.0742 360.257L-14.7704 360.63C-13.6131 361.02 -12.4851 361.566 -11.467 362.285C-11.1468 357.318 -13.663 352.577 -18.1399 350.587C-18.7325 350.324 -19.3225 350.117 -19.9286 349.965C-19.9286 349.965 -19.9331 349.96 -19.9282 349.955C-21.5005 349.716 -23.177 349.874 -24.715 350.237L-26.0422 350.622L-24.7641 350.037C-23.2876 349.429 -21.6964 349.031 -20.1231 348.989C-21.4245 342.956 -25.2643 337.737 -30.9957 335.187C-32.6206 334.463 -34.2928 333.999 -35.9789 333.782C-35.9883 333.782 -35.9928 333.777 -36.0071 333.782C-38.2346 333.954 -40.4533 335.159 -42.248 336.608L-43.3278 337.557L-42.3788 336.455C-40.8252 334.782 -38.8903 333.361 -36.7851 332.679C-38.4196 328.778 -41.3637 325.553 -45.3497 323.777C-48.4887 322.386 -51.8374 322.082 -55.0274 322.703C-55.0322 322.708 -55.0367 322.703 -55.0367 322.703C-56.4817 323.22 -57.864 324.077 -59.0666 325.037L-60.1463 325.985L-59.1973 324.883C-58.222 323.831 -57.0996 322.877 -55.868 322.148C-57.4641 320.138 -59.5257 318.496 -61.984 317.401C-68.2756 314.604 -75.4543 316.194 -80.5021 320.86C-80.5115 320.86 -80.5168 320.875 -80.5217 320.88C-81.7425 322.332 -82.6108 324.181 -83.1666 325.975L-83.5388 327.385L-83.358 325.932C-83.0843 324.258 -82.5699 322.565 -81.7654 321.043C-87.2849 318.872 -93.5683 321.067 -97.1666 326.109C-97.8447 327.268 -98.3624 328.539 -98.7241 329.794L-99.0774 331.203L-98.9203 329.756C-98.7372 328.494 -98.4173 327.225 -97.9354 326.03C-103.86 325.525 -109.576 328.52 -112.115 333.949C-112.125 333.959 -112.13 333.974 -112.131 333.984C-112.847 335.916 -113.087 338.076 -113.042 340.047L-113.229 338.62C-113.361 337.232 -113.322 335.782 -113.072 334.373C-115.924 335.156 -118.465 337.293 -119.793 340.382C-122.042 345.586 -119.989 351.533 -115.216 353.659C-114.096 354.156 -112.923 354.395 -111.771 354.404C-111.748 354.409 -111.724 354.413 -111.705 354.413C-107.855 354.525 -101.956 356.611 -101.761 356.678L-101.752 356.678C-87.9729 363.791 -65.9353 373.193 -40.139 376.903C-40.139 376.903 -40.1345 376.908 -40.1296 376.903C-30.7921 378.524 -25.2558 380.493 -24.9073 380.614C-24.6078 380.786 -24.2984 380.947 -23.9835 381.083C-18.7851 383.414 -12.5668 380.688 -10.112 375.01ZM-57.8238 347.918C-57.7817 347.797 -57.7347 347.671 -57.6832 347.55L-57.5012 347.593C-57.6134 347.7 -57.7165 347.817 -57.8238 347.918ZM-24.0554 360.006C-26.2976 349.767 -36.4906 345.068 -45.5266 343.693L-46.0886 343.621L-46.4128 343.099C-51.1243 335.242 -58.7168 329.954 -67.9316 330.995C-70.9929 331.319 -74.1481 332.146 -76.9418 333.63L-77.4101 333.44C-90.1819 328.235 -101.427 334.793 -108.397 347.298C-103.592 335.576 -93.1444 327.413 -81.1379 329.649C-79.7167 329.9 -78.3281 330.272 -76.9708 330.725C-68.1224 326.232 -57.2153 327.149 -50.1668 333.909C-47.9088 335.965 -46.0325 338.417 -44.4688 341.05C-34.9305 342.838 -24.503 348.704 -23.0246 359.746C-22.5259 363.312 -23.0608 366.957 -24.1035 370.338C-23.4917 366.902 -23.3176 363.343 -24.0554 360.006Z" fill="#EAEAEA" fill-opacity="0.08"/>
<path d="M259.643 439.119C257.758 440.023 255.478 441.137 253.507 442.602C251.195 444.315 249.301 446.518 248.934 449.378C248.575 447.571 249.4 445.588 250.482 444.125C251.072 443.338 251.724 442.641 252.434 442.017C255.112 439.634 258.532 438.305 261.849 437.476C262.692 437.3 263.535 437.134 264.381 437.023C262.83 437.763 261.194 438.389 259.643 439.119ZM271.969 452.642C270.19 454.503 267.973 455.906 265.932 457.376C263.31 459.029 262.016 461.912 261.352 464.987C261.02 466.524 260.845 468.109 260.739 469.613C260.438 468.129 260.324 466.498 260.463 464.874C260.711 461.685 261.888 458.519 264.383 456.538C266.305 455.115 268.945 453.491 270.818 452.013C270.833 452.008 270.847 451.993 270.857 451.983C272.527 450.687 274.01 449.134 274.611 447.019C274.654 446.869 274.697 446.709 274.726 446.544C274.742 446.498 274.749 446.443 274.759 446.403C274.766 446.483 274.773 446.553 274.77 446.623C274.866 446.811 274.957 447.005 275.039 447.198C274.957 447.15 274.86 447.116 274.772 447.082C274.74 448.086 274.44 449.119 273.939 450.034C273.394 451.015 272.717 451.873 271.969 452.642ZM274.691 472.43C272.795 473.894 270.502 474.838 268.35 475.252C270.266 474.257 272.293 473.042 273.935 471.497C275.61 469.926 276.882 468.007 277.241 465.616C277.853 462.682 278.323 459.55 279.68 456.831C279.978 456.233 280.327 455.649 280.73 455.095C281.477 454.116 282.473 453.339 283.548 452.97L283.553 452.975C283.581 452.964 283.614 452.949 283.643 452.938C283.619 452.954 283.59 452.974 283.571 452.994C282.072 454.073 281.193 455.623 280.602 457.333C280.435 457.814 280.29 458.311 280.164 458.817C279.558 461.186 279.109 464.393 278.563 466.796C277.963 469.141 276.515 471.023 274.691 472.43ZM295.256 474.564C297.342 472.633 298.031 469.783 298.097 466.842C298.16 464.345 297.777 461.774 297.433 459.662C297.178 458.083 296.806 456.49 296.527 454.916C296.49 454.762 296.468 454.602 296.441 454.448C296.541 454.661 296.65 454.885 296.745 455.093C297.009 455.674 297.254 456.264 297.503 456.86C298.716 460.144 299.573 463.807 299.179 467.426C299.078 468.386 298.889 469.333 298.593 470.275C298.028 472.035 296.905 473.848 295.256 474.564ZM303.3 469.672C303.3 469.672 303.301 469.652 303.302 469.612C303.308 469.328 303.33 468.094 303.309 466.242C303.226 460.073 302.625 447.09 299.099 440.468C297.843 438.114 298.027 435.116 299.612 432.843C300.145 432.077 300.723 431.35 301.299 430.808C299.411 430.025 296.821 428.846 293.864 427.234C290.811 425.578 287.359 423.453 283.878 420.809C284.228 423.894 283.232 427.228 275.287 428.903C272.715 429.447 257.712 432.605 250.008 436.633C248.764 437.284 247.711 437.957 246.933 438.641C246.846 438.722 246.759 438.804 246.676 438.88C245.78 439.725 245.033 440.714 244.454 441.845C241.64 447.34 243.736 454.441 249.12 459.391C249.29 459.079 249.474 458.762 249.663 458.46C252.572 453.712 256.784 449.771 261.337 446.859C262.195 446.303 263.079 445.787 263.966 445.306C263.985 445.296 263.999 445.291 264.018 445.28C265.785 444.268 267.856 443.381 269.691 442.568C268.151 443.392 266.454 444.264 264.918 445.228C264.664 445.386 264.41 445.555 264.161 445.718C263.424 446.187 262.695 446.686 261.979 447.21C257.588 450.415 253.686 454.571 251.121 459.508C250.935 459.875 250.748 460.242 250.575 460.624C250.317 461.162 250.077 461.709 249.86 462.271C250.895 468.363 255.32 474.464 262.073 478.132C269.638 482.244 278.001 482.151 283.572 478.516C283.668 478.455 283.764 478.383 283.86 478.322C283.864 478.327 283.869 478.312 283.869 478.312C285.863 475.844 287.379 472.873 288.461 469.883C288.787 468.765 289.364 467.04 289.565 465.909C289.62 465.688 289.665 465.468 289.71 465.248C289.715 465.243 289.715 465.243 289.711 465.238C289.902 464.367 290.052 463.461 290.179 462.551C290.316 461.61 290.43 460.665 290.538 459.765L290.76 455.613L290.832 459.766C290.792 460.74 290.74 461.774 290.66 462.809C290.587 463.903 290.468 464.998 290.299 466.029C290.08 467.534 289.764 469.026 289.35 470.495C289.279 470.78 289.194 471.061 289.104 471.347C288.26 474.089 287.06 476.731 285.449 479.11C292.461 480.942 299.363 478.747 302.183 473.247C302.762 472.106 303.124 470.913 303.3 469.672Z" fill="#EAEAEA" fill-opacity="0.08"/>
<path d="M0.478035 481.297C0.637067 481.315 1.35703 481.405 2.63757 481.577C2.31914 481.552 2.01045 481.516 1.69164 481.5C1.54238 481.472 1.39315 481.445 1.24389 481.417C0.809273 481.358 0.55248 481.316 0.478035 481.297Z" fill="#EAEAEA" fill-opacity="0.08"/>
<path d="M6.4244 482.653C7.55436 483.127 8.68392 483.61 9.81348 484.093C9.18522 483.83 8.55162 483.582 7.90313 483.349C7.42663 483.103 6.93067 482.868 6.4244 482.653Z" fill="#EAEAEA" fill-opacity="0.08"/>
<path d="M-3.44553 493.836L-6.33484 489.523C-6.56519 489.177 -6.3921 488.661 -5.99048 488.541L-1.16881 487.038C-1.33165 486.891 -1.50836 486.738 -1.66597 486.576C-4.21733 484.14 -5.68489 479.798 -5.62498 476.115C-5.55933 471.762 -3.78458 468.724 -1.33835 465.343C-4.38494 469.551 -0.991575 464.55 -0.385491 463.439C0.125368 462.504 0.599197 461.559 1.0412 460.59C0.837134 461.187 0.614367 461.783 0.38261 462.37C0.875635 461.156 1.36866 459.942 1.85233 458.728C1.59592 459.35 1.32081 459.972 1.0412 460.59C1.82807 458.369 2.42938 456.11 2.8784 453.798C2.80766 454.583 2.71859 455.357 2.60596 456.137C2.79514 454.798 2.98433 453.458 3.17801 452.123C3.08761 452.678 2.99236 453.238 2.88327 453.793C3.09548 451.44 3.12966 449.099 2.99102 446.756C2.62091 444.48 2.08029 442.267 1.36502 440.1C1.65025 440.735 1.92087 441.385 2.17731 442.041C1.72515 440.859 1.26813 439.683 0.815962 438.501C1.01169 439.027 1.19772 439.564 1.36988 440.095C0.830521 438.87 0.233567 437.685 -0.425058 436.527C-0.846534 435.784 -1.30687 435.081 -1.76236 434.374C-1.55641 434.621 -1.36467 434.872 -1.16844 435.129C-1.92835 434.057 -2.36912 433.459 -2.46238 433.325C-2.41818 433.395 -2.26726 433.612 -2.00959 433.978C-1.92568 434.112 -1.84177 434.245 -1.75749 434.369C-1.86945 434.236 -1.97654 434.097 -2.0885 433.964C-7.13402 427.784 -7.33319 419.298 -1.76088 412.731C-1.55575 412.489 -1.33677 412.251 -1.11367 412.029L-6.34887 410.782C-6.74732 410.687 -6.91124 410.185 -6.65946 409.818L-3.63858 405.291C-3.35207 404.868 -2.761 404.935 -2.60984 405.402L-0.600505 411.543C4.66186 406.806 13.7634 406.603 18.142 411.979C26.3278 421.999 31.0773 434.231 31.2535 447.947C31.3355 454.268 30.351 460.998 28.2745 467.05C25.838 474.129 22.5822 479.842 18.2512 485.818C15.9817 488.968 11.6899 490.293 8.23018 490.59C5.0753 490.857 2.09709 489.614 -0.337835 487.701L-2.40508 493.627C-2.58231 494.129 -3.17996 494.241 -3.44553 493.836Z" fill="#EAEAEA" fill-opacity="0.08"/>
<path d="M222.404 403.879L219.515 399.566C219.284 399.22 219.458 398.704 219.859 398.583L224.681 397.081C224.518 396.934 224.341 396.781 224.184 396.619C221.632 394.183 220.165 389.841 220.225 386.158C220.29 381.805 222.065 378.767 224.511 375.386C221.465 379.594 224.858 374.593 225.464 373.482C225.975 372.547 226.449 371.602 226.891 370.633C226.687 371.23 226.464 371.826 226.232 372.413C226.725 371.199 227.218 369.985 227.702 368.771C227.446 369.393 227.17 370.015 226.891 370.633C227.678 368.412 228.279 366.153 228.728 363.841C228.657 364.626 228.568 365.4 228.456 366.18C228.645 364.841 228.834 363.501 229.028 362.166C228.937 362.721 228.842 363.281 228.733 363.836C228.945 361.483 228.979 359.142 228.841 356.799C228.471 354.523 227.93 352.31 227.215 350.143C227.5 350.778 227.77 351.428 228.027 352.084C227.575 350.902 227.118 349.726 226.666 348.544C226.861 349.07 227.047 349.607 227.219 350.138C226.68 348.913 226.083 347.728 225.425 346.57C225.003 345.827 224.543 345.124 224.087 344.417C224.293 344.664 224.485 344.915 224.681 345.172C223.921 344.1 223.48 343.502 223.387 343.368C223.431 343.438 223.582 343.655 223.84 344.021C223.924 344.155 224.008 344.288 224.092 344.412C223.98 344.278 223.873 344.14 223.761 344.007C218.716 337.827 218.516 329.341 224.089 322.774C224.294 322.532 224.513 322.294 224.736 322.072L219.501 320.825C219.102 320.73 218.938 320.228 219.19 319.861L222.211 315.334C222.498 314.911 223.089 314.978 223.24 315.445L225.249 321.586C230.511 316.849 239.613 316.646 243.992 322.022C252.177 332.042 256.927 344.274 257.103 357.99C257.185 364.311 256.201 371.041 254.124 377.093C251.688 384.172 248.432 389.885 244.101 395.861C241.831 399.011 237.539 400.336 234.08 400.632C230.925 400.9 227.947 399.657 225.512 397.744L223.445 403.67C223.267 404.172 222.67 404.284 222.404 403.879Z" fill="#EAEAEA" fill-opacity="0.08"/>
<path d="M73.3301 570.749C75.0133 566.847 74.4845 562.57 72.3055 559.525C71.2833 558.28 69.9457 557.295 68.5844 556.566L67.3679 555.996L68.6717 556.369C69.829 556.759 70.957 557.306 71.9751 558.024C72.2953 553.058 69.7791 548.316 65.3022 546.326C64.7096 546.064 64.1196 545.856 63.5135 545.704C63.5135 545.704 63.509 545.699 63.5139 545.694C61.9416 545.455 60.2651 545.614 58.727 545.976L57.3999 546.361L58.678 545.776C60.1545 545.169 61.7457 544.77 63.319 544.728C62.0176 538.696 58.1778 533.476 52.4464 530.927C50.8215 530.202 49.1492 529.738 47.4632 529.521C47.4538 529.521 47.4493 529.516 47.4349 529.522C45.2075 529.693 42.9888 530.898 41.194 532.348L40.1143 533.296L41.0633 532.194C42.6169 530.522 44.5518 529.1 46.657 528.419C45.0225 524.518 42.0784 521.293 38.0924 519.517C34.9533 518.126 31.6047 517.821 28.4147 518.442C28.4098 518.447 28.4053 518.442 28.4053 518.442C26.9603 518.959 25.578 519.816 24.3755 520.776L23.2957 521.725L24.2447 520.623C25.2201 519.571 26.3424 518.617 27.5695 517.882C25.9734 515.872 23.9118 514.23 21.4535 513.136C15.1619 510.338 7.98318 511.928 2.93533 516.594C2.92592 516.595 2.92066 516.61 2.91577 516.615C1.69501 518.067 0.826615 519.915 0.270837 521.709L-0.101326 523.119L0.0794712 521.667C0.353191 519.992 0.867604 518.299 1.67212 516.778C-3.84745 514.607 -10.1309 516.801 -13.7292 521.844C-14.4073 523.002 -14.9249 524.274 -15.2866 525.528L-15.64 526.938L-15.4829 525.491C-15.2997 524.229 -14.9798 522.96 -14.4979 521.764C-20.4227 521.26 -26.1381 524.254 -28.6777 529.683C-28.6875 529.693 -28.6928 529.708 -28.6932 529.718C-29.4093 531.65 -29.6493 533.811 -29.6046 535.782L-29.7918 534.355C-29.9239 532.967 -29.8844 531.516 -29.6346 530.108C-32.487 530.89 -35.0273 533.028 -36.3557 536.117C-38.6047 541.321 -36.5518 547.268 -31.7788 549.394C-30.6584 549.89 -29.486 550.13 -28.3335 550.139C-28.3101 550.143 -28.2868 550.148 -28.2679 550.148C-24.418 550.26 -18.5188 552.345 -18.3237 552.413L-18.3143 552.412C-4.53543 559.526 17.5021 568.927 43.2985 572.637C43.2985 572.637 43.303 572.642 43.3079 572.637C52.6454 574.258 58.1818 576.228 58.5303 576.349C58.8298 576.52 59.1391 576.681 59.4541 576.817C64.6619 579.148 70.8802 576.422 73.3301 570.749ZM25.6182 543.658C25.6603 543.537 25.7073 543.411 25.7544 543.285L25.9363 543.327C25.8286 543.439 25.7255 543.556 25.6182 543.658ZM59.3916 555.741C57.1493 545.502 46.9564 540.802 37.9204 539.428L37.3583 539.355L37.0341 538.833C32.3226 530.976 24.7302 525.688 15.5153 526.73C12.454 527.053 9.29881 527.88 6.50513 529.364L6.03684 529.175C-6.73951 523.964 -17.9798 530.528 -24.9506 543.032C-20.1452 531.31 -9.69748 523.147 2.30895 525.383C3.73022 525.635 5.11881 526.007 6.47615 526.459C15.3246 521.966 26.2316 522.883 33.2801 529.643C35.5381 531.699 37.4099 534.147 38.9782 536.784C48.5165 538.573 58.944 544.438 60.4224 555.481C60.9211 559.046 60.3862 562.691 59.3435 566.072C59.9504 562.642 60.1293 559.077 59.3916 555.741Z" fill="#EAEAEA" fill-opacity="0.08"/>
<path d="M33.7698 656.615C33.7114 656.695 33.6535 656.764 33.5907 656.839L33.5863 656.834C33.55 656.825 33.5181 656.821 33.4914 656.802C33.5901 656.746 33.6799 656.681 33.7698 656.615Z" fill="#EAEAEA" fill-opacity="0.08"/>
<path d="M23.6358 625.529C23.5519 625.48 23.453 625.446 23.3636 625.412C23.3747 625.255 23.3667 625.098 23.3633 624.945C23.4606 625.137 23.553 625.333 23.6358 625.529Z" fill="#EAEAEA" fill-opacity="0.08"/>
<path d="M32.5486 631.517C32.5247 631.533 32.4958 631.553 32.4762 631.574C32.4768 631.564 32.468 631.554 32.4588 631.555C32.4827 631.539 32.5203 631.528 32.5486 631.517Z" fill="#EAEAEA" fill-opacity="0.08"/>
<path d="M52.9908 648.761C52.9966 648.476 53.0187 647.243 52.998 645.391C53.1432 646.527 53.1481 647.665 52.9908 648.761Z" fill="#EAEAEA" fill-opacity="0.08"/>
<path d="M8.46998 617.517C6.58082 618.416 4.30488 619.535 2.33426 621C0.0225399 622.714 -1.86735 624.911 -2.2387 627.777C-2.59808 625.969 -1.77272 623.986 -0.690559 622.524C-0.100686 621.737 0.551364 621.039 1.26151 620.415C3.93903 618.033 7.35888 616.703 10.6762 615.875C11.5196 615.699 12.3627 615.533 13.2084 615.421C11.6619 616.156 10.0258 616.782 8.46998 617.517ZM20.801 631.035C19.0216 632.896 16.8054 634.299 14.7644 635.77C12.1416 637.422 10.8485 640.306 10.1843 643.38C9.85222 644.917 9.67736 646.502 9.5709 648.006C9.26983 646.523 9.15645 644.892 9.29537 643.267C9.54293 640.079 10.7202 636.912 13.2147 634.932C15.137 633.508 17.7774 631.885 19.6504 630.407C19.6646 630.401 19.6792 630.386 19.6889 630.376C21.3588 629.08 22.8417 627.528 23.4428 625.413C23.4857 625.262 23.5289 625.102 23.5583 624.937C23.574 624.892 23.5807 624.837 23.5915 624.797C23.598 624.876 23.5999 624.951 23.6022 625.016C23.6982 625.205 23.7893 625.398 23.871 625.592C23.7886 625.543 23.6917 625.509 23.6041 625.475C23.5721 626.479 23.2724 627.512 22.7714 628.427C22.221 629.413 21.5492 630.266 20.801 631.035ZM23.5182 650.828C21.6225 652.292 19.3295 653.236 17.1776 653.65C19.0936 652.656 21.1206 651.44 22.7622 649.895C24.4326 648.33 25.7093 646.405 26.068 644.014C26.6803 641.08 27.1502 637.949 28.5074 635.229C28.8052 634.631 29.1539 634.048 29.5576 633.493C30.3041 632.514 31.3004 631.737 32.3753 631.368L32.3798 631.373C32.4082 631.363 32.4415 631.347 32.4699 631.337C32.446 631.352 32.4172 631.372 32.3978 631.393C30.8995 632.471 30.0198 634.021 29.4289 635.731C29.2617 636.213 29.1173 636.709 28.9913 637.215C28.3856 639.585 27.9363 642.791 27.3901 645.195C26.7949 647.534 25.3418 649.421 23.5182 650.828ZM44.0835 652.962C46.1694 651.032 46.8581 648.182 46.9237 645.24C46.987 642.743 46.6041 640.172 46.2606 638.06C46.005 636.481 45.6331 634.888 45.354 633.315C45.3176 633.16 45.2954 633.001 45.2683 632.846C45.368 633.06 45.4768 633.283 45.572 633.491C45.836 634.072 46.0809 634.663 46.3303 635.258C47.5427 638.542 48.4 642.205 48.0057 645.825C47.9052 646.785 47.7163 647.731 47.4199 648.673C46.8601 650.428 45.7322 652.246 44.0835 652.962ZM52.1271 648.071C52.1271 648.071 52.1278 648.051 52.1293 648.011C52.135 647.726 52.1567 646.493 52.1357 644.641C52.0528 638.471 51.4523 625.489 47.9259 618.867C46.6701 616.512 46.8546 613.514 48.4386 611.241C48.9716 610.475 49.55 609.748 50.1262 609.206C48.2378 608.423 45.6485 607.245 42.6916 605.632C39.6382 603.976 36.1857 601.851 32.7055 599.207C33.0556 602.293 32.0592 605.626 24.1147 607.301C21.5418 607.845 6.53875 611.003 -1.1646 615.031C-2.40878 615.682 -3.46206 616.355 -4.23989 617.04C-4.32702 617.121 -4.41417 617.202 -4.49643 617.278C-5.39239 618.124 -6.13927 619.112 -6.71836 620.243C-9.53312 625.738 -7.43631 632.839 -2.05326 637.789C-1.88288 637.477 -1.69829 637.16 -1.50956 636.858C1.39941 632.111 5.61147 628.17 10.1646 625.258C11.0268 624.697 11.9058 624.186 12.7931 623.704C12.8122 623.694 12.8264 623.689 12.8455 623.679C14.6126 622.666 16.6836 621.78 18.5182 620.966C16.9778 621.791 15.2813 622.662 13.7451 623.627C13.4915 623.785 13.2376 623.953 12.9885 624.116C12.2512 624.585 11.5223 625.084 10.8064 625.608C6.41556 628.813 2.51359 632.969 -0.0516583 637.907C-0.238085 638.274 -0.424549 638.641 -0.59749 639.022C-0.855624 639.56 -1.09537 640.107 -1.31681 640.665C-0.281894 646.756 4.14258 652.857 10.8958 656.526C18.4603 660.637 26.8239 660.544 32.3947 656.909C32.4905 656.848 32.5866 656.777 32.6824 656.716C32.6869 656.721 32.6921 656.706 32.6921 656.706C34.6854 654.237 36.2015 651.266 37.2835 648.276C37.6096 647.158 38.187 645.433 38.3874 644.302C38.4422 644.082 38.4876 643.862 38.5331 643.641C38.538 643.636 38.538 643.636 38.5335 643.631C38.7243 642.76 38.8743 641.854 39.0012 640.944C39.1384 640.003 39.2525 639.058 39.3602 638.158L39.5823 634.007L39.6548 638.159C39.6144 639.133 39.5626 640.168 39.4827 641.202C39.4099 642.296 39.2903 643.391 39.1217 644.422C38.903 645.928 38.5866 647.42 38.1728 648.888C38.1016 649.174 38.0165 649.454 37.9266 649.74C37.0828 652.483 35.8827 655.125 34.2714 657.503C41.2834 659.335 48.1856 657.14 51.0052 651.64C51.5892 650.504 51.9556 649.306 52.1271 648.071Z" fill="#EAEAEA" fill-opacity="0.08"/>
<path d="M51.8007 609.234C48.583 608.03 39.6403 604.323 30.8753 597.289C30.5817 596.022 30.3902 594.94 30.8721 594.237C34.3664 589.122 44.5931 592.867 53.0044 600.849C57.4137 605.037 54.3797 608.763 51.8007 609.234Z" fill="#EAEAEA" fill-opacity="0.08"/>
<path d="M23.3444 624.951C23.3313 624.927 23.3187 624.892 23.3007 624.872C23.3167 624.826 23.3238 624.771 23.335 624.73C23.3414 624.801 23.3429 624.876 23.3444 624.951Z" fill="#EAEAEA" fill-opacity="0.08"/>
<path d="M23.6358 625.529C23.5519 625.48 23.453 625.446 23.3636 625.412C23.3747 625.255 23.3667 625.098 23.3633 624.945C23.4606 625.137 23.553 625.333 23.6358 625.529Z" fill="#EAEAEA" fill-opacity="0.08"/>
<path d="M32.5486 631.517C32.5247 631.533 32.4958 631.553 32.4762 631.574C32.4768 631.564 32.468 631.554 32.4588 631.555C32.4827 631.539 32.5203 631.528 32.5486 631.517Z" fill="#EAEAEA" fill-opacity="0.08"/>
<path d="M45.8514 634.139C45.7775 634.07 45.7079 634.015 45.6286 633.96C45.5917 633.803 45.5693 633.641 45.542 633.484C45.6436 633.701 45.7544 633.928 45.8514 634.139Z" fill="#EAEAEA" fill-opacity="0.08"/>
<path d="M32.5486 631.517C32.5247 631.533 32.4958 631.553 32.4762 631.574C32.4768 631.564 32.468 631.554 32.4588 631.555C32.4827 631.539 32.5203 631.528 32.5486 631.517Z" fill="#EAEAEA" fill-opacity="0.08"/>
<path d="M23.3444 624.951C23.3313 624.927 23.3187 624.892 23.3007 624.872C23.3167 624.826 23.3238 624.771 23.335 624.73C23.3414 624.801 23.3429 624.876 23.3444 624.951Z" fill="#EAEAEA" fill-opacity="0.08"/>
<path d="M45.8514 634.139C45.7775 634.07 45.7079 634.015 45.6286 633.96C45.5917 633.803 45.5693 633.641 45.542 633.484C45.6436 633.701 45.7544 633.928 45.8514 634.139Z" fill="#EAEAEA" fill-opacity="0.08"/>
<path d="M-8.68689 729.464L-8.70577 729.483C-9.48377 730.284 -10.5638 730.387 -11.3684 729.93C-11.0499 729.768 -10.7516 729.543 -10.4875 729.271L33.5783 683.162C34.2109 682.492 34.5616 681.636 34.5748 680.742C34.5845 680.273 34.4943 679.815 34.3255 679.402L34.4778 679.438C35.5068 679.709 36.088 680.661 36.0706 681.661C36.0598 682.268 35.8363 682.884 35.3597 683.383L-8.68689 729.464Z" fill="#EAEAEA" fill-opacity="0.08"/>
<path d="M-13.477 728.162C-13.656 728.349 -13.8656 728.481 -14.0868 728.548C-14.4305 728.657 -14.8104 728.613 -15.1205 728.438C-15.3438 728.306 -15.6417 728.052 -15.7536 727.546L-29.9991 663.928C-30.0272 663.804 -30.0407 663.665 -30.0357 663.526C-30.0219 663.148 -29.8643 662.783 -29.5934 662.501C-29.2258 662.118 -28.7413 661.977 -28.2618 662.1L31.1513 677.887C31.3678 677.949 31.5411 678.046 31.6988 678.188C31.7257 678.217 31.7529 678.237 31.7798 678.266C32.0124 678.522 32.1436 678.883 32.1436 679.266C32.1334 679.545 32.0627 679.953 31.7092 680.331L-13.4722 728.157L-13.477 728.162Z" fill="#EAEAEA" fill-opacity="0.08"/>
<path d="M83.6548 681.449C83.8138 681.467 84.5338 681.557 85.8143 681.73C85.4959 681.704 85.1872 681.668 84.8684 681.653C84.7192 681.625 84.5699 681.597 84.4206 681.569C83.986 681.51 83.7292 681.468 83.6548 681.449Z" fill="#EAEAEA" fill-opacity="0.08"/>
<path d="M79.7307 693.983L76.8413 689.671C76.611 689.324 76.7841 688.808 77.1857 688.688L82.0074 687.186C81.8445 687.038 81.6678 686.886 81.5102 686.723C78.9589 684.288 77.4913 679.946 77.5512 676.262C77.6168 671.91 79.3916 668.872 81.8378 665.49C78.7912 669.698 82.1846 664.697 82.7907 663.586C83.3015 662.651 83.7754 661.706 84.2174 660.737C84.0133 661.334 83.7905 661.931 83.5588 662.518C84.0518 661.303 84.5448 660.089 85.0285 658.875C84.7721 659.497 84.497 660.12 84.2174 660.737C85.0043 658.516 85.6055 656.257 86.0546 653.946C85.9838 654.73 85.8948 655.505 85.7821 656.285C85.9713 654.945 86.1605 653.605 86.3542 652.27C86.2683 652.83 86.1685 653.385 86.0594 653.941C86.2716 651.587 86.3058 649.247 86.1717 646.908C85.8016 644.632 85.261 642.419 84.5457 640.253C84.8309 640.888 85.1015 641.538 85.358 642.193C84.9058 641.011 84.4488 639.835 83.9966 638.653C84.1923 639.18 84.3784 639.716 84.5505 640.248C84.0112 639.022 83.4142 637.838 82.7556 636.679C82.3386 635.941 81.8738 635.234 81.4183 634.526C81.6242 634.773 81.816 635.025 82.0122 635.282C81.2523 634.209 80.8115 633.611 80.7183 633.478C80.7625 633.547 80.9134 633.764 81.1711 634.13C81.255 634.264 81.3389 634.397 81.4232 634.521C81.3112 634.388 81.2041 634.25 81.0921 634.116C76.0466 627.937 75.8475 619.451 81.4198 612.883C81.6249 612.641 81.8439 612.403 82.067 612.181L76.8318 610.934C76.4333 610.84 76.2694 610.338 76.5212 609.97L79.5421 605.443C79.8286 605.02 80.4197 605.087 80.5708 605.554L82.5801 611.695C87.8425 606.958 96.9441 606.756 101.323 612.131C109.508 622.151 114.258 634.383 114.434 648.099C114.516 654.421 113.532 661.151 111.455 667.202C109.019 674.281 105.763 679.994 101.432 685.971C99.1578 689.115 94.8705 690.446 91.4108 690.742C88.2559 691.009 85.2778 689.767 82.8428 687.853L80.7756 693.78C80.5938 694.276 79.9962 694.389 79.7307 693.983Z" fill="#EAEAEA" fill-opacity="0.08"/>
<path d="M227.135 475.581C228.818 471.679 228.289 467.402 226.11 464.357C225.088 463.112 223.75 462.127 222.389 461.398L221.173 460.828L222.476 461.201C223.634 461.592 224.762 462.138 225.78 462.856C226.1 457.89 223.584 453.148 219.107 451.158C218.514 450.896 217.924 450.688 217.318 450.536C217.318 450.536 217.314 450.531 217.319 450.526C215.746 450.287 214.07 450.446 212.532 450.808L211.205 451.193L212.483 450.608C213.959 450.001 215.55 449.602 217.124 449.56C215.822 443.528 211.983 438.308 206.251 435.759C204.626 435.034 202.954 434.571 201.268 434.353C201.258 434.353 201.254 434.348 201.24 434.354C199.012 434.525 196.794 435.73 194.999 437.18L193.919 438.128L194.868 437.026C196.422 435.354 198.356 433.932 200.462 433.251C198.827 429.35 195.883 426.125 191.897 424.349C188.758 422.958 185.409 422.653 182.219 423.274C182.215 423.279 182.21 423.275 182.21 423.275C180.765 423.791 179.383 424.648 178.18 425.608L177.1 426.557L178.049 425.455C179.025 424.403 180.147 423.449 181.374 422.714C179.778 420.704 177.717 419.062 175.258 417.968C168.967 415.17 161.788 416.76 156.74 421.426C156.731 421.427 156.725 421.442 156.72 421.447C155.5 422.899 154.631 424.747 154.076 426.541L153.703 427.951L153.884 426.499C154.158 424.824 154.672 423.131 155.477 421.61C149.957 419.439 143.674 421.633 140.076 426.676C139.397 427.834 138.88 429.106 138.518 430.36L138.165 431.77L138.322 430.323C138.505 429.061 138.825 427.792 139.307 426.596C133.382 426.092 127.667 429.086 125.127 434.515C125.117 434.525 125.112 434.54 125.112 434.55C124.395 436.482 124.155 438.643 124.2 440.614L124.013 439.187C123.881 437.799 123.92 436.348 124.17 434.94C121.318 435.722 118.777 437.86 117.449 440.949C115.2 446.153 117.253 452.1 122.026 454.226C123.146 454.722 124.319 454.962 125.471 454.971C125.495 454.975 125.518 454.98 125.537 454.98C129.387 455.092 135.286 457.177 135.481 457.245L135.49 457.244C149.269 464.358 171.312 473.754 197.103 477.469C197.103 477.469 197.108 477.474 197.113 477.469C206.45 479.09 211.987 481.06 212.335 481.181C212.635 481.352 212.944 481.513 213.259 481.649C218.467 483.98 224.685 481.255 227.135 475.581ZM179.418 448.485C179.46 448.364 179.508 448.238 179.555 448.112L179.736 448.154C179.633 448.271 179.53 448.388 179.418 448.485ZM213.196 460.573C210.954 450.334 200.761 445.634 191.725 444.26L191.163 444.187L190.839 443.665C186.127 435.808 178.535 430.52 169.32 431.562C166.259 431.885 163.104 432.712 160.31 434.196L159.842 434.007C147.07 428.791 135.825 435.36 128.854 447.864C133.66 436.142 144.107 427.979 156.114 430.215C157.535 430.467 158.924 430.839 160.281 431.291C169.129 426.798 180.036 427.715 187.085 434.475C189.343 436.531 191.215 438.979 192.783 441.616C202.321 443.405 212.749 449.27 214.227 460.313C214.726 463.878 214.191 467.523 213.148 470.904C213.755 467.474 213.93 463.904 213.196 460.573Z" fill="#EAEAEA" fill-opacity="0.08"/>
<path d="M101.146 509.668C98.235 509.412 95.3195 509.152 92.4086 508.896C92.2679 512.345 92.1362 515.804 92 519.257C94.9154 519.518 97.8313 519.768 100.747 520.029C100.883 516.575 101.01 513.121 101.146 509.668ZM101.651 496.799C98.7358 496.539 95.8249 496.283 92.9094 496.023C92.7655 499.687 92.6216 503.351 92.4777 507.015C95.3931 507.275 98.309 507.525 101.22 507.791C101.363 504.127 101.507 500.463 101.651 496.799ZM91.1526 495.867C88.4987 495.633 85.8448 495.399 83.1957 495.16C83.0518 498.824 82.9079 502.488 82.764 506.152C85.4179 506.386 88.0718 506.619 90.7258 506.853C90.8648 503.195 91.0087 499.531 91.1526 495.867ZM68.5006 499.238C69.3971 516.184 83.0099 531.111 98.8491 532.516C106.105 533.162 112.779 530.89 117.778 526.124C120.479 521.495 121.892 515.808 121.56 509.549C120.92 497.351 113.848 486.202 104.066 480.183C104.033 481.073 104.001 481.954 103.964 482.83C104.814 482.909 105.674 482.987 106.529 483.06C107.646 483.16 107.586 485.042 106.46 484.942C105.605 484.869 104.745 484.791 103.895 484.712C103.885 484.857 103.88 484.998 103.874 485.148C103.748 488.456 103.617 491.77 103.482 495.078C106.168 495.317 108.85 495.55 111.537 495.789L111.664 492.71C111.713 491.494 113.477 491.47 113.427 492.686C113.383 493.772 113.338 494.859 113.303 495.945C114.228 496.032 115.153 496.11 116.083 496.192C117.2 496.292 117.144 498.178 116.014 498.074C115.084 497.991 114.159 497.904 113.229 497.832C113.085 501.496 112.937 505.154 112.793 508.818C114.115 508.935 115.442 509.057 116.764 509.174C117.886 509.269 117.821 511.156 116.695 511.056C115.373 510.939 114.041 510.822 112.714 510.7L112.551 514.76C112.507 515.971 110.743 515.995 110.788 514.784C110.844 513.377 110.901 511.961 110.953 510.549C108.271 510.316 105.589 510.072 102.907 509.839C102.771 513.292 102.634 516.746 102.498 520.2C104.503 520.377 106.507 520.555 108.512 520.733C109.633 520.828 109.573 522.719 108.442 522.615C106.438 522.437 104.429 522.264 102.42 522.082C102.364 523.613 102.298 525.145 102.242 526.677C102.197 527.888 100.434 527.912 100.478 526.701C100.537 525.109 100.6 523.522 100.667 521.931C97.752 521.67 94.8362 521.42 91.9208 521.16C91.8637 522.586 91.8115 524.007 91.7544 525.434C91.7099 526.645 89.9465 526.669 89.991 525.458C90.0503 523.971 90.1047 522.49 90.1685 521.008C89.4255 520.943 88.6826 520.879 87.9397 520.814C86.823 520.714 86.8827 518.832 88.0088 518.932C88.7517 518.997 89.4946 519.062 90.2421 519.131C90.3738 515.673 90.51 512.219 90.6462 508.765C87.9923 508.532 85.3383 508.298 82.6844 508.064C82.6424 509.08 82.6045 510.111 82.5625 511.127C82.5181 512.338 80.7547 512.362 80.7991 511.151C80.8437 510.065 80.883 508.994 80.9276 507.908C79.9978 507.825 79.068 507.743 78.1337 507.656C77.0122 507.561 77.0768 505.674 78.2028 505.774C79.1326 505.856 80.0624 505.938 81.0016 506.021C81.15 502.362 81.2939 498.698 81.4378 495.034C80.1111 494.912 78.7839 494.8 77.4523 494.683C76.3308 494.588 76.3954 492.702 77.5214 492.801C78.853 492.918 80.1847 493.035 81.5163 493.152C81.5708 491.795 81.6253 490.439 81.6753 489.078C81.7247 487.861 83.4881 487.837 83.4432 489.058C83.3865 490.475 83.3298 491.891 83.2731 493.308C85.9222 493.547 88.5761 493.781 91.23 494.015C91.3662 490.561 91.5024 487.108 91.6386 483.654C89.7415 483.49 87.8538 483.325 85.9615 483.156C84.8449 483.056 84.9001 481.169 86.0307 481.274C87.9278 481.438 89.82 481.608 91.7171 481.772C91.7617 480.686 91.8018 479.595 91.8418 478.503C91.8912 477.287 93.6546 477.263 93.6052 478.479C93.5629 479.631 93.5162 480.777 93.4739 481.928C96.3848 482.183 99.3003 482.444 102.211 482.699C102.258 481.543 102.306 480.387 102.348 479.225C102.349 479.215 102.349 479.215 102.349 479.215L102.344 479.21C98.6987 477.254 94.7233 475.988 90.6022 475.624C84.7571 475.108 79.4059 476.457 74.9969 479.214C70.4002 484.399 68.0921 491.469 68.5006 499.238ZM114.756 530.288C110.096 533.228 104.555 534.534 98.663 534.009C90.4255 533.286 82.7626 529.039 77.0444 522.768C71.3262 516.498 67.557 508.21 67.0934 499.392C66.7531 493.083 68.1271 487.196 71.0117 482.3C65.6031 487.511 62.4705 495.333 62.9452 504.361C63.8611 521.673 77.7218 536.871 93.9065 538.311C102.335 539.057 109.735 535.914 114.756 530.288ZM102.134 484.551C99.2229 484.296 96.3026 484.04 93.3965 483.78C93.3906 483.94 93.3848 484.1 93.3789 484.26C93.2486 487.554 93.1182 490.847 92.9879 494.141C95.9034 494.401 98.8143 494.657 101.73 494.917C101.861 491.458 101.993 488.01 102.134 484.551ZM111.463 497.666C108.777 497.427 106.095 497.194 103.408 496.955C103.264 500.619 103.12 504.283 102.976 507.947C105.663 508.185 108.345 508.419 111.027 508.662C111.175 504.993 111.319 501.33 111.463 497.666Z" fill="#EAEAEA" fill-opacity="0.08"/>
<path d="M111.297 497.91C108.61 497.672 105.928 497.438 103.241 497.2C103.097 500.864 102.953 504.528 102.809 508.193C105.496 508.431 108.178 508.665 110.86 508.908C111.009 505.239 111.153 501.575 111.297 497.91ZM111.297 497.91C108.61 497.672 105.928 497.438 103.241 497.2C103.097 500.864 102.953 504.528 102.809 508.193C105.496 508.431 108.178 508.665 110.86 508.908C111.009 505.239 111.153 501.575 111.297 497.91ZM111.297 497.91C108.61 497.672 105.928 497.438 103.241 497.2C103.097 500.864 102.953 504.528 102.809 508.193C105.496 508.431 108.178 508.665 110.86 508.908C111.009 505.239 111.153 501.575 111.297 497.91ZM100.978 509.914C98.0669 509.658 95.1511 509.398 92.2398 509.142C92.0991 512.591 91.9674 516.05 91.8311 519.504C94.7469 519.765 97.6631 520.015 100.579 520.275C100.715 516.821 100.842 513.368 100.978 509.914ZM111.297 497.91C108.61 497.672 105.928 497.438 103.241 497.2C103.097 500.864 102.953 504.528 102.809 508.193C105.496 508.431 108.178 508.665 110.86 508.908C111.009 505.239 111.153 501.575 111.297 497.91ZM101.484 497.044C98.5679 496.783 95.6566 496.528 92.7408 496.268C92.5969 499.932 92.4529 503.596 92.309 507.26C95.2247 507.521 98.1409 507.771 101.052 508.036C101.196 504.372 101.34 500.708 101.484 497.044ZM100.978 509.914C98.0669 509.658 95.1511 509.398 92.2398 509.142C92.0991 512.591 91.9674 516.05 91.8311 519.504C94.7469 519.765 97.6631 520.015 100.579 520.275C100.715 516.821 100.842 513.368 100.978 509.914ZM111.297 497.91C108.61 497.672 105.928 497.438 103.241 497.2C103.097 500.864 102.953 504.528 102.809 508.193C105.496 508.431 108.178 508.665 110.86 508.908C111.009 505.239 111.153 501.575 111.297 497.91ZM101.484 497.044C98.5679 496.783 95.6566 496.528 92.7408 496.268C92.5969 499.932 92.4529 503.596 92.309 507.26C95.2247 507.521 98.1409 507.771 101.052 508.036C101.196 504.372 101.34 500.708 101.484 497.044ZM100.978 509.914C98.0669 509.658 95.1511 509.398 92.2398 509.142C92.0991 512.591 91.9674 516.05 91.8311 519.504C94.7469 519.765 97.6631 520.015 100.579 520.275C100.715 516.821 100.842 513.368 100.978 509.914ZM111.297 497.91C108.61 497.672 105.928 497.438 103.241 497.2C103.097 500.864 102.953 504.528 102.809 508.193C105.496 508.431 108.178 508.665 110.86 508.908C111.009 505.239 111.153 501.575 111.297 497.91ZM101.484 497.044C98.5679 496.783 95.6566 496.528 92.7408 496.268C92.5969 499.932 92.4529 503.596 92.309 507.26C95.2247 507.521 98.1409 507.771 101.052 508.036C101.196 504.372 101.34 500.708 101.484 497.044ZM90.9839 496.112C88.3296 495.878 85.6754 495.644 83.026 495.405C82.8821 499.069 82.7381 502.733 82.5941 506.397C85.2484 506.631 87.9026 506.865 90.5569 507.099C90.6959 503.44 90.8399 499.776 90.9839 496.112ZM100.978 509.914C98.0669 509.658 95.1511 509.398 92.2398 509.142C92.0991 512.591 91.9674 516.05 91.8311 519.504C94.7469 519.765 97.6631 520.015 100.579 520.275C100.715 516.821 100.842 513.368 100.978 509.914ZM110.86 508.898C111.004 505.234 111.153 501.575 111.297 497.91C108.61 497.672 105.928 497.438 103.241 497.2C103.097 500.864 102.953 504.528 102.809 508.193C105.491 508.426 108.178 508.665 110.86 508.898ZM101.484 497.044C98.5679 496.783 95.6566 496.528 92.7408 496.268C92.5969 499.932 92.4529 503.596 92.309 507.26C95.2247 507.521 98.1409 507.771 101.052 508.036C101.196 504.372 101.34 500.708 101.484 497.044ZM83.0211 495.41C82.8772 499.074 82.7332 502.738 82.5893 506.402C85.2435 506.636 87.8978 506.87 90.552 507.104C90.6959 503.44 90.835 499.781 90.979 496.117C88.3296 495.878 85.6754 495.644 83.0211 495.41ZM101.562 495.162C101.694 491.703 101.83 488.249 101.966 484.795C99.0551 484.539 96.1345 484.284 93.228 484.024C93.2222 484.184 93.2163 484.344 93.2104 484.504C93.0801 487.798 92.9497 491.092 92.8193 494.385C95.7351 494.646 98.6464 494.901 101.562 495.162ZM125.543 504.825C125.09 496.351 121.468 488.381 115.975 482.357C110.477 476.328 103.112 472.251 95.1913 471.544C87.5742 470.878 80.5899 473.405 75.5255 478.672C75.2867 478.92 75.0569 479.179 74.8319 479.432C70.2291 484.643 67.9252 491.719 68.334 499.478C69.2305 516.426 82.8449 531.354 98.6858 532.759C105.943 533.405 112.618 531.133 117.617 526.367C117.864 526.128 118.117 525.884 118.356 525.636C123.42 520.369 125.97 512.979 125.543 504.825ZM108.271 522.847C106.267 522.669 104.257 522.496 102.248 522.314C102.192 523.846 102.126 525.377 102.07 526.909C102.025 528.12 100.262 528.144 100.306 526.933C100.365 525.341 100.428 523.755 100.496 522.163C97.5797 521.902 94.6636 521.652 91.7478 521.392C91.6907 522.818 91.6385 524.24 91.5814 525.666C91.5369 526.878 89.7733 526.902 89.8178 525.691C89.8771 524.204 89.9315 522.722 89.9953 521.24C89.2523 521.175 88.5092 521.111 87.7662 521.046C86.6494 520.946 86.7092 519.064 87.8354 519.164C88.5784 519.228 89.3214 519.293 90.0689 519.363C90.2007 515.904 90.3369 512.45 90.4731 508.996C87.8189 508.762 85.1646 508.529 82.5104 508.295C82.4684 509.311 82.4305 510.342 82.3885 511.358C82.344 512.569 80.5804 512.594 80.6249 511.382C80.6695 510.296 80.7088 509.225 80.7534 508.139C79.8235 508.056 78.8936 507.974 77.9592 507.887C76.8376 507.792 76.9022 505.905 78.0283 506.004C78.9583 506.087 79.8881 506.169 80.8274 506.251C80.9759 502.592 81.1198 498.928 81.2638 495.264C79.9369 495.142 78.6096 495.03 77.2778 494.913C76.1561 494.818 76.2207 492.931 77.3469 493.031C78.6787 493.148 80.0105 493.265 81.3423 493.381C81.3968 492.025 81.4513 490.668 81.5013 489.307C81.5507 488.09 83.3143 488.066 83.2695 489.288C83.2127 490.704 83.156 492.121 83.0993 493.538C85.7486 493.777 88.4029 494.01 91.0571 494.244C91.1934 490.79 91.3296 487.336 91.4658 483.882C89.5685 483.718 87.6805 483.554 85.7881 483.385C84.6713 483.285 84.7266 481.398 85.8572 481.503C87.7546 481.667 89.647 481.836 91.5443 482C91.5889 480.914 91.629 479.823 91.6691 478.732C91.7184 477.515 93.482 477.491 93.4327 478.707C93.3904 479.859 93.3436 481.005 93.3013 482.156C96.2126 482.412 99.1284 482.672 102.04 482.928C102.087 481.771 102.134 480.615 102.177 479.454C102.177 479.444 102.177 479.444 102.177 479.444L102.173 479.439C102.235 478.237 103.989 478.223 103.936 479.425C103.924 479.755 103.911 480.095 103.894 480.431C103.861 481.322 103.829 482.203 103.792 483.079C104.642 483.157 105.502 483.236 106.357 483.309C107.474 483.409 107.414 485.291 106.288 485.191C105.433 485.118 104.573 485.039 103.723 484.961C103.713 485.106 103.708 485.246 103.702 485.396C103.576 488.705 103.445 492.019 103.309 495.328C105.996 495.566 108.679 495.8 111.366 496.038L111.493 492.96C111.542 491.743 113.306 491.719 113.256 492.936C113.212 494.022 113.167 495.108 113.132 496.194C114.057 496.282 114.982 496.359 115.912 496.442C117.029 496.541 116.974 498.428 115.843 498.324C114.913 498.241 113.988 498.154 113.058 498.081C112.914 501.746 112.766 505.405 112.622 509.069C113.944 509.186 115.271 509.308 116.593 509.425C117.715 509.52 117.65 511.407 116.524 511.307C115.202 511.19 113.87 511.073 112.543 510.951L112.38 515.011C112.335 516.222 110.572 516.246 110.616 515.035C110.673 513.628 110.729 512.212 110.781 510.8C108.099 510.567 105.417 510.323 102.734 510.09C102.598 513.544 102.462 516.998 102.326 520.452C104.33 520.629 106.335 520.807 108.34 520.985C109.467 521.065 109.407 522.946 108.271 522.847ZM92.2398 509.142C92.0991 512.591 91.9674 516.05 91.8311 519.504C94.7469 519.765 97.6631 520.015 100.579 520.275C100.715 516.821 100.847 513.362 100.983 509.908C98.0669 509.658 95.1511 509.398 92.2398 509.142ZM110.86 508.898C111.004 505.234 111.153 501.575 111.297 497.91C108.61 497.672 105.928 497.438 103.241 497.2C103.097 500.864 102.953 504.528 102.809 508.193C105.491 508.426 108.178 508.665 110.86 508.898ZM101.484 497.044C98.5679 496.783 95.6566 496.528 92.7408 496.268C92.5969 499.932 92.4529 503.596 92.309 507.26C95.2247 507.521 98.1409 507.771 101.052 508.036C101.196 504.372 101.34 500.708 101.484 497.044ZM83.0211 495.41C82.8772 499.074 82.7332 502.738 82.5893 506.402C85.2435 506.636 87.8978 506.87 90.552 507.104C90.6959 503.44 90.835 499.781 90.979 496.117C88.3296 495.878 85.6754 495.644 83.0211 495.41ZM101.562 495.162C101.694 491.703 101.83 488.249 101.966 484.795C99.0551 484.539 96.1345 484.284 93.228 484.024C93.2222 484.184 93.2163 484.344 93.2104 484.504C93.0801 487.798 92.9497 491.092 92.8193 494.385C95.7351 494.646 98.6464 494.901 101.562 495.162ZM101.966 484.795C99.0551 484.539 96.1345 484.284 93.228 484.024C93.2222 484.184 93.2163 484.344 93.2104 484.504C93.0801 487.798 92.9497 491.092 92.8193 494.385C95.7351 494.646 98.6464 494.901 101.562 495.162C101.694 491.703 101.825 488.254 101.966 484.795ZM90.9839 496.112C88.3296 495.878 85.6754 495.644 83.026 495.405C82.8821 499.069 82.7381 502.733 82.5941 506.397C85.2484 506.631 87.9026 506.865 90.5569 507.099C90.6959 503.44 90.8399 499.776 90.9839 496.112ZM101.484 497.044C98.5679 496.783 95.6566 496.528 92.7408 496.268C92.5969 499.932 92.4529 503.596 92.309 507.26C95.2247 507.521 98.1409 507.771 101.052 508.036C101.196 504.372 101.34 500.708 101.484 497.044ZM111.297 497.91C108.61 497.672 105.928 497.438 103.241 497.2C103.097 500.864 102.953 504.528 102.809 508.193C105.496 508.431 108.178 508.665 110.86 508.908C111.009 505.239 111.153 501.575 111.297 497.91ZM100.978 509.914C98.0669 509.658 95.1511 509.398 92.2398 509.142C92.0991 512.591 91.9674 516.05 91.8311 519.504C94.7469 519.765 97.6631 520.015 100.579 520.275C100.715 516.821 100.842 513.368 100.978 509.914ZM90.9839 496.112C88.3296 495.878 85.6754 495.644 83.026 495.405C82.8821 499.069 82.7381 502.733 82.5941 506.397C85.2484 506.631 87.9026 506.865 90.5569 507.099C90.6959 503.44 90.8399 499.776 90.9839 496.112ZM101.484 497.044C98.5679 496.783 95.6566 496.528 92.7408 496.268C92.5969 499.932 92.4529 503.596 92.309 507.26C95.2247 507.521 98.1409 507.771 101.052 508.036C101.196 504.372 101.34 500.708 101.484 497.044ZM111.297 497.91C108.61 497.672 105.928 497.438 103.241 497.2C103.097 500.864 102.953 504.528 102.809 508.193C105.496 508.431 108.178 508.665 110.86 508.908C111.009 505.239 111.153 501.575 111.297 497.91ZM100.978 509.914C98.0669 509.658 95.1511 509.398 92.2398 509.142C92.0991 512.591 91.9674 516.05 91.8311 519.504C94.7469 519.765 97.6631 520.015 100.579 520.275C100.715 516.821 100.842 513.368 100.978 509.914ZM101.484 497.044C98.5679 496.783 95.6566 496.528 92.7408 496.268C92.5969 499.932 92.4529 503.596 92.309 507.26C95.2247 507.521 98.1409 507.771 101.052 508.036C101.196 504.372 101.34 500.708 101.484 497.044ZM111.297 497.91C108.61 497.672 105.928 497.438 103.241 497.2C103.097 500.864 102.953 504.528 102.809 508.193C105.496 508.431 108.178 508.665 110.86 508.908C111.009 505.239 111.153 501.575 111.297 497.91ZM100.978 509.914C98.0669 509.658 95.1511 509.398 92.2398 509.142C92.0991 512.591 91.9674 516.05 91.8311 519.504C94.7469 519.765 97.6631 520.015 100.579 520.275C100.715 516.821 100.842 513.368 100.978 509.914ZM101.484 497.044C98.5679 496.783 95.6566 496.528 92.7408 496.268C92.5969 499.932 92.4529 503.596 92.309 507.26C95.2247 507.521 98.1409 507.771 101.052 508.036C101.196 504.372 101.34 500.708 101.484 497.044ZM111.297 497.91C108.61 497.672 105.928 497.438 103.241 497.2C103.097 500.864 102.953 504.528 102.809 508.193C105.496 508.431 108.178 508.665 110.86 508.908C111.009 505.239 111.153 501.575 111.297 497.91ZM100.978 509.914C98.0669 509.658 95.1511 509.398 92.2398 509.142C92.0991 512.591 91.9674 516.05 91.8311 519.504C94.7469 519.765 97.6631 520.015 100.579 520.275C100.715 516.821 100.842 513.368 100.978 509.914ZM111.297 497.91C108.61 497.672 105.928 497.438 103.241 497.2C103.097 500.864 102.953 504.528 102.809 508.193C105.496 508.431 108.178 508.665 110.86 508.908C111.009 505.239 111.153 501.575 111.297 497.91ZM111.297 497.91C108.61 497.672 105.928 497.438 103.241 497.2C103.097 500.864 102.953 504.528 102.809 508.193C105.496 508.431 108.178 508.665 110.86 508.908C111.009 505.239 111.153 501.575 111.297 497.91ZM111.297 497.91C108.61 497.672 105.928 497.438 103.241 497.2C103.097 500.864 102.953 504.528 102.809 508.193C105.496 508.431 108.178 508.665 110.86 508.908C111.009 505.239 111.153 501.575 111.297 497.91Z" fill="#EAEAEA" fill-opacity="0.08"/>
<path d="M151.749 518.934C150.535 519.567 149.507 520.222 148.742 520.893C149.625 520.099 150.639 519.449 151.749 518.934Z" fill="#EAEAEA" fill-opacity="0.08"/>
<path d="M187.575 561.447C187.516 561.527 187.458 561.596 187.395 561.671L187.391 561.666C187.355 561.657 187.323 561.653 187.296 561.634C187.39 561.573 187.485 561.513 187.575 561.447Z" fill="#EAEAEA" fill-opacity="0.08"/>
<path d="M177.175 534.768C177.091 534.718 176.992 534.685 176.903 534.651C176.914 534.493 176.906 534.336 176.902 534.184C177 534.375 177.087 534.576 177.175 534.768Z" fill="#EAEAEA" fill-opacity="0.08"/>
<path d="M186.09 540.755C186.066 540.771 186.037 540.792 186.017 540.812C186.018 540.802 186.009 540.792 186 540.793C186.024 540.777 186.056 540.771 186.09 540.755Z" fill="#EAEAEA" fill-opacity="0.08"/>
<path d="M206.529 558.003C206.53 557.723 206.557 556.485 206.536 554.633C206.681 555.769 206.686 556.907 206.529 558.003Z" fill="#EAEAEA" fill-opacity="0.08"/>
<path d="M162.01 526.756C160.125 527.66 157.845 528.774 155.874 530.238C153.563 531.952 151.668 534.154 151.301 537.015C150.942 535.208 151.767 533.224 152.849 531.762C153.439 530.975 154.091 530.277 154.801 529.654C157.479 527.271 160.899 525.942 164.216 525.113C165.06 524.937 165.903 524.771 166.748 524.66C165.197 525.399 163.561 526.026 162.01 526.756ZM174.336 540.278C172.557 542.14 170.341 543.543 168.3 545.013C165.677 546.666 164.384 549.549 163.719 552.623C163.387 554.161 163.212 555.746 163.106 557.25C162.805 555.766 162.692 554.135 162.831 552.511C163.078 549.322 164.255 546.156 166.75 544.175C168.672 542.751 171.313 541.128 173.186 539.65C173.2 539.645 173.214 539.63 173.224 539.619C174.894 538.324 176.377 536.771 176.978 534.656C177.021 534.506 177.064 534.346 177.094 534.18C177.109 534.135 177.116 534.08 177.127 534.04C177.133 534.12 177.14 534.19 177.137 534.26C177.233 534.448 177.324 534.642 177.406 534.835C177.324 534.786 177.227 534.753 177.139 534.719C177.107 535.723 176.808 536.755 176.307 537.671C175.761 538.652 175.084 539.51 174.336 540.278ZM177.058 560.067C175.162 561.53 172.87 562.475 170.718 562.888C172.634 561.894 174.661 560.678 176.302 559.133C177.977 557.563 179.249 555.644 179.608 553.253C180.22 550.319 180.69 547.187 182.048 544.468C182.345 543.87 182.694 543.286 183.098 542.731C183.844 541.753 184.84 540.975 185.915 540.606L185.92 540.611C185.948 540.601 185.982 540.586 186.01 540.575C185.986 540.59 185.957 540.611 185.938 540.631C184.44 541.71 183.56 543.259 182.969 544.97C182.802 545.451 182.657 545.947 182.531 546.453C181.926 548.823 181.476 552.029 180.93 554.433C180.33 556.778 178.882 558.659 177.058 560.067ZM197.624 562.201C199.709 560.27 200.398 557.42 200.464 554.479C200.527 551.982 200.144 549.411 199.801 547.299C199.545 545.719 199.173 544.127 198.894 542.553C198.858 542.399 198.835 542.239 198.808 542.085C198.908 542.298 199.017 542.521 199.112 542.73C199.376 543.31 199.621 543.901 199.87 544.497C201.083 547.78 201.94 551.443 201.546 555.063C201.445 556.023 201.256 556.969 200.96 557.912C200.395 559.672 199.272 561.484 197.624 562.201ZM205.667 557.309C205.667 557.309 205.668 557.289 205.669 557.249C205.675 556.965 205.697 555.731 205.676 553.879C205.593 547.71 204.992 534.727 201.466 528.105C200.21 525.75 200.395 522.752 201.979 520.479C202.512 519.713 203.09 518.987 203.666 518.445C201.778 517.661 199.189 516.483 196.232 514.871C193.178 513.214 189.726 511.089 186.246 508.445C186.596 511.531 185.599 514.864 177.655 516.539C175.082 517.083 160.079 520.241 152.375 524.27C151.131 524.92 150.078 525.594 149.3 526.278C149.213 526.359 149.126 526.44 149.044 526.516C148.148 527.362 147.401 528.351 146.822 529.482C144.007 534.977 146.104 542.078 151.487 547.027C151.657 546.716 151.842 546.399 152.03 546.096C154.939 541.349 159.151 537.408 163.705 534.496C164.562 533.94 165.446 533.424 166.333 532.943C166.352 532.933 166.366 532.927 166.386 532.917C168.153 531.905 170.224 531.018 172.058 530.204C170.518 531.029 168.821 531.901 167.285 532.865C167.032 533.023 166.778 533.191 166.528 533.355C165.791 533.824 165.062 534.323 164.346 534.847C159.956 538.051 156.054 542.208 153.488 547.145C153.302 547.512 153.115 547.879 152.943 548.261C152.684 548.798 152.445 549.346 152.228 549.908C153.263 556 157.687 562.101 164.44 565.769C172.005 569.88 180.368 569.787 185.939 566.153C186.035 566.091 186.131 566.02 186.227 565.959C186.231 565.964 186.237 565.949 186.237 565.949C188.23 563.481 189.746 560.51 190.828 557.519C191.154 556.402 191.732 554.677 191.932 553.546C191.987 553.325 192.032 553.105 192.078 552.885C192.083 552.879 192.083 552.879 192.078 552.875C192.269 552.003 192.419 551.098 192.546 550.187C192.683 549.247 192.797 548.302 192.905 547.402L193.127 543.25L193.199 547.403C193.159 548.377 193.107 549.411 193.027 550.445C192.954 551.54 192.835 552.635 192.666 553.665C192.448 555.171 192.131 556.663 191.717 558.132C191.646 558.417 191.561 558.698 191.471 558.984C190.627 561.726 189.427 564.368 187.816 566.746C194.828 568.579 201.73 566.384 204.55 560.884C205.125 559.738 205.496 558.545 205.667 557.309Z" fill="#EAEAEA" fill-opacity="0.08"/>
<path d="M205.336 518.477C202.119 517.273 193.176 513.566 184.411 506.532C184.117 505.265 183.926 504.183 184.408 503.48C187.902 498.365 198.129 502.109 206.54 510.092C210.954 514.274 207.915 518.006 205.336 518.477Z" fill="#EAEAEA" fill-opacity="0.08"/>
<path d="M176.885 534.19C176.872 534.165 176.86 534.13 176.842 534.11C176.858 534.065 176.865 534.009 176.876 533.969C176.882 534.039 176.884 534.114 176.885 534.19Z" fill="#EAEAEA" fill-opacity="0.08"/>
<path d="M177.175 534.768C177.091 534.718 176.992 534.685 176.903 534.651C176.914 534.493 176.906 534.336 176.902 534.184C177 534.375 177.087 534.576 177.175 534.768Z" fill="#EAEAEA" fill-opacity="0.08"/>
<path d="M186.09 540.755C186.066 540.771 186.037 540.792 186.017 540.812C186.018 540.802 186.009 540.792 186 540.793C186.024 540.777 186.056 540.771 186.09 540.755Z" fill="#EAEAEA" fill-opacity="0.08"/>
<path d="M199.388 543.386C199.314 543.316 199.244 543.261 199.165 543.206C199.128 543.05 199.105 542.887 199.078 542.73C199.18 542.947 199.291 543.174 199.388 543.386Z" fill="#EAEAEA" fill-opacity="0.08"/>
<path d="M186.09 540.755C186.066 540.771 186.037 540.792 186.017 540.812C186.018 540.802 186.009 540.792 186 540.793C186.024 540.777 186.056 540.771 186.09 540.755Z" fill="#EAEAEA" fill-opacity="0.08"/>
<path d="M176.885 534.19C176.872 534.165 176.86 534.13 176.842 534.11C176.858 534.065 176.865 534.009 176.876 533.969C176.882 534.039 176.884 534.114 176.885 534.19Z" fill="#EAEAEA" fill-opacity="0.08"/>
<path d="M199.388 543.386C199.314 543.316 199.244 543.261 199.165 543.206C199.128 543.05 199.105 542.887 199.078 542.73C199.18 542.947 199.291 543.174 199.388 543.386Z" fill="#EAEAEA" fill-opacity="0.08"/>
<path d="M144.854 638.705L144.835 638.725C144.057 639.525 142.977 639.628 142.172 639.172C142.491 639.009 142.789 638.784 143.053 638.513L187.114 592.408C187.747 591.738 188.098 590.882 188.111 589.988C188.121 589.519 188.03 589.061 187.862 588.648L188.014 588.684C189.043 588.955 189.624 589.907 189.607 590.907C189.596 591.514 189.372 592.13 188.896 592.629L144.854 638.705Z" fill="#EAEAEA" fill-opacity="0.08"/>
<path d="M140.059 637.404C139.88 637.591 139.671 637.723 139.449 637.79C139.106 637.899 138.726 637.855 138.416 637.68C138.192 637.549 137.894 637.294 137.783 636.788L123.537 573.171C123.509 573.047 123.495 572.908 123.5 572.768C123.514 572.39 123.672 572.025 123.943 571.743C124.31 571.36 124.795 571.22 125.274 571.343L184.687 587.129C184.904 587.191 185.077 587.288 185.235 587.43C185.262 587.46 185.289 587.479 185.316 587.509C185.549 587.764 185.68 588.125 185.68 588.508C185.67 588.787 185.599 589.195 185.245 589.573L140.064 637.399L140.059 637.404Z" fill="#EAEAEA" fill-opacity="0.08"/>
<path d="M233.538 598.814L230.648 594.502C230.418 594.155 230.591 593.639 230.993 593.519L235.819 592.022C235.656 591.874 235.479 591.722 235.322 591.559C232.77 589.123 231.303 584.782 231.363 581.098C231.428 576.746 233.203 573.708 235.649 570.326C232.603 574.534 235.996 569.533 236.602 568.422C237.113 567.487 237.587 566.542 238.029 565.573C237.825 566.17 237.602 566.767 237.37 567.354C237.863 566.139 238.356 564.925 238.84 563.711C238.584 564.333 238.309 564.956 238.029 565.573C238.816 563.352 239.417 561.093 239.866 558.782C239.795 559.566 239.706 560.341 239.594 561.121C239.783 559.781 239.972 558.441 240.166 557.106C240.08 557.666 239.98 558.221 239.871 558.777C240.083 556.423 240.117 554.082 239.983 551.744C239.613 549.468 239.072 547.255 238.357 545.089C238.642 545.724 238.913 546.374 239.17 547.029C238.717 545.847 238.26 544.671 237.808 543.489C238.004 544.016 238.19 544.552 238.362 545.084C237.823 543.858 237.226 542.674 236.567 541.515C236.15 540.777 235.685 540.07 235.23 539.362C235.436 539.609 235.628 539.861 235.824 540.118C235.064 539.045 234.623 538.447 234.53 538.314C234.574 538.383 234.725 538.6 234.983 538.966C235.067 539.1 235.15 539.233 235.235 539.357C235.123 539.224 235.016 539.086 234.904 538.952C229.858 532.772 229.659 524.287 235.231 517.719C235.436 517.477 235.655 517.239 235.879 517.017L230.643 515.77C230.245 515.676 230.081 515.174 230.333 514.806L233.354 510.279C233.64 509.856 234.231 509.923 234.382 510.39L236.392 516.531C241.654 511.794 250.756 511.591 255.134 516.967C263.32 526.987 268.07 539.219 268.246 552.935C268.328 559.256 267.343 565.987 265.267 572.038C262.83 579.117 259.574 584.83 255.243 590.807C252.969 593.951 248.682 595.282 245.222 595.578C242.067 595.845 239.089 594.602 236.654 592.689L234.587 598.615C234.401 599.107 233.808 599.215 233.538 598.814Z" fill="#EAEAEA" fill-opacity="0.08"/>
</svg>
