<svg width="442" height="827" viewBox="0 0 442 827" fill="none" xmlns="http://www.w3.org/2000/svg">
<path d="M434.051 258.706C433.341 255.958 432.635 253.204 431.926 250.456C428.79 251.997 425.648 253.55 422.509 255.096C423.216 257.85 423.931 260.6 424.637 263.354C427.77 261.805 430.906 260.25 434.051 258.706ZM445.739 252.939C445.033 250.185 444.324 247.437 443.617 244.683C440.288 246.325 436.958 247.966 433.628 249.607C434.335 252.361 435.05 255.111 435.75 257.863C439.08 256.221 442.416 254.582 445.739 252.939ZM443.191 243.024C442.545 240.519 441.906 238.015 441.26 235.51C437.93 237.151 434.6 238.792 431.271 240.434C431.917 242.939 432.562 245.445 433.208 247.95C436.532 246.307 439.861 244.666 443.191 243.024ZM432.876 224.236C417.972 233.233 408.983 252.72 412.835 267.679C414.595 274.533 418.782 279.451 424.664 281.653C429.683 281.85 435.235 280.376 440.736 277.05C451.461 270.578 459.173 258.814 461.415 247.086C460.606 247.487 459.806 247.884 459.009 248.274C459.213 249.078 459.42 249.891 459.629 250.697C459.906 251.754 458.194 252.608 457.921 251.545C457.711 250.738 457.504 249.926 457.3 249.121C457.167 249.182 457.04 249.245 456.903 249.313C453.898 250.798 450.886 252.282 447.878 253.759C448.53 256.296 449.185 258.827 449.837 261.364C450.77 260.906 451.704 260.448 452.637 259.991C453.743 259.447 454.333 261.025 453.227 261.568C452.239 262.053 451.251 262.538 450.267 263.031C450.486 263.907 450.715 264.779 450.941 265.657C451.212 266.712 449.503 267.574 449.232 266.504C449.007 265.626 448.787 264.75 448.552 263.877C445.222 265.518 441.895 267.153 438.566 268.794C438.887 270.043 439.205 271.298 439.527 272.546C439.803 273.603 438.092 274.457 437.818 273.394C437.497 272.145 437.172 270.888 436.854 269.633C435.627 270.242 434.397 270.842 433.164 271.448C432.064 271.994 431.474 270.416 432.574 269.87C433.852 269.241 435.14 268.608 436.421 267.972C435.766 265.441 435.12 262.906 434.459 260.374C431.32 261.92 428.181 263.467 425.042 265.014C425.529 266.906 426.016 268.799 426.503 270.692C426.773 271.747 425.064 272.609 424.794 271.539C424.307 269.647 423.814 267.752 423.33 265.852C421.943 266.536 420.546 267.223 419.158 267.906C418.059 268.452 417.469 266.874 418.569 266.329C420.014 265.612 421.456 264.902 422.904 264.193C422.198 261.439 421.482 258.69 420.776 255.936C419.479 256.574 418.189 257.214 416.892 257.852C415.792 258.397 415.202 256.819 416.302 256.274C417.653 255.609 418.998 254.942 420.347 254.283C420.165 253.582 419.984 252.881 419.803 252.18C419.532 251.125 421.238 250.269 421.512 251.333C421.693 252.034 421.874 252.735 422.052 253.442C425.194 251.889 428.327 250.341 431.472 248.796C430.826 246.291 430.18 243.785 429.535 241.28C428.611 241.733 427.674 242.197 426.75 242.65C425.651 243.196 425.061 241.618 426.16 241.072C427.148 240.588 428.121 240.105 429.108 239.621C428.882 238.743 428.657 237.865 428.434 236.98C428.157 235.923 429.869 235.07 430.142 236.133C430.368 237.011 430.594 237.889 430.823 238.775C434.15 237.14 437.48 235.499 440.809 233.858C440.491 232.603 440.157 231.35 439.839 230.095C439.562 229.039 441.274 228.185 441.548 229.248C441.872 230.505 442.191 231.76 442.521 233.019C443.757 232.406 444.987 231.806 446.224 231.193C447.329 230.649 447.919 232.227 446.81 232.777C445.523 233.411 444.235 234.044 442.947 234.678C443.587 237.181 444.233 239.687 444.879 242.192C448.017 240.646 451.156 239.099 454.295 237.552C453.831 235.763 453.37 233.982 452.911 232.194C452.635 231.137 454.35 230.277 454.62 231.347C455.085 233.136 455.543 234.924 456.007 236.714C456.995 236.229 457.985 235.737 458.976 235.246C460.082 234.703 460.672 236.281 459.566 236.824C458.521 237.342 457.479 237.854 456.433 238.373C457.143 241.12 457.849 243.874 458.558 246.622C459.61 246.105 460.661 245.589 461.715 245.066C461.724 245.062 461.724 245.062 461.724 245.062L461.727 245.055C462.306 240.823 462.159 236.628 461.157 232.737C459.735 227.218 456.802 223.047 452.91 220.404C446.779 218.774 439.699 220.111 432.876 224.236ZM419.953 280.94C415.816 278.16 412.86 273.796 411.431 268.231C409.424 260.456 410.761 251.495 414.537 243.31C418.312 235.124 424.525 227.72 432.278 223.04C437.821 219.684 443.54 218.077 448.858 218.31C442.444 215.954 434.425 216.91 426.488 221.702C411.269 230.896 402.117 250.737 406.043 266.023C408.098 273.984 413.293 279.133 419.953 280.94ZM456.871 247.454C456.161 244.706 455.449 241.95 454.746 239.205C454.6 239.277 454.455 239.349 454.309 239.421C451.316 240.895 448.323 242.37 445.329 243.844C446.036 246.598 446.745 249.346 447.451 252.1C450.593 250.547 453.732 249 456.871 247.454ZM448.125 262.203C447.473 259.666 446.818 257.135 446.166 254.598C442.836 256.239 439.506 257.881 436.177 259.522C436.829 262.059 437.484 264.59 438.13 267.125C441.466 265.485 444.796 263.844 448.125 262.203Z" fill="#EAEAEA" fill-opacity="0.08"/>
<path d="M448.377 262.459C447.725 259.922 447.069 257.391 446.417 254.855C443.088 256.496 439.759 258.137 436.43 259.778C437.082 262.315 437.737 264.845 438.383 267.38C441.718 265.741 445.048 264.1 448.377 262.459ZM448.377 262.459C447.725 259.922 447.069 257.391 446.417 254.855C443.088 256.496 439.759 258.137 436.43 259.778C437.082 262.315 437.737 264.845 438.383 267.38C441.718 265.741 445.048 264.1 448.377 262.459ZM448.377 262.459C447.725 259.922 447.069 257.391 446.417 254.855C443.088 256.496 439.759 258.137 436.43 259.778C437.082 262.315 437.737 264.845 438.383 267.38C441.718 265.741 445.048 264.1 448.377 262.459ZM434.304 258.962C433.595 256.214 432.889 253.46 432.18 250.713C429.044 252.253 425.903 253.806 422.765 255.353C423.471 258.106 424.186 260.856 424.893 263.61C428.025 262.061 431.16 260.506 434.304 258.962ZM448.377 262.459C447.725 259.922 447.069 257.391 446.417 254.855C443.088 256.496 439.759 258.137 436.43 259.778C437.082 262.315 437.737 264.845 438.383 267.38C441.718 265.741 445.048 264.1 448.377 262.459ZM445.991 253.195C445.285 250.442 444.576 247.694 443.869 244.94C440.54 246.582 437.211 248.223 433.882 249.864C434.588 252.618 435.304 255.367 436.004 258.119C439.333 256.478 442.668 254.839 445.991 253.195ZM434.304 258.962C433.595 256.214 432.889 253.46 432.18 250.713C429.044 252.253 425.903 253.806 422.765 255.353C423.471 258.106 424.186 260.856 424.893 263.61C428.025 262.061 431.16 260.506 434.304 258.962ZM448.377 262.459C447.725 259.922 447.069 257.391 446.417 254.855C443.088 256.496 439.759 258.137 436.43 259.778C437.082 262.315 437.737 264.845 438.383 267.38C441.718 265.741 445.048 264.1 448.377 262.459ZM445.991 253.195C445.285 250.442 444.576 247.694 443.869 244.94C440.54 246.582 437.211 248.223 433.882 249.864C434.588 252.618 435.304 255.367 436.004 258.119C439.333 256.478 442.668 254.839 445.991 253.195ZM434.304 258.962C433.595 256.214 432.889 253.46 432.18 250.713C429.044 252.253 425.903 253.806 422.765 255.353C423.471 258.106 424.186 260.856 424.893 263.61C428.025 262.061 431.16 260.506 434.304 258.962ZM448.377 262.459C447.725 259.922 447.069 257.391 446.417 254.855C443.088 256.496 439.759 258.137 436.43 259.778C437.082 262.315 437.737 264.845 438.383 267.38C441.718 265.741 445.048 264.1 448.377 262.459ZM445.991 253.195C445.285 250.442 444.576 247.694 443.869 244.94C440.54 246.582 437.211 248.223 433.882 249.864C434.588 252.618 435.304 255.367 436.004 258.119C439.333 256.478 442.668 254.839 445.991 253.195ZM443.443 243.281C442.797 240.776 442.158 238.273 441.512 235.767C438.183 237.408 434.854 239.05 431.525 240.691C432.17 243.196 432.816 245.701 433.462 248.207C436.785 246.564 440.114 244.922 443.443 243.281ZM434.304 258.962C433.595 256.214 432.889 253.46 432.18 250.713C429.044 252.253 425.903 253.806 422.765 255.353C423.471 258.106 424.186 260.856 424.893 263.61C428.025 262.061 431.16 260.506 434.304 258.962ZM438.392 267.376C441.721 265.735 445.048 264.1 448.377 262.459C447.725 259.922 447.069 257.391 446.417 254.855C443.088 256.496 439.759 258.137 436.43 259.778C437.085 262.309 437.746 264.841 438.392 267.376ZM445.991 253.195C445.285 250.442 444.576 247.694 443.869 244.94C440.54 246.582 437.211 248.223 433.882 249.864C434.588 252.618 435.304 255.367 436.004 258.119C439.333 256.478 442.668 254.839 445.991 253.195ZM441.512 235.767C438.183 237.408 434.854 239.05 431.525 240.691C432.17 243.196 432.816 245.701 433.462 248.207C436.791 246.566 440.114 244.922 443.443 243.281C442.797 240.776 442.152 238.271 441.512 235.767ZM447.703 252.357C450.844 250.804 453.982 249.257 457.12 247.711C456.411 244.963 455.699 242.207 454.996 239.462C454.85 239.534 454.705 239.606 454.559 239.678C451.567 241.153 448.574 242.627 445.581 244.101C446.287 246.855 446.996 249.603 447.703 252.357ZM446.772 278.641C454.218 274.137 460.192 267.021 463.818 259.158C467.448 251.289 468.727 242.681 466.808 235.2C464.951 228.013 460.437 222.939 454.086 220.92C453.787 220.825 453.481 220.743 453.182 220.662C447.036 219.034 439.949 220.375 433.129 224.494C418.228 233.491 409.241 252.976 413.093 267.935C414.852 274.788 419.039 279.706 424.919 281.908C425.213 282.016 425.513 282.126 425.812 282.221C432.163 284.24 439.605 282.967 446.772 278.641ZM425.067 271.786C424.581 269.893 424.088 267.998 423.604 266.099C422.217 266.782 420.82 267.47 419.433 268.153C418.333 268.698 417.744 267.121 418.843 266.575C420.288 265.859 421.73 265.148 423.178 264.44C422.472 261.686 421.756 258.937 421.05 256.183C419.754 256.821 418.463 257.461 417.167 258.099C416.067 258.644 415.477 257.067 416.577 256.521C417.928 255.856 419.273 255.189 420.621 254.531C420.44 253.829 420.258 253.128 420.077 252.427C419.807 251.373 421.512 250.517 421.785 251.58C421.967 252.281 422.148 252.982 422.326 253.69C425.467 252.137 428.6 250.588 431.744 249.044C431.098 246.538 430.453 244.033 429.807 241.528C428.883 241.981 427.947 242.445 427.023 242.898C425.924 243.444 425.334 241.866 426.433 241.321C427.421 240.836 428.393 240.353 429.381 239.869C429.155 238.991 428.929 238.113 428.706 237.228C428.43 236.172 430.141 235.318 430.415 236.381C430.64 237.259 430.866 238.137 431.095 239.023C434.421 237.389 437.751 235.747 441.08 234.106C440.761 232.851 440.428 231.599 440.11 230.344C439.833 229.287 441.544 228.434 441.818 229.497C442.142 230.754 442.461 232.009 442.791 233.267C444.027 232.654 445.257 232.054 446.493 231.441C447.599 230.898 448.188 232.476 447.08 233.026C445.792 233.659 444.505 234.293 443.217 234.926C443.857 237.43 444.503 239.935 445.148 242.44C448.287 240.894 451.425 239.347 454.563 237.801C454.099 236.012 453.638 234.23 453.18 232.443C452.903 231.386 454.618 230.526 454.888 231.596C455.352 233.385 455.811 235.173 456.275 236.962C457.262 236.477 458.253 235.986 459.243 235.495C460.349 234.951 460.939 236.529 459.833 237.073C458.788 237.591 457.746 238.103 456.701 238.621C457.41 241.368 458.117 244.122 458.826 246.87C459.877 246.353 460.928 245.837 461.982 245.314C461.991 245.31 461.991 245.31 461.991 245.31L461.994 245.303C463.091 244.779 463.669 246.353 462.575 246.886C462.275 247.034 461.966 247.188 461.66 247.334C460.852 247.736 460.052 248.132 459.255 248.522C459.459 249.327 459.666 250.139 459.876 250.946C460.152 252.002 458.441 252.856 458.167 251.793C457.957 250.987 457.75 250.174 457.547 249.37C457.413 249.431 457.286 249.494 457.15 249.562C454.145 251.047 451.134 252.53 448.126 254.007C448.778 256.544 449.433 259.075 450.085 261.612C451.018 261.154 451.951 260.696 452.884 260.238C453.99 259.695 454.58 261.273 453.474 261.816C452.486 262.301 451.499 262.786 450.515 263.279C450.734 264.155 450.963 265.027 451.189 265.904C451.459 266.959 449.751 267.821 449.48 266.752C449.255 265.874 449.035 264.998 448.8 264.124C445.471 265.766 442.145 267.4 438.816 269.041C439.137 270.29 439.455 271.545 439.776 272.793C440.053 273.85 438.342 274.704 438.068 273.641C437.747 272.392 437.422 271.135 437.104 269.88C435.877 270.489 434.647 271.089 433.414 271.695C432.315 272.241 431.725 270.663 432.825 270.117C434.103 269.488 435.39 268.855 436.672 268.219C436.017 265.689 435.371 263.154 434.709 260.621C431.571 262.168 428.433 263.714 425.294 265.261C425.781 267.154 426.268 269.046 426.755 270.939C427.043 272 425.338 272.855 425.067 271.786ZM432.173 250.711C429.038 252.251 425.897 253.804 422.759 255.351C423.465 258.104 424.18 260.854 424.887 263.608C428.025 262.061 431.166 260.508 434.304 258.962C433.589 256.212 432.889 253.46 432.173 250.711ZM438.392 267.376C441.721 265.735 445.048 264.1 448.377 262.459C447.725 259.922 447.069 257.391 446.417 254.855C443.088 256.496 439.759 258.137 436.43 259.778C437.085 262.309 437.746 264.841 438.392 267.376ZM445.991 253.195C445.285 250.442 444.576 247.694 443.869 244.94C440.54 246.582 437.211 248.223 433.882 249.864C434.588 252.618 435.304 255.367 436.004 258.119C439.333 256.478 442.668 254.839 445.991 253.195ZM441.512 235.767C438.183 237.408 434.854 239.05 431.525 240.691C432.17 243.196 432.816 245.701 433.462 248.207C436.791 246.566 440.114 244.922 443.443 243.281C442.797 240.776 442.152 238.271 441.512 235.767ZM447.703 252.357C450.844 250.804 453.982 249.257 457.12 247.711C456.411 244.963 455.699 242.207 454.996 239.462C454.85 239.534 454.705 239.606 454.559 239.678C451.567 241.153 448.574 242.627 445.581 244.101C446.287 246.855 446.996 249.603 447.703 252.357ZM457.12 247.711C456.411 244.963 455.699 242.207 454.996 239.462C454.85 239.534 454.705 239.606 454.559 239.678C451.567 241.153 448.574 242.627 445.581 244.101C446.287 246.855 446.996 249.603 447.703 252.357C450.844 250.804 453.982 249.257 457.12 247.711ZM443.443 243.281C442.797 240.776 442.158 238.273 441.512 235.767C438.183 237.408 434.854 239.05 431.525 240.691C432.17 243.196 432.816 245.701 433.462 248.207C436.785 246.564 440.114 244.922 443.443 243.281ZM445.991 253.195C445.285 250.442 444.576 247.694 443.869 244.94C440.54 246.582 437.211 248.223 433.882 249.864C434.588 252.618 435.304 255.367 436.004 258.119C439.333 256.478 442.668 254.839 445.991 253.195ZM448.377 262.459C447.725 259.922 447.069 257.391 446.417 254.855C443.088 256.496 439.759 258.137 436.43 259.778C437.082 262.315 437.737 264.845 438.383 267.38C441.718 265.741 445.048 264.1 448.377 262.459ZM434.304 258.962C433.595 256.214 432.889 253.46 432.18 250.713C429.044 252.253 425.903 253.806 422.765 255.353C423.471 258.106 424.186 260.856 424.893 263.61C428.025 262.061 431.16 260.506 434.304 258.962ZM443.443 243.281C442.797 240.776 442.158 238.273 441.512 235.767C438.183 237.408 434.854 239.05 431.525 240.691C432.17 243.196 432.816 245.701 433.462 248.207C436.785 246.564 440.114 244.922 443.443 243.281ZM445.991 253.195C445.285 250.442 444.576 247.694 443.869 244.94C440.54 246.582 437.211 248.223 433.882 249.864C434.588 252.618 435.304 255.367 436.004 258.119C439.333 256.478 442.668 254.839 445.991 253.195ZM448.377 262.459C447.725 259.922 447.069 257.391 446.417 254.855C443.088 256.496 439.759 258.137 436.43 259.778C437.082 262.315 437.737 264.845 438.383 267.38C441.718 265.741 445.048 264.1 448.377 262.459ZM434.304 258.962C433.595 256.214 432.889 253.46 432.18 250.713C429.044 252.253 425.903 253.806 422.765 255.353C423.471 258.106 424.186 260.856 424.893 263.61C428.025 262.061 431.16 260.506 434.304 258.962ZM445.991 253.195C445.285 250.442 444.576 247.694 443.869 244.94C440.54 246.582 437.211 248.223 433.882 249.864C434.588 252.618 435.304 255.367 436.004 258.119C439.333 256.478 442.668 254.839 445.991 253.195ZM448.377 262.459C447.725 259.922 447.069 257.391 446.417 254.855C443.088 256.496 439.759 258.137 436.43 259.778C437.082 262.315 437.737 264.845 438.383 267.38C441.718 265.741 445.048 264.1 448.377 262.459ZM434.304 258.962C433.595 256.214 432.889 253.46 432.18 250.713C429.044 252.253 425.903 253.806 422.765 255.353C423.471 258.106 424.186 260.856 424.893 263.61C428.025 262.061 431.16 260.506 434.304 258.962ZM445.991 253.195C445.285 250.442 444.576 247.694 443.869 244.94C440.54 246.582 437.211 248.223 433.882 249.864C434.588 252.618 435.304 255.367 436.004 258.119C439.333 256.478 442.668 254.839 445.991 253.195ZM448.377 262.459C447.725 259.922 447.069 257.391 446.417 254.855C443.088 256.496 439.759 258.137 436.43 259.778C437.082 262.315 437.737 264.845 438.383 267.38C441.718 265.741 445.048 264.1 448.377 262.459ZM434.304 258.962C433.595 256.214 432.889 253.46 432.18 250.713C429.044 252.253 425.903 253.806 422.765 255.353C423.471 258.106 424.186 260.856 424.893 263.61C428.025 262.061 431.16 260.506 434.304 258.962ZM448.377 262.459C447.725 259.922 447.069 257.391 446.417 254.855C443.088 256.496 439.759 258.137 436.43 259.778C437.082 262.315 437.737 264.845 438.383 267.38C441.718 265.741 445.048 264.1 448.377 262.459ZM448.377 262.459C447.725 259.922 447.069 257.391 446.417 254.855C443.088 256.496 439.759 258.137 436.43 259.778C437.082 262.315 437.737 264.845 438.383 267.38C441.718 265.741 445.048 264.1 448.377 262.459ZM448.377 262.459C447.725 259.922 447.069 257.391 446.417 254.855C443.088 256.496 439.759 258.137 436.43 259.778C437.082 262.315 437.737 264.845 438.383 267.38C441.718 265.741 445.048 264.1 448.377 262.459Z" fill="#EAEAEA" fill-opacity="0.08"/>
<path d="M424.888 358.826C424.793 358.81 424.707 358.791 424.616 358.769L424.619 358.762C424.615 358.723 424.608 358.691 424.617 358.656C424.7 358.713 424.789 358.772 424.888 358.826Z" fill="#EAEAEA" fill-opacity="0.08"/>
<path d="M440.189 372.969C440.448 372.836 441.567 372.258 443.23 371.34C442.256 372.031 441.234 372.582 440.189 372.969Z" fill="#EAEAEA" fill-opacity="0.08"/>
<path d="M451.368 318.523C449.945 317.249 448.198 315.733 446.24 314.66C443.946 313.4 441.352 312.755 438.649 313.809C440.162 312.608 442.217 312.393 443.886 312.662C444.786 312.815 445.626 313.066 446.419 313.406C449.434 314.673 451.741 317.123 453.564 319.722C453.996 320.4 454.419 321.082 454.793 321.793C453.63 320.75 452.535 319.574 451.368 318.523ZM443.181 336.235C440.926 335.528 438.944 334.203 436.957 333.069C434.616 331.498 431.598 331.726 428.612 332.616C427.119 333.061 425.633 333.672 424.243 334.305C425.483 333.313 426.916 332.419 428.426 331.757C431.38 330.435 434.615 329.965 437.209 331.261C439.116 332.31 441.435 333.911 443.375 334.889C443.384 334.899 443.402 334.905 443.414 334.909C445.124 335.792 447.004 336.38 449.105 335.898C449.255 335.864 449.413 335.826 449.571 335.772C449.617 335.765 449.669 335.744 449.709 335.734C449.639 335.779 449.572 335.817 449.514 335.85C449.375 336.029 449.231 336.205 449.083 336.373C449.1 336.275 449.099 336.17 449.101 336.075C448.186 336.533 447.158 336.762 446.17 336.753C445.103 336.733 444.12 336.532 443.181 336.235ZM426.221 348.293C424.287 347.287 422.693 345.671 421.622 343.924C423.14 345.175 424.892 346.42 426.817 347.156C428.769 347.908 430.918 348.13 433.19 347.295C436.033 346.426 439.008 345.332 441.899 345.242C442.534 345.221 443.174 345.253 443.804 345.349C444.928 345.55 445.952 346.075 446.633 346.868L446.63 346.875C446.649 346.895 446.673 346.918 446.692 346.939C446.67 346.925 446.643 346.908 446.618 346.901C445.16 346.068 443.478 346.024 441.745 346.319C441.257 346.401 440.763 346.511 440.266 346.642C437.934 347.243 434.898 348.392 432.554 349.063C430.256 349.653 428.081 349.26 426.221 348.293ZM430.965 367.934C433.381 368.885 436.173 368.126 438.845 366.759C441.117 365.605 443.31 364.012 445.102 362.677C446.443 361.68 447.758 360.571 449.086 359.555C449.213 359.447 449.35 359.35 449.48 359.25C449.32 359.444 449.154 359.651 448.997 359.838C448.56 360.358 448.107 360.866 447.65 361.381C445.084 364.07 442.06 366.622 438.669 368.021C437.772 368.396 436.858 368.684 435.912 368.873C434.149 369.217 432.148 369.072 430.965 367.934ZM437.981 372.839C437.981 372.839 437.999 372.83 438.036 372.812C438.294 372.679 439.413 372.101 441.076 371.184C446.61 368.117 458.117 361.277 462.943 354.875C464.658 352.597 467.42 351.31 469.982 351.641C470.845 351.752 471.688 351.922 472.366 352.174C472.46 350.086 472.683 347.172 473.178 343.715C473.681 340.149 474.477 335.995 475.732 331.564C473.064 333.377 469.736 334.092 465.651 327.716C464.327 325.652 456.616 313.61 450.488 308.594C449.498 307.783 448.55 307.157 447.681 306.785C447.58 306.746 447.478 306.706 447.383 306.669C446.33 306.268 445.197 306.072 443.99 306.096C438.124 306.215 432.404 311.555 429.687 318.826C430.024 318.829 430.369 318.842 430.703 318.867C435.925 319.196 440.842 321.096 444.943 323.803C445.722 324.309 446.474 324.859 447.196 325.428C447.211 325.44 447.22 325.451 447.242 325.465C448.727 326.573 450.198 328.017 451.526 329.282C450.283 328.288 448.948 327.176 447.58 326.254C447.356 326.101 447.122 325.953 446.894 325.806C446.232 325.367 445.546 324.95 444.841 324.556C440.53 322.137 435.518 320.623 430.236 320.696C429.845 320.706 429.454 320.715 429.054 320.744C428.485 320.771 427.914 320.819 427.34 320.889C422.185 324.78 418.12 331.742 417.003 339.631C415.749 348.469 418.544 355.991 423.627 359.268C423.713 359.325 423.808 359.378 423.894 359.434C423.891 359.441 423.907 359.438 423.907 359.438C426.778 360.045 429.947 359.976 432.993 359.504C434.106 359.257 435.848 358.943 436.933 358.576C437.149 358.519 437.363 358.453 437.576 358.387C437.582 358.389 437.582 358.389 437.585 358.383C438.432 358.133 439.297 357.829 440.159 357.503C441.051 357.171 441.94 356.816 442.786 356.477L446.6 354.664L442.881 356.744C441.99 357.179 441.041 357.634 440.082 358.063C439.072 358.528 438.047 358.951 437.063 359.299C435.635 359.831 434.187 360.268 432.73 360.606C432.449 360.68 432.169 360.739 431.882 360.796C429.137 361.363 426.366 361.558 423.7 361.254C424.321 368.487 428.538 373.667 434.409 373.551C435.616 373.526 436.812 373.283 437.981 372.839Z" fill="#EAEAEA" fill-opacity="0.08"/>
<path d="M340.912 351.98L340.886 351.972C339.838 351.618 339.359 350.591 339.519 349.542C339.788 349.774 340.11 349.954 340.466 350.074L400.576 369.704C401.446 369.982 402.399 369.878 403.269 369.416C403.727 369.176 404.144 368.844 404.479 368.453L404.498 368.625C404.596 369.8 403.879 370.889 402.905 371.403C402.313 371.715 401.638 371.819 400.987 371.607L340.912 351.98Z" fill="#EAEAEA" fill-opacity="0.08"/>
<path d="M340.101 349.324C339.872 349.251 339.683 349.125 339.549 348.956C339.337 348.696 339.253 348.328 339.311 347.96C339.358 347.692 339.492 347.296 339.916 346.947L393.205 302.894C393.309 302.808 393.431 302.727 393.56 302.664C393.909 302.492 394.293 302.457 394.639 302.567C395.108 302.715 395.395 303.088 395.44 303.585L400.528 365.46C400.542 365.688 400.511 365.893 400.433 366.107C400.415 366.145 400.406 366.18 400.388 366.219C400.231 366.555 399.945 366.851 399.597 367.038C399.339 367.165 398.944 367.3 398.484 367.162L340.107 349.326L340.101 349.324Z" fill="#EAEAEA" fill-opacity="0.08"/>
<path d="M427.874 412.897C427.909 413.048 428.06 413.739 428.316 414.974C428.237 414.676 428.17 414.381 428.082 414.086C428.059 413.939 428.036 413.791 428.013 413.643C427.932 413.226 427.887 412.975 427.874 412.897Z" fill="#EAEAEA" fill-opacity="0.08"/>
<path d="M429.239 418.856C429.182 420.081 429.115 421.311 429.049 422.541C429.081 421.86 429.099 421.181 429.098 420.496C429.159 419.949 429.205 419.404 429.239 418.856Z" fill="#EAEAEA" fill-opacity="0.08"/>
<path d="M415.609 417.347L418.563 412.638C418.801 412.261 419.323 412.168 419.562 412.473L422.482 416.11C422.563 415.891 422.643 415.657 422.738 415.435C424.108 411.943 427.55 408.507 430.894 406.773C434.843 404.721 438.161 404.853 442.006 405.427C437.22 404.711 442.835 405.356 444.034 405.366C445.044 405.374 446.05 405.345 447.068 405.275C446.463 405.38 445.852 405.468 445.247 405.543C446.503 405.4 447.759 405.257 449.012 405.106C448.367 405.175 447.716 405.228 447.068 405.275C449.328 404.909 451.561 404.358 453.793 403.642C453.062 403.959 452.334 404.254 451.594 404.531C452.865 404.052 454.135 403.573 455.397 403.099C454.863 403.293 454.33 403.472 453.793 403.642C455.986 402.693 458.11 401.587 460.176 400.331C462.11 398.891 463.932 397.328 465.655 395.629C465.174 396.195 464.675 396.756 464.167 397.306C465.087 396.323 466 395.338 466.914 394.353C466.502 394.786 466.079 395.215 465.655 395.629C466.585 394.546 467.461 393.43 468.293 392.271C468.823 391.536 469.311 390.772 469.801 390.016C469.646 390.322 469.48 390.618 469.312 390.92C470.034 389.712 470.43 389.022 470.52 388.873C470.472 388.947 470.325 389.189 470.078 389.6C469.985 389.741 469.892 389.881 469.808 390.018C469.891 389.852 469.981 389.688 470.065 389.522C474.005 381.954 481.598 377.655 489.333 379.513C489.619 379.582 489.904 379.665 490.177 379.759L489.603 374.413C489.559 374.006 489.959 373.614 490.373 373.664L495.438 374.202C495.913 374.256 496.045 374.824 495.672 375.188L490.789 379.989C496.771 382.455 499.908 390.599 496.479 397.172C490.093 409.447 480.596 419.684 468.275 426.5C462.597 429.642 456.203 432.017 450.068 433.074C442.889 434.303 436.677 434.128 429.877 433.107C426.301 432.574 423.709 429.337 422.319 426.348C421.054 423.621 421.209 420.322 422.145 417.188L416.126 418.193C415.625 418.271 415.332 417.778 415.609 417.347Z" fill="#EAEAEA" fill-opacity="0.08"/>
<path d="M480.051 50.4374C479.341 47.6898 478.635 44.9358 477.926 42.1883C474.79 43.7284 471.648 45.2815 468.509 46.8281C469.216 49.5821 469.931 52.3316 470.637 55.0856C473.77 53.5371 476.912 51.984 480.051 50.4374ZM491.743 44.6791C491.036 41.9251 490.327 39.1776 489.621 36.4236C486.291 38.0648 482.961 39.7061 479.634 41.3409C480.341 44.0949 481.056 46.8444 481.756 49.5965C485.083 47.9617 488.416 46.314 491.743 44.6791ZM489.188 34.7625C488.542 32.2571 487.897 29.7516 487.257 27.2481C483.927 28.8893 480.598 30.5306 477.271 32.1654C477.917 34.6709 478.562 37.1763 479.208 39.6818C482.538 38.0405 485.865 36.4057 489.188 34.7625ZM478.876 15.9676C463.972 24.9652 454.983 44.4518 458.835 59.411C460.598 66.2579 464.782 71.1825 470.664 73.3848C475.683 73.5822 481.235 72.1074 486.737 68.7822C497.461 62.3097 505.173 50.5455 507.415 38.8177C506.606 39.2188 505.806 39.6154 505.009 40.0056C505.213 40.81 505.42 41.6228 505.63 42.4291C505.9 43.484 504.194 44.3397 503.921 43.2765C503.711 42.4701 503.504 41.6574 503.3 40.853C503.167 40.9142 503.04 40.9773 502.903 41.0449C499.898 42.5303 496.886 44.0138 493.878 45.4909C494.53 48.028 495.185 50.5586 495.837 53.0957C496.77 52.6379 497.704 52.1801 498.631 51.7204C499.737 51.1769 500.327 52.7549 499.221 53.2984C498.239 53.7852 497.245 54.268 496.261 54.7613C496.48 55.6373 496.709 56.5088 496.935 57.3868C497.206 58.4417 495.497 59.3039 495.226 58.2342C494.998 57.3627 494.775 56.4782 494.546 55.6067C491.216 57.248 487.889 58.8828 484.56 60.5241C484.881 61.7726 485.199 63.0276 485.521 64.2761C485.791 65.331 484.085 66.1867 483.812 65.1235C483.491 63.8749 483.166 62.618 482.848 61.363C481.615 61.9696 480.391 62.5716 479.157 63.1781C478.058 63.7235 477.468 62.1455 478.568 61.6001C479.846 60.9711 481.134 60.3375 482.415 59.702C481.76 57.1713 481.114 54.6362 480.459 52.1055C477.32 53.6521 474.181 55.1987 471.042 56.7454C471.529 58.6382 472.016 60.531 472.503 62.4238C472.779 63.4806 471.065 64.3409 470.794 63.2712C470.307 61.3783 469.814 59.4836 469.33 57.5843C467.94 58.2739 466.546 58.9552 465.156 59.6448C464.056 60.1901 463.466 58.6122 464.566 58.0668C466.011 57.3501 467.453 56.6399 468.901 55.9317C468.195 53.1777 467.479 50.4282 466.773 47.6742C465.476 48.3122 464.186 48.9523 462.889 49.5904C461.789 50.1357 461.199 48.5578 462.299 48.0124C463.647 47.3537 464.995 46.6802 466.344 46.0215C466.162 45.3204 465.981 44.6193 465.8 43.9182C465.523 42.8614 467.235 42.0076 467.509 43.0709C467.69 43.7719 467.871 44.473 468.049 45.1806C471.191 43.6275 474.33 42.0809 477.469 40.5343C476.823 38.0288 476.177 35.5234 475.532 33.0179C474.608 33.4712 473.671 33.9355 472.747 34.3887C471.648 34.9341 471.058 33.3561 472.157 32.8108C473.139 32.324 474.118 31.8436 475.105 31.3588C474.88 30.4808 474.654 29.6028 474.431 28.7184C474.154 27.6616 475.866 26.8078 476.139 27.8711C476.365 28.749 476.591 29.627 476.82 30.5134C480.147 28.8786 483.477 27.2373 486.806 25.596C486.488 24.341 486.154 23.0886 485.836 21.8336C485.56 20.7768 487.271 19.923 487.545 20.9863C487.869 22.2432 488.194 23.5001 488.518 24.7571C489.751 24.1505 490.984 23.544 492.221 22.931C493.326 22.3876 493.916 23.9656 492.808 24.5154C491.52 25.149 490.232 25.7826 488.945 26.4162C489.584 28.9197 490.23 31.4252 490.876 33.9306C494.015 32.384 497.153 30.8374 500.292 29.2908C499.828 27.5013 499.367 25.7201 498.909 23.9325C498.632 22.8757 500.347 22.0155 500.617 23.0852C501.082 24.8747 501.54 26.6623 502.004 28.4518C502.995 27.9605 503.983 27.4757 504.973 26.9844C506.079 26.441 506.669 28.0189 505.563 28.5624C504.518 29.0807 503.476 29.5926 502.43 30.1109C503.14 32.8585 503.846 35.6125 504.555 38.36C505.607 37.8437 506.661 37.3208 507.712 36.8044C507.722 36.7999 507.722 36.7999 507.722 36.7999L507.725 36.7935C508.303 32.5617 508.156 28.3659 507.154 24.4751C505.732 18.9567 502.799 14.7849 498.908 12.1427C492.785 10.5074 485.696 11.8488 478.876 15.9676ZM465.95 72.6779C461.813 69.8986 458.857 65.5344 457.428 59.9696C455.421 52.1943 456.758 43.2334 460.534 35.0479C464.31 26.8623 470.522 19.4585 478.275 14.7781C483.818 11.422 489.537 9.81508 494.855 10.0483C488.441 7.69181 480.422 8.64877 472.485 13.4407C457.266 22.6341 448.114 42.4756 452.04 57.7614C454.095 65.7219 459.29 70.8716 465.95 72.6779ZM502.868 39.1919C502.159 36.4444 501.446 33.6884 500.743 30.9428C500.597 31.0149 500.452 31.0871 500.307 31.1592C497.313 32.6337 494.32 34.1082 491.332 35.5846C492.039 38.3386 492.748 41.0862 493.454 43.8402C496.596 42.2871 499.729 40.7385 502.868 39.1919ZM494.132 53.9366C493.479 51.3995 492.824 48.8689 492.172 46.3318C488.842 47.9731 485.513 49.6143 482.186 51.2491C482.838 53.7862 483.493 56.3169 484.145 58.854C487.466 57.2172 490.799 55.5844 494.132 53.9366Z" fill="#EAEAEA" fill-opacity="0.08"/>
<path d="M386.917 143.719L386.891 143.71C385.843 143.357 385.364 142.329 385.523 141.28C385.793 141.513 386.115 141.692 386.471 141.812L446.581 161.442C447.451 161.72 448.404 161.616 449.274 161.154C449.731 160.914 450.149 160.583 450.484 160.192L450.503 160.363C450.601 161.539 449.886 162.62 448.909 163.141C448.318 163.454 447.643 163.557 446.992 163.345L386.917 143.719Z" fill="#EAEAEA" fill-opacity="0.08"/>
<path d="M386.098 141.058C385.869 140.986 385.68 140.859 385.546 140.691C385.334 140.43 385.251 140.062 385.308 139.694C385.355 139.426 385.489 139.031 385.913 138.682L439.202 94.6282C439.306 94.5421 439.428 94.4618 439.557 94.3985C439.906 94.2264 440.29 94.1918 440.636 94.301C441.105 94.4493 441.392 94.8223 441.437 95.3195L446.525 157.195C446.539 157.422 446.505 157.634 446.43 157.841C446.412 157.88 446.403 157.914 446.385 157.953C446.229 158.29 445.942 158.586 445.594 158.773C445.337 158.9 444.941 159.035 444.481 158.897L386.104 141.06L386.098 141.058Z" fill="#EAEAEA" fill-opacity="0.08"/>
<path d="M367.624 269.468C371.629 269.093 375.256 266.568 377.264 263.148C378.043 261.632 378.49 259.959 378.703 258.388L378.82 257.022L378.905 258.371C378.929 259.597 378.804 260.871 378.491 262.13C383.004 260.028 386.41 255.49 386.747 250.517C386.791 249.86 386.787 249.231 386.728 248.614C386.728 248.614 386.731 248.607 386.737 248.609C386.447 247.084 385.771 245.657 384.958 244.452L384.192 243.447L385.12 244.312C386.131 245.344 386.993 246.579 387.533 247.97C392.474 243.9 395.883 237.945 396.316 231.579C396.44 229.773 396.318 228.05 395.972 226.433C395.969 226.425 395.972 226.419 395.963 226.408C395.099 224.493 393.32 223.083 391.46 222.171L390.273 221.659L391.554 221.98C393.536 222.569 395.416 223.62 396.694 225.18C399.629 221.835 401.559 217.645 401.863 213.216C402.096 209.731 401.296 206.582 399.726 204.02C399.72 204.018 399.723 204.011 399.723 204.011C398.802 202.964 397.599 202.137 396.363 201.52L395.176 201.008L396.458 201.329C397.703 201.698 398.909 202.245 399.95 202.999C401.225 200.6 402.025 197.961 402.212 195.23C402.686 188.242 398.981 182.569 393.225 180.287C393.222 180.278 393.207 180.281 393.201 180.279C391.521 179.882 389.603 179.993 387.832 180.358L386.461 180.702L387.809 180.166C389.383 179.605 391.051 179.252 392.659 179.242C392.823 173.247 388.867 168.668 383.241 167.867C381.995 167.816 380.701 167.964 379.471 168.243L378.107 168.604L379.442 168.049C380.621 167.606 381.85 167.282 383.066 167.139C381.621 161.583 377.136 157.898 371.504 158.232C371.492 158.228 371.477 158.231 371.468 158.235C369.524 158.522 367.529 159.347 365.792 160.335L367 159.481C368.19 158.694 369.491 158.032 370.821 157.578C369.216 155.397 366.506 154.147 363.339 154.442C357.999 154.929 353.374 159.631 353.01 164.935C352.928 166.178 353.089 167.345 353.45 168.383C353.453 168.406 353.456 168.429 353.462 168.446C354.593 171.952 354.625 178.246 354.628 178.454L354.631 178.462C352.715 194.242 351.412 218.531 356.352 243.449C356.352 243.449 356.349 243.456 356.355 243.457C357.898 252.612 357.917 258.525 357.921 258.895C357.865 259.246 357.82 259.601 357.8 259.949C357.397 265.735 361.803 270 367.624 269.468ZM376.444 213.637C376.565 213.617 376.692 213.598 376.816 213.586L376.836 213.77C376.702 213.727 376.566 213.691 376.444 213.637ZM376.499 249.746C384.875 242.809 385.793 231.406 384.127 222.641L384.006 222.101L384.366 221.558C389.838 213.553 392.108 204.2 388.24 196.437C386.975 193.847 385.233 191.415 383.023 189.623L383.041 189.112C383.59 175.156 374.168 168.224 360.838 167.989C372.782 166.659 383.368 172.101 385.217 183.945C385.448 185.34 385.561 186.765 385.593 188.2C392.409 193.974 395.079 204.196 391.327 213.77C390.223 216.785 388.645 219.647 386.806 222.316C388.265 231.731 386.387 243.905 377.053 250.543C374.047 252.706 370.639 253.98 367.304 254.672C370.55 253.568 373.775 252.006 376.499 249.746Z" fill="#EAEAEA" fill-opacity="0.08"/>
<path d="M269.05 328.079L272.004 323.37C272.242 322.993 272.764 322.899 273.003 323.205L275.924 326.842C276.004 326.623 276.084 326.389 276.18 326.167C277.55 322.675 280.992 319.239 284.335 317.505C288.285 315.452 291.602 315.585 295.448 316.159C290.662 315.442 296.276 316.088 297.476 316.098C298.485 316.106 299.491 316.077 300.509 316.007C299.905 316.112 299.294 316.2 298.689 316.275C299.945 316.132 301.201 315.989 302.453 315.837C301.809 315.907 301.158 315.96 300.509 316.007C302.769 315.641 305.003 315.09 307.235 314.374C306.504 314.691 305.776 314.986 305.035 315.263C306.306 314.784 307.577 314.305 308.844 313.832C308.314 314.02 307.778 314.205 307.241 314.376C309.434 313.426 311.557 312.321 313.624 311.065C315.558 309.625 317.38 308.061 319.102 306.363C318.622 306.929 318.123 307.489 317.615 308.04C318.534 307.057 319.448 306.072 320.361 305.087C319.95 305.52 319.526 305.949 319.102 306.363C320.033 305.279 320.908 304.164 321.74 303.005C322.271 302.27 322.758 301.505 323.249 300.75C323.093 301.056 322.928 301.352 322.76 301.654C323.481 300.445 323.878 299.756 323.968 299.607C323.92 299.68 323.773 299.923 323.526 300.334C323.433 300.474 323.339 300.615 323.249 300.75C323.333 300.584 323.423 300.419 323.507 300.253C327.446 292.686 335.04 288.387 342.775 290.245C343.06 290.313 343.346 290.396 343.616 290.497L343.042 285.151C342.998 284.745 343.397 284.353 343.811 284.402L348.877 284.941C349.346 284.993 349.483 285.562 349.111 285.926L344.227 290.728C350.21 293.194 353.347 301.337 349.917 307.91C343.531 320.185 334.034 330.422 321.713 337.238C316.035 340.381 309.642 342.756 303.507 343.812C296.328 345.042 290.115 344.866 283.316 343.845C279.737 343.319 277.148 340.076 275.758 337.087C274.493 334.36 274.647 331.06 275.584 327.927L269.564 328.931C269.066 329.003 268.777 328.518 269.05 328.079Z" fill="#EAEAEA" fill-opacity="0.08"/>
<path d="M372.951 515.603C376.954 515.235 380.583 512.703 382.591 509.283C383.37 507.768 383.818 506.094 384.03 504.523L384.148 503.158L384.233 504.506C384.256 505.732 384.131 507.007 383.818 508.265C388.331 506.163 391.737 501.625 392.074 496.653C392.118 495.995 392.114 495.366 392.056 494.749C392.056 494.749 392.059 494.743 392.065 494.745C391.775 493.22 391.098 491.793 390.285 490.588L389.519 489.582L390.447 490.447C391.458 491.479 392.32 492.715 392.86 494.105C397.801 490.036 401.21 484.081 401.643 477.714C401.768 475.908 401.645 474.185 401.299 472.569C401.296 472.56 401.299 472.554 401.29 472.544C400.426 470.628 398.648 469.218 396.787 468.306L395.606 467.796L396.888 468.117C398.869 468.706 400.749 469.757 402.027 471.317C404.969 467.975 406.892 463.782 407.196 459.353C407.429 455.869 406.63 452.719 405.059 450.157C405.053 450.155 405.056 450.149 405.056 450.149C404.135 449.101 402.933 448.274 401.696 447.658L400.509 447.145L401.791 447.466C403.037 447.835 404.242 448.382 405.286 449.13C406.561 446.731 407.361 444.092 407.548 441.361C408.022 434.372 404.317 428.699 398.561 426.417C398.558 426.409 398.543 426.412 398.537 426.41C396.858 426.013 394.939 426.124 393.168 426.489L391.797 426.833L393.139 426.295C394.713 425.734 396.381 425.381 397.989 425.371C398.154 419.376 394.198 414.797 388.571 413.996C387.325 413.945 386.031 414.092 384.802 414.372L383.437 414.733L384.772 414.178C385.951 413.735 387.18 413.411 388.396 413.268C386.951 407.712 382.467 404.027 376.834 404.361C376.822 404.357 376.807 404.36 376.798 404.364C374.854 404.651 372.859 405.476 371.123 406.464L372.33 405.61C373.521 404.823 374.821 404.161 376.152 403.707C374.546 401.526 371.836 400.276 368.669 400.571C363.329 401.058 358.704 405.76 358.341 411.063C358.258 412.307 358.42 413.474 358.78 414.512C358.783 414.535 358.786 414.558 358.793 414.575C359.923 418.081 359.956 424.375 359.958 424.583L359.961 424.591C358.046 440.371 356.742 464.66 361.682 489.578C361.682 489.578 361.679 489.584 361.685 489.586C363.228 498.74 363.247 504.653 363.251 505.024C363.195 505.375 363.151 505.73 363.13 506.078C362.718 511.868 367.125 516.133 372.951 515.603ZM381.765 459.771C381.886 459.75 382.013 459.732 382.14 459.713L382.16 459.897C382.03 459.863 381.893 459.826 381.765 459.771ZM381.82 495.879C390.196 488.942 391.114 477.54 389.448 468.775L389.327 468.234L389.687 467.692C395.159 459.686 397.429 450.333 393.561 442.57C392.296 439.98 390.554 437.548 388.344 435.757L388.362 435.246C388.908 421.281 379.49 414.358 366.159 414.123C378.103 412.792 388.689 418.235 390.538 430.078C390.769 431.474 390.882 432.898 390.914 434.333C397.73 440.107 400.4 450.33 396.648 459.904C395.544 462.918 393.969 465.774 392.128 468.449C393.58 477.862 391.708 490.038 382.375 496.677C379.368 498.839 375.96 500.113 372.625 500.805C375.877 499.703 379.096 498.14 381.82 495.879Z" fill="#EAEAEA" fill-opacity="0.08"/>
<path d="M292.821 415.577C292.112 412.829 291.406 410.075 290.696 407.328C287.56 408.868 284.419 410.421 281.28 411.967C281.986 414.721 282.701 417.471 283.408 420.225C286.541 418.676 289.676 417.121 292.821 415.577ZM304.51 409.81C303.804 407.056 303.094 404.308 302.388 401.554C299.058 403.196 295.729 404.837 292.399 406.478C293.105 409.232 293.821 411.982 294.521 414.734C297.851 413.093 301.186 411.453 304.51 409.81ZM301.962 399.895C301.316 397.39 300.676 394.886 300.03 392.381C296.701 394.022 293.371 395.663 290.041 397.305C290.687 399.81 291.333 402.316 291.979 404.821C295.308 403.18 298.632 401.537 301.962 399.895ZM291.646 381.107C276.742 390.104 267.753 409.591 271.606 424.55C273.365 431.404 277.553 436.322 283.434 438.524C288.453 438.721 294.006 437.247 299.507 433.922C310.232 427.449 317.944 415.685 320.185 403.957C319.376 404.358 318.576 404.755 317.78 405.145C317.983 405.949 318.19 406.762 318.4 407.568C318.677 408.625 316.965 409.479 316.691 408.416C316.481 407.609 316.275 406.797 316.071 405.992C315.937 406.053 315.81 406.117 315.674 406.184C312.668 407.67 309.657 409.153 306.648 410.63C307.3 413.167 307.956 415.698 308.608 418.235C309.541 417.777 310.474 417.319 311.407 416.862C312.513 416.318 313.103 417.896 311.997 418.44C311.01 418.924 310.022 419.409 309.037 419.902C309.257 420.779 309.486 421.65 309.712 422.528C309.982 423.583 308.274 424.445 308.003 423.375C307.777 422.497 307.557 421.621 307.322 420.748C303.993 422.389 300.666 424.024 297.336 425.665C297.658 426.914 297.976 428.169 298.297 429.417C298.574 430.474 296.862 431.328 296.588 430.265C296.267 429.016 295.943 427.759 295.624 426.504C294.397 427.113 293.167 427.713 291.934 428.319C290.834 428.865 290.244 427.287 291.344 426.741C292.623 426.112 293.91 425.479 295.192 424.843C294.537 422.313 293.891 419.777 293.229 417.245C290.091 418.791 286.952 420.338 283.813 421.885C284.3 423.777 284.786 425.67 285.273 427.563C285.544 428.618 283.835 429.48 283.564 428.41C283.078 426.518 282.585 424.623 282.101 422.724C280.71 423.413 279.317 424.094 277.926 424.784C276.826 425.329 276.236 423.751 277.336 423.206C278.781 422.489 280.223 421.779 281.672 421.071C280.965 418.317 280.25 415.567 279.544 412.813C278.247 413.452 276.956 414.092 275.659 414.73C274.56 415.275 273.97 413.697 275.069 413.152C276.421 412.487 277.766 411.819 279.114 411.161C278.933 410.46 278.752 409.759 278.57 409.057C278.294 408.001 280.005 407.147 280.279 408.21C280.46 408.911 280.642 409.612 280.82 410.32C283.962 408.767 287.101 407.22 290.239 405.674C289.594 403.168 288.948 400.663 288.302 398.157C287.378 398.61 286.442 399.075 285.518 399.528C284.418 400.073 283.828 398.495 284.928 397.95C285.916 397.465 286.888 396.983 287.876 396.498C287.65 395.62 287.424 394.742 287.201 393.858C286.925 392.801 288.636 391.947 288.91 393.01C289.136 393.888 289.362 394.766 289.591 395.653C292.917 394.018 296.247 392.377 299.577 390.735C299.258 389.48 298.925 388.228 298.607 386.973C298.33 385.916 300.042 385.062 300.315 386.126C300.64 387.382 300.964 388.639 301.289 389.896C302.522 389.29 303.755 388.683 304.991 388.07C306.097 387.527 306.687 389.105 305.578 389.655C304.29 390.288 303.003 390.922 301.715 391.555C302.355 394.059 303 396.564 303.646 399.07C306.785 397.523 309.924 395.977 313.063 394.43C312.598 392.641 312.137 390.859 311.679 389.072C311.402 388.015 313.117 387.155 313.388 388.224C313.852 390.014 314.31 391.802 314.775 393.591C315.762 393.106 316.753 392.615 317.744 392.124C318.85 391.58 319.44 393.158 318.334 393.702C317.288 394.22 316.246 394.732 315.201 395.25C315.91 397.998 316.617 400.752 317.326 403.499C318.377 402.983 319.429 402.467 320.483 401.944C320.492 401.939 320.492 401.939 320.492 401.939L320.495 401.933C321.073 397.701 320.927 393.505 319.925 389.614C318.503 384.096 315.569 379.924 311.678 377.282C305.55 375.645 298.47 376.982 291.646 381.107ZM278.723 437.811C274.587 435.031 271.63 430.667 270.202 425.102C268.194 417.327 269.531 408.366 273.307 400.181C277.083 391.995 283.295 384.591 291.048 379.911C296.592 376.555 302.31 374.948 307.628 375.181C301.215 372.825 293.196 373.782 285.258 378.573C270.04 387.767 260.887 407.608 264.813 422.894C266.868 430.855 272.063 436.004 278.723 437.811ZM315.641 404.325C314.932 401.577 314.22 398.821 313.516 396.076C313.371 396.148 313.225 396.22 313.08 396.292C310.087 397.766 307.093 399.241 304.1 400.715C304.806 403.469 305.515 406.217 306.222 408.971C309.364 407.418 312.502 405.871 315.641 404.325ZM306.896 419.074C306.244 416.537 305.588 414.006 304.936 411.469C301.607 413.11 298.277 414.752 294.947 416.393C295.599 418.93 296.255 421.461 296.901 423.996C300.236 422.356 303.572 420.717 306.896 419.074Z" fill="#EAEAEA" fill-opacity="0.08"/>
<path d="M307.148 419.33C306.496 416.793 305.841 414.263 305.189 411.726C301.86 413.367 298.531 415.008 295.201 416.649C295.854 419.186 296.509 421.717 297.155 424.252C300.49 422.612 303.825 420.973 307.148 419.33ZM307.148 419.33C306.496 416.793 305.841 414.263 305.189 411.726C301.86 413.367 298.531 415.008 295.201 416.649C295.854 419.186 296.509 421.717 297.155 424.252C300.49 422.612 303.825 420.973 307.148 419.33ZM307.148 419.33C306.496 416.793 305.841 414.263 305.189 411.726C301.86 413.367 298.531 415.008 295.201 416.649C295.854 419.186 296.509 421.717 297.155 424.252C300.49 422.612 303.825 420.973 307.148 419.33ZM293.076 415.833C292.367 413.085 291.66 410.332 290.951 407.584C287.816 409.124 284.674 410.677 281.536 412.224C282.242 414.978 282.958 417.727 283.664 420.481C286.796 418.932 289.931 417.377 293.076 415.833ZM307.148 419.33C306.496 416.793 305.841 414.263 305.189 411.726C301.86 413.367 298.531 415.008 295.201 416.649C295.854 419.186 296.509 421.717 297.155 424.252C300.49 422.612 303.825 420.973 307.148 419.33ZM304.763 410.067C304.056 407.313 303.347 404.565 302.641 401.811C299.312 403.453 295.982 405.094 292.653 406.735C293.36 409.489 294.075 412.238 294.775 414.99C298.104 413.349 301.44 411.71 304.763 410.067ZM293.076 415.833C292.367 413.085 291.66 410.332 290.951 407.584C287.816 409.124 284.674 410.677 281.536 412.224C282.242 414.978 282.958 417.727 283.664 420.481C286.796 418.932 289.931 417.377 293.076 415.833ZM307.148 419.33C306.496 416.793 305.841 414.263 305.189 411.726C301.86 413.367 298.531 415.008 295.201 416.649C295.854 419.186 296.509 421.717 297.155 424.252C300.49 422.612 303.825 420.973 307.148 419.33ZM304.763 410.067C304.056 407.313 303.347 404.565 302.641 401.811C299.312 403.453 295.982 405.094 292.653 406.735C293.36 409.489 294.075 412.238 294.775 414.99C298.104 413.349 301.44 411.71 304.763 410.067ZM293.076 415.833C292.367 413.085 291.66 410.332 290.951 407.584C287.816 409.124 284.674 410.677 281.536 412.224C282.242 414.978 282.958 417.727 283.664 420.481C286.796 418.932 289.931 417.377 293.076 415.833ZM307.148 419.33C306.496 416.793 305.841 414.263 305.189 411.726C301.86 413.367 298.531 415.008 295.201 416.649C295.854 419.186 296.509 421.717 297.155 424.252C300.49 422.612 303.825 420.973 307.148 419.33ZM304.763 410.067C304.056 407.313 303.347 404.565 302.641 401.811C299.312 403.453 295.982 405.094 292.653 406.735C293.36 409.489 294.075 412.238 294.775 414.99C298.104 413.349 301.44 411.71 304.763 410.067ZM302.214 400.152C301.569 397.647 300.929 395.144 300.283 392.638C296.954 394.28 293.625 395.921 290.296 397.562C290.942 400.067 291.588 402.572 292.233 405.078C295.562 403.437 298.885 401.794 302.214 400.152ZM293.076 415.833C292.367 413.085 291.66 410.332 290.951 407.584C287.816 409.124 284.674 410.677 281.536 412.224C282.242 414.978 282.958 417.727 283.664 420.481C286.796 418.932 289.931 417.377 293.076 415.833ZM297.164 424.247C300.493 422.606 303.819 420.971 307.148 419.33C306.496 416.793 305.841 414.263 305.189 411.726C301.86 413.367 298.531 415.008 295.201 416.649C295.857 419.18 296.518 421.712 297.164 424.247ZM304.763 410.067C304.056 407.313 303.347 404.565 302.641 401.811C299.312 403.453 295.982 405.094 292.653 406.735C293.36 409.489 294.075 412.238 294.775 414.99C298.104 413.349 301.44 411.71 304.763 410.067ZM300.283 392.638C296.954 394.28 293.625 395.921 290.296 397.562C290.942 400.067 291.588 402.572 292.233 405.078C295.562 403.437 298.885 401.794 302.214 400.152C301.569 397.647 300.923 395.142 300.283 392.638ZM306.474 409.228C309.615 407.675 312.754 406.128 315.892 404.582C315.183 401.834 314.47 399.078 313.767 396.333C313.622 396.405 313.476 396.477 313.331 396.549C310.338 398.024 307.345 399.498 304.352 400.973C305.059 403.726 305.768 406.474 306.474 409.228ZM305.544 435.512C312.99 431.009 318.963 423.892 322.59 416.03C326.219 408.16 327.498 399.552 325.58 392.071C323.723 384.884 319.208 379.81 312.858 377.791C312.558 377.696 312.253 377.614 311.953 377.533C305.808 375.905 298.72 377.246 291.9 381.365C276.999 390.362 268.012 409.847 271.864 424.806C273.623 431.659 277.81 436.577 283.691 438.779C283.984 438.887 284.284 438.997 284.584 439.092C290.934 441.111 298.376 439.838 305.544 435.512ZM283.839 428.657C283.352 426.764 282.859 424.869 282.376 422.97C280.985 423.66 279.592 424.341 278.201 425.031C277.102 425.576 276.512 423.998 277.612 423.453C279.056 422.736 280.498 422.026 281.946 421.318C281.24 418.564 280.525 415.815 279.819 413.061C278.522 413.699 277.232 414.339 275.935 414.977C274.836 415.522 274.246 413.944 275.345 413.399C276.696 412.734 278.041 412.067 279.389 411.408C279.208 410.707 279.027 410.006 278.845 409.305C278.569 408.248 280.28 407.394 280.554 408.458C280.735 409.159 280.916 409.86 281.095 410.567C284.236 409.014 287.374 407.468 290.513 405.921C289.867 403.416 289.221 400.911 288.575 398.405C287.652 398.858 286.716 399.323 285.792 399.776C284.692 400.321 284.102 398.743 285.202 398.198C286.189 397.713 287.162 397.231 288.149 396.746C287.923 395.868 287.697 394.99 287.475 394.106C287.198 393.049 288.909 392.195 289.183 393.259C289.409 394.137 289.635 395.015 289.864 395.901C293.19 394.266 296.519 392.625 299.848 390.984C299.53 389.729 299.196 388.477 298.878 387.222C298.601 386.165 300.313 385.311 300.586 386.374C300.911 387.631 301.235 388.888 301.56 390.145C302.793 389.538 304.026 388.932 305.261 388.319C306.367 387.776 306.957 389.353 305.848 389.903C304.561 390.537 303.273 391.17 301.986 391.804C302.626 394.307 303.271 396.813 303.917 399.318C307.055 397.772 310.193 396.225 313.332 394.678C312.868 392.889 312.406 391.108 311.948 389.321C311.672 388.264 313.386 387.404 313.657 388.473C314.121 390.263 314.579 392.05 315.043 393.84C316.031 393.355 317.021 392.864 318.012 392.372C319.118 391.829 319.707 393.407 318.602 393.95C317.557 394.468 316.515 394.98 315.47 395.499C316.179 398.246 316.885 401 317.594 403.747C318.646 403.231 319.697 402.715 320.751 402.192C320.76 402.187 320.76 402.187 320.76 402.187L320.763 402.181C321.86 401.657 322.437 403.231 321.344 403.763C321.044 403.912 320.735 404.065 320.429 404.212C319.62 404.613 318.82 405.01 318.024 405.4C318.227 406.204 318.434 407.017 318.644 407.823C318.921 408.88 317.209 409.734 316.936 408.671C316.726 407.864 316.519 407.052 316.315 406.247C316.182 406.308 316.055 406.371 315.918 406.439C312.913 407.924 309.902 409.408 306.894 410.885C307.546 413.422 308.201 415.952 308.854 418.489C309.787 418.031 310.72 417.574 311.653 417.116C312.758 416.573 313.348 418.15 312.243 418.694C311.255 419.179 310.267 419.663 309.283 420.157C309.503 421.033 309.732 421.904 309.957 422.782C310.228 423.837 308.52 424.699 308.249 423.629C308.023 422.751 307.803 421.875 307.568 421.002C304.239 422.643 300.913 424.278 297.584 425.919C297.905 427.167 298.224 428.422 298.545 429.671C298.821 430.728 297.11 431.581 296.837 430.518C296.515 429.27 296.191 428.013 295.873 426.758C294.646 427.366 293.416 427.966 292.183 428.573C291.083 429.118 290.493 427.54 291.593 426.995C292.871 426.366 294.159 425.732 295.44 425.097C294.785 422.566 294.139 420.031 293.478 417.499C290.34 419.045 287.201 420.592 284.063 422.138C284.55 424.031 285.036 425.924 285.523 427.817C285.815 428.871 284.11 429.726 283.839 428.657ZM290.945 407.582C287.81 409.122 284.668 410.675 281.53 412.222C282.236 414.976 282.952 417.725 283.658 420.479C286.796 418.932 289.938 417.379 293.076 415.833C292.36 413.083 291.66 410.332 290.945 407.582ZM297.164 424.247C300.493 422.606 303.819 420.971 307.148 419.33C306.496 416.793 305.841 414.263 305.189 411.726C301.86 413.367 298.531 415.008 295.201 416.649C295.857 419.18 296.518 421.712 297.164 424.247ZM304.763 410.067C304.056 407.313 303.347 404.565 302.641 401.811C299.312 403.453 295.982 405.094 292.653 406.735C293.36 409.489 294.075 412.238 294.775 414.99C298.104 413.349 301.44 411.71 304.763 410.067ZM300.283 392.638C296.954 394.28 293.625 395.921 290.296 397.562C290.942 400.067 291.588 402.572 292.233 405.078C295.562 403.437 298.885 401.794 302.214 400.152C301.569 397.647 300.923 395.142 300.283 392.638ZM306.474 409.228C309.615 407.675 312.754 406.128 315.892 404.582C315.183 401.834 314.47 399.078 313.767 396.333C313.622 396.405 313.476 396.477 313.331 396.549C310.338 398.024 307.345 399.498 304.352 400.973C305.059 403.726 305.768 406.474 306.474 409.228ZM315.892 404.582C315.183 401.834 314.47 399.078 313.767 396.333C313.622 396.405 313.476 396.477 313.331 396.549C310.338 398.024 307.345 399.498 304.352 400.973C305.059 403.726 305.768 406.474 306.474 409.228C309.615 407.675 312.754 406.128 315.892 404.582ZM302.214 400.152C301.569 397.647 300.929 395.144 300.283 392.638C296.954 394.28 293.625 395.921 290.296 397.562C290.942 400.067 291.588 402.572 292.233 405.078C295.562 403.437 298.885 401.794 302.214 400.152ZM304.763 410.067C304.056 407.313 303.347 404.565 302.641 401.811C299.312 403.453 295.982 405.094 292.653 406.735C293.36 409.489 294.075 412.238 294.775 414.99C298.104 413.349 301.44 411.71 304.763 410.067ZM307.148 419.33C306.496 416.793 305.841 414.263 305.189 411.726C301.86 413.367 298.531 415.008 295.201 416.649C295.854 419.186 296.509 421.717 297.155 424.252C300.49 422.612 303.825 420.973 307.148 419.33ZM293.076 415.833C292.367 413.085 291.66 410.332 290.951 407.584C287.816 409.124 284.674 410.677 281.536 412.224C282.242 414.978 282.958 417.727 283.664 420.481C286.796 418.932 289.931 417.377 293.076 415.833ZM302.214 400.152C301.569 397.647 300.929 395.144 300.283 392.638C296.954 394.28 293.625 395.921 290.296 397.562C290.942 400.067 291.588 402.572 292.233 405.078C295.562 403.437 298.885 401.794 302.214 400.152ZM304.763 410.067C304.056 407.313 303.347 404.565 302.641 401.811C299.312 403.453 295.982 405.094 292.653 406.735C293.36 409.489 294.075 412.238 294.775 414.99C298.104 413.349 301.44 411.71 304.763 410.067ZM307.148 419.33C306.496 416.793 305.841 414.263 305.189 411.726C301.86 413.367 298.531 415.008 295.201 416.649C295.854 419.186 296.509 421.717 297.155 424.252C300.49 422.612 303.825 420.973 307.148 419.33ZM293.076 415.833C292.367 413.085 291.66 410.332 290.951 407.584C287.816 409.124 284.674 410.677 281.536 412.224C282.242 414.978 282.958 417.727 283.664 420.481C286.796 418.932 289.931 417.377 293.076 415.833ZM304.763 410.067C304.056 407.313 303.347 404.565 302.641 401.811C299.312 403.453 295.982 405.094 292.653 406.735C293.36 409.489 294.075 412.238 294.775 414.99C298.104 413.349 301.44 411.71 304.763 410.067ZM307.148 419.33C306.496 416.793 305.841 414.263 305.189 411.726C301.86 413.367 298.531 415.008 295.201 416.649C295.854 419.186 296.509 421.717 297.155 424.252C300.49 422.612 303.825 420.973 307.148 419.33ZM293.076 415.833C292.367 413.085 291.66 410.332 290.951 407.584C287.816 409.124 284.674 410.677 281.536 412.224C282.242 414.978 282.958 417.727 283.664 420.481C286.796 418.932 289.931 417.377 293.076 415.833ZM304.763 410.067C304.056 407.313 303.347 404.565 302.641 401.811C299.312 403.453 295.982 405.094 292.653 406.735C293.36 409.489 294.075 412.238 294.775 414.99C298.104 413.349 301.44 411.71 304.763 410.067ZM307.148 419.33C306.496 416.793 305.841 414.263 305.189 411.726C301.86 413.367 298.531 415.008 295.201 416.649C295.854 419.186 296.509 421.717 297.155 424.252C300.49 422.612 303.825 420.973 307.148 419.33ZM293.076 415.833C292.367 413.085 291.66 410.332 290.951 407.584C287.816 409.124 284.674 410.677 281.536 412.224C282.242 414.978 282.958 417.727 283.664 420.481C286.796 418.932 289.931 417.377 293.076 415.833ZM307.148 419.33C306.496 416.793 305.841 414.263 305.189 411.726C301.86 413.367 298.531 415.008 295.201 416.649C295.854 419.186 296.509 421.717 297.155 424.252C300.49 422.612 303.825 420.973 307.148 419.33ZM307.148 419.33C306.496 416.793 305.841 414.263 305.189 411.726C301.86 413.367 298.531 415.008 295.201 416.649C295.854 419.186 296.509 421.717 297.155 424.252C300.49 422.612 303.825 420.973 307.148 419.33ZM307.148 419.33C306.496 416.793 305.841 414.263 305.189 411.726C301.86 413.367 298.531 415.008 295.201 416.649C295.854 419.186 296.509 421.717 297.155 424.252C300.49 422.612 303.825 420.973 307.148 419.33Z" fill="#EAEAEA" fill-opacity="0.08"/>
<path d="M306.797 465.179C305.776 464.335 304.799 463.681 303.904 463.292C304.963 463.735 305.931 464.377 306.797 465.179Z" fill="#EAEAEA" fill-opacity="0.08"/>
<path d="M283.66 515.697C283.565 515.682 283.48 515.662 283.388 515.64L283.391 515.633C283.387 515.594 283.38 515.562 283.389 515.527C283.472 515.584 283.568 515.645 283.66 515.697Z" fill="#EAEAEA" fill-opacity="0.08"/>
<path d="M307.472 493.303C307.489 493.204 307.487 493.1 307.489 493.005C307.629 492.939 307.763 492.857 307.895 492.781C307.753 492.957 307.611 493.133 307.472 493.303Z" fill="#EAEAEA" fill-opacity="0.08"/>
<path d="M305.851 503.904C305.829 503.89 305.8 503.873 305.775 503.865C305.784 503.861 305.789 503.849 305.786 503.841C305.808 503.855 305.834 503.877 305.851 503.904Z" fill="#EAEAEA" fill-opacity="0.08"/>
<path d="M298.958 529.844C299.21 529.709 300.336 529.133 301.999 528.215C301.028 528.9 300.006 529.45 298.958 529.844Z" fill="#EAEAEA" fill-opacity="0.08"/>
<path d="M310.141 475.393C308.718 474.12 306.972 472.603 305.013 471.531C302.719 470.27 300.125 469.626 297.422 470.68C298.935 469.478 300.99 469.263 302.659 469.533C303.559 469.685 304.4 469.937 305.192 470.277C308.208 471.544 310.514 473.993 312.337 476.593C312.769 477.27 313.192 477.953 313.566 478.664C312.403 477.621 311.308 476.444 310.141 475.393ZM301.954 493.105C299.7 492.398 297.717 491.073 295.73 489.94C293.389 488.369 290.371 488.597 287.385 489.487C285.892 489.932 284.407 490.542 283.016 491.175C284.256 490.183 285.689 489.29 287.199 488.628C290.153 487.305 293.388 486.835 295.982 488.131C297.889 489.18 300.208 490.782 302.148 491.76C302.157 491.77 302.175 491.776 302.188 491.78C303.897 492.662 305.777 493.251 307.878 492.769C308.028 492.735 308.186 492.696 308.345 492.643C308.39 492.635 308.442 492.614 308.482 492.605C308.412 492.649 308.345 492.687 308.287 492.721C308.149 492.899 308.004 493.075 307.856 493.243C307.873 493.145 307.872 493.041 307.874 492.945C306.959 493.403 305.931 493.633 304.943 493.623C303.882 493.606 302.89 493.409 301.954 493.105ZM285 505.165C283.066 504.16 281.472 502.543 280.401 500.797C281.919 502.048 283.672 503.292 285.596 504.028C287.549 504.781 289.697 505.002 291.969 504.167C294.818 503.3 297.787 502.205 300.678 502.114C301.313 502.093 301.953 502.126 302.577 502.22C303.702 502.421 304.725 502.945 305.406 503.739L305.403 503.745C305.422 503.766 305.446 503.789 305.465 503.809C305.443 503.795 305.416 503.779 305.391 503.771C303.933 502.939 302.251 502.894 300.518 503.189C300.03 503.271 299.536 503.381 299.039 503.513C296.707 504.114 293.671 505.262 291.327 505.934C289.026 506.53 286.854 506.13 285 505.165ZM289.738 524.805C292.154 525.756 294.952 524.998 297.619 523.629C299.89 522.476 302.083 520.882 303.876 519.547C305.216 518.55 306.531 517.441 307.859 516.426C307.986 516.318 308.123 516.22 308.253 516.121C308.093 516.315 307.927 516.521 307.77 516.708C307.333 517.229 306.88 517.737 306.424 518.252C303.857 520.941 300.833 523.493 297.442 524.892C296.545 525.266 295.631 525.554 294.685 525.743C292.922 526.088 290.921 525.942 289.738 524.805ZM296.76 529.712C296.76 529.712 296.779 529.703 296.815 529.685C297.074 529.552 298.192 528.973 299.855 528.056C305.389 524.989 316.896 518.15 321.722 511.748C323.437 509.47 326.199 508.183 328.761 508.513C329.625 508.624 330.467 508.795 331.143 509.053C331.236 506.965 331.459 504.051 331.954 500.594C332.457 497.028 333.253 492.874 334.508 488.443C331.84 490.256 328.513 490.971 324.427 484.595C323.103 482.531 315.393 470.489 309.265 465.472C308.275 464.662 307.326 464.036 306.457 463.664C306.356 463.625 306.255 463.585 306.159 463.547C305.106 463.147 303.973 462.951 302.766 462.975C296.901 463.094 291.18 468.434 288.464 475.705C288.8 475.708 289.145 475.721 289.479 475.746C294.701 476.075 299.619 477.975 303.72 480.682C304.499 481.188 305.25 481.738 305.972 482.307C305.987 482.319 305.996 482.33 306.012 482.342C307.497 483.45 308.968 484.894 310.296 486.159C309.053 485.165 307.718 484.053 306.35 483.131C306.126 482.978 305.892 482.83 305.664 482.683C305.002 482.244 304.316 481.827 303.612 481.433C299.3 479.014 294.288 477.5 289.006 477.573C288.615 477.583 288.224 477.592 287.824 477.62C287.255 477.648 286.684 477.696 286.11 477.766C280.955 481.657 276.89 488.619 275.773 496.508C274.519 505.346 277.314 512.868 282.397 516.145C282.489 516.204 282.578 516.255 282.664 516.311C282.661 516.318 282.677 516.315 282.677 516.315C285.548 516.922 288.717 516.853 291.757 516.38C292.87 516.133 294.612 515.818 295.697 515.451C295.913 515.394 296.127 515.328 296.34 515.262C296.346 515.264 296.346 515.264 296.349 515.258C297.196 515.008 298.061 514.704 298.923 514.378C299.815 514.046 300.704 513.691 301.55 513.352L305.364 511.539L301.645 513.619C300.754 514.055 299.805 514.509 298.846 514.939C297.836 515.403 296.811 515.826 295.827 516.174C294.399 516.706 292.951 517.143 291.494 517.481C291.213 517.555 290.933 517.614 290.646 517.671C287.9 518.238 285.13 518.433 282.464 518.129C283.085 525.362 287.301 530.542 293.173 530.426C294.389 530.397 295.585 530.154 296.76 529.712Z" fill="#EAEAEA" fill-opacity="0.08"/>
<path d="M333.536 512.157C333.576 508.722 334.002 499.003 337.382 487.855C338.394 486.989 339.276 486.303 340.04 486.396C345.599 487.062 345.538 497.938 341.22 509.225C338.957 515.137 334.759 514.218 333.536 512.157Z" fill="#EAEAEA" fill-opacity="0.08"/>
<path d="M307.882 492.786C307.906 492.765 307.927 492.735 307.939 492.709C307.985 492.702 308.037 492.681 308.077 492.672C308.01 492.709 307.943 492.747 307.882 492.786Z" fill="#EAEAEA" fill-opacity="0.08"/>
<path d="M307.472 493.303C307.489 493.204 307.487 493.1 307.489 493.005C307.629 492.939 307.763 492.857 307.895 492.781C307.753 492.957 307.611 493.133 307.472 493.303Z" fill="#EAEAEA" fill-opacity="0.08"/>
<path d="M305.851 503.904C305.829 503.89 305.8 503.873 305.775 503.865C305.784 503.861 305.789 503.849 305.786 503.841C305.808 503.855 305.834 503.877 305.851 503.904Z" fill="#EAEAEA" fill-opacity="0.08"/>
<path d="M309.138 517.072C309.175 516.973 309.2 516.886 309.222 516.79C309.345 516.683 309.476 516.587 309.602 516.488C309.448 516.681 309.291 516.879 309.138 517.072Z" fill="#EAEAEA" fill-opacity="0.08"/>
<path d="M305.851 503.904C305.829 503.89 305.8 503.873 305.775 503.865C305.784 503.861 305.789 503.849 305.786 503.841C305.808 503.855 305.834 503.877 305.851 503.904Z" fill="#EAEAEA" fill-opacity="0.08"/>
<path d="M307.882 492.786C307.906 492.765 307.927 492.735 307.939 492.709C307.985 492.702 308.037 492.681 308.077 492.672C308.01 492.709 307.943 492.747 307.882 492.786Z" fill="#EAEAEA" fill-opacity="0.08"/>
<path d="M309.138 517.072C309.175 516.973 309.2 516.886 309.222 516.79C309.345 516.683 309.476 516.587 309.602 516.488C309.448 516.681 309.291 516.879 309.138 517.072Z" fill="#EAEAEA" fill-opacity="0.08"/>
<path d="M199.686 508.848L199.661 508.839C198.612 508.485 198.134 507.458 198.287 506.407C198.556 506.639 198.878 506.819 199.234 506.939L259.35 526.571C260.221 526.849 261.173 526.745 262.044 526.283C262.501 526.043 262.912 525.71 263.253 525.321L263.272 525.492C263.371 526.667 262.653 527.756 261.679 528.27C261.087 528.583 260.413 528.686 259.762 528.474L199.686 508.848Z" fill="#EAEAEA" fill-opacity="0.08"/>
<path d="M198.874 506.191C198.646 506.119 198.457 505.992 198.323 505.823C198.111 505.563 198.027 505.195 198.085 504.827C198.131 504.559 198.265 504.163 198.689 503.814L251.979 459.761C252.083 459.675 252.205 459.595 252.333 459.531C252.682 459.359 253.066 459.325 253.412 459.434C253.881 459.582 254.168 459.955 254.214 460.452L259.301 522.328C259.316 522.555 259.284 522.761 259.206 522.974C259.188 523.013 259.179 523.047 259.161 523.086C259.005 523.423 258.725 523.721 258.37 523.906C258.113 524.032 257.717 524.167 257.258 524.03L198.88 506.193L198.874 506.191Z" fill="#EAEAEA" fill-opacity="0.08"/>
<path d="M286.647 569.768C286.683 569.919 286.833 570.61 287.09 571.845C287.017 571.549 286.943 571.252 286.861 570.959C286.838 570.812 286.815 570.664 286.792 570.516C286.706 570.097 286.66 569.846 286.647 569.768Z" fill="#EAEAEA" fill-opacity="0.08"/>
<path d="M288.01 575.727C287.953 576.952 287.887 578.182 287.821 579.412C287.853 578.731 287.87 578.052 287.87 577.367C287.936 576.822 287.976 576.275 288.01 575.727Z" fill="#EAEAEA" fill-opacity="0.08"/>
<path d="M274.379 574.216L277.333 569.507C277.571 569.13 278.093 569.037 278.332 569.342L281.252 572.979C281.333 572.76 281.413 572.526 281.508 572.304C282.878 568.812 286.32 565.376 289.664 563.642C293.613 561.59 296.931 561.722 300.776 562.296C295.99 561.58 301.605 562.225 302.804 562.235C303.814 562.244 304.82 562.214 305.838 562.144C305.233 562.249 304.622 562.337 304.017 562.412C305.273 562.269 306.529 562.126 307.782 561.975C307.137 562.045 306.486 562.098 305.838 562.144C308.098 561.779 310.331 561.227 312.563 560.512C311.832 560.828 311.104 561.124 310.364 561.4C311.635 560.921 312.905 560.442 314.167 559.968C313.633 560.162 313.1 560.341 312.563 560.512C314.756 559.562 316.879 558.456 318.946 557.2C320.88 555.761 322.702 554.197 324.425 552.498C323.944 553.064 323.445 553.625 322.937 554.175C323.857 553.192 324.77 552.207 325.684 551.223C325.272 551.655 324.848 552.084 324.425 552.498C325.355 551.415 326.231 550.299 327.063 549.141C327.593 548.405 328.081 547.641 328.571 546.885C328.415 547.191 328.25 547.487 328.082 547.789C328.804 546.581 329.2 545.891 329.29 545.742C329.242 545.816 329.095 546.058 328.848 546.469C328.755 546.61 328.668 546.753 328.577 546.887C328.661 546.721 328.751 546.557 328.835 546.391C332.775 538.823 340.368 534.524 348.103 536.383C348.389 536.451 348.674 536.534 348.947 536.628L348.373 531.282C348.329 530.876 348.729 530.484 349.142 530.533L354.208 531.071C354.683 531.126 354.814 531.693 354.442 532.057L349.552 536.856C355.535 539.323 358.672 547.466 355.242 554.039C348.857 566.314 339.359 576.551 327.039 583.367C321.36 586.51 314.967 588.885 308.832 589.941C301.653 591.17 295.441 590.995 288.641 589.974C285.065 589.441 282.473 586.204 281.083 583.215C279.818 580.488 279.972 577.189 280.909 574.055L274.89 575.06C274.395 575.14 274.099 574.654 274.379 574.216Z" fill="#EAEAEA" fill-opacity="0.08"/>
<path d="M216.544 648.341C220.547 647.973 224.176 645.441 226.184 642.022C226.963 640.506 227.411 638.832 227.623 637.261L227.741 635.896L227.826 637.245C227.849 638.47 227.724 639.745 227.411 641.003C231.924 638.901 235.33 634.363 235.667 629.391C235.711 628.733 235.707 628.104 235.649 627.487C235.649 627.487 235.652 627.481 235.658 627.483C235.368 625.958 234.691 624.531 233.878 623.326L233.112 622.321L234.04 623.186C235.051 624.217 235.913 625.453 236.453 626.844C241.394 622.774 244.803 616.819 245.236 610.452C245.36 608.646 245.238 606.924 244.892 605.307C244.889 605.299 244.892 605.292 244.883 605.282C244.019 603.367 242.24 601.957 240.38 601.045L239.199 600.534L240.48 600.855C242.462 601.444 244.342 602.495 245.62 604.055C248.562 600.713 250.485 596.521 250.789 592.092C251.022 588.607 250.223 585.457 248.652 582.895C248.646 582.893 248.649 582.887 248.649 582.887C247.728 581.84 246.526 581.012 245.289 580.396L244.108 579.886L245.39 580.207C246.636 580.575 247.841 581.123 248.885 581.87C250.16 579.471 250.96 576.832 251.147 574.101C251.621 567.113 247.916 561.44 242.16 559.158C242.157 559.149 242.142 559.152 242.136 559.15C240.457 558.754 238.538 558.864 236.767 559.229L235.396 559.573L236.738 559.035C238.312 558.475 239.98 558.121 241.588 558.111C241.753 552.116 237.797 547.537 232.17 546.736C230.924 546.685 229.63 546.833 228.401 547.112L227.036 547.473L228.371 546.918C229.55 546.475 230.779 546.151 231.995 546.008C230.556 540.454 226.066 536.767 220.433 537.101C220.421 537.097 220.406 537.1 220.397 537.105C218.453 537.392 216.458 538.216 214.722 539.204L215.929 538.35C217.12 537.564 218.42 536.901 219.751 536.448C218.145 534.266 215.435 533.016 212.268 533.311C206.928 533.798 202.303 538.5 201.94 543.804C201.857 545.047 202.019 546.214 202.379 547.252C202.382 547.275 202.385 547.298 202.392 547.315C203.522 550.822 203.555 557.115 203.557 557.323L203.56 557.331C201.645 573.111 200.341 597.4 205.281 622.318C205.281 622.318 205.278 622.325 205.284 622.326C206.827 631.481 206.846 637.394 206.851 637.764C206.794 638.115 206.75 638.47 206.729 638.818C206.311 644.606 210.718 648.872 216.544 648.341ZM225.364 592.511C225.485 592.49 225.612 592.472 225.736 592.46L225.756 592.643C225.622 592.601 225.486 592.564 225.364 592.511ZM225.413 628.618C233.789 621.68 234.707 610.278 233.041 601.513L232.92 600.972L233.28 600.43C238.752 592.425 241.022 583.071 237.154 575.308C235.889 572.718 234.147 570.286 231.937 568.495L231.955 567.984C232.501 554.019 223.082 547.096 209.752 546.861C221.696 545.531 232.282 550.973 234.125 562.815C234.356 564.21 234.469 565.634 234.501 567.07C241.317 572.843 243.987 583.066 240.235 592.64C239.131 595.654 237.555 598.51 235.714 601.186C237.167 610.599 235.295 622.774 225.961 629.413C222.955 631.576 219.547 632.85 216.212 633.541C219.47 632.441 222.686 630.884 225.413 628.618Z" fill="#EAEAEA" fill-opacity="0.08"/>
<path d="M436.434 519.394C435.724 516.647 435.018 513.893 434.309 511.145C431.173 512.685 428.031 514.239 424.892 515.785C425.599 518.539 426.314 521.289 427.02 524.043C430.159 522.496 433.295 520.941 436.434 519.394ZM448.129 513.63C447.422 510.876 446.713 508.128 446.006 505.374C442.677 507.015 439.347 508.657 436.017 510.298C436.724 513.052 437.439 515.801 438.139 518.553C441.469 516.912 444.799 515.271 448.129 513.63ZM445.577 503.721C444.931 501.216 444.292 498.713 443.646 496.207C440.316 497.848 436.987 499.49 433.657 501.131C434.303 503.636 434.948 506.142 435.594 508.647C438.921 506.998 442.25 505.356 445.577 503.721ZM435.259 484.925C420.355 493.922 411.366 513.409 415.218 528.368C416.978 535.221 421.165 540.139 427.047 542.342C432.066 542.539 437.618 541.064 443.12 537.739C453.844 531.267 461.556 519.503 463.798 507.775C462.989 508.176 462.189 508.572 461.392 508.963C461.596 509.767 461.803 510.58 462.012 511.386C462.289 512.443 460.577 513.297 460.304 512.233C460.094 511.427 459.887 510.614 459.683 509.81C459.55 509.871 459.423 509.934 459.286 510.002C456.281 511.487 453.269 512.971 450.261 514.448C450.913 516.985 451.568 519.516 452.22 522.053C453.153 521.595 454.087 521.137 455.02 520.679C456.126 520.136 456.716 521.714 455.61 522.257C454.622 522.742 453.634 523.227 452.65 523.72C452.869 524.596 453.098 525.468 453.324 526.346C453.595 527.401 451.886 528.263 451.615 527.193C451.39 526.315 451.17 525.439 450.935 524.566C447.605 526.207 444.278 527.842 440.949 529.483C441.27 530.732 441.588 531.986 441.91 533.235C442.186 534.292 440.475 535.146 440.201 534.082C439.88 532.834 439.555 531.577 439.237 530.322C438.01 530.93 436.78 531.531 435.547 532.137C434.447 532.682 433.857 531.104 434.957 530.559C436.235 529.93 437.523 529.296 438.804 528.661C438.149 526.13 437.503 523.595 436.842 521.063C433.703 522.609 430.564 524.156 427.425 525.702C427.912 527.595 428.399 529.488 428.886 531.381C429.156 532.436 427.448 533.298 427.177 532.228C426.69 530.335 426.197 528.441 425.714 526.541C424.323 527.231 422.929 527.912 421.539 528.602C420.439 529.147 419.849 527.569 420.949 527.024C422.394 526.307 423.836 525.597 425.284 524.889C424.578 522.135 423.862 519.385 423.156 516.631C421.859 517.269 420.569 517.909 419.272 518.547C418.172 519.093 417.582 517.515 418.682 516.969C420.033 516.304 421.379 515.637 422.727 514.978C422.546 514.277 422.364 513.576 422.183 512.875C421.912 511.82 423.618 510.965 423.892 512.028C424.073 512.729 424.254 513.43 424.433 514.138C427.574 512.585 430.713 511.038 433.852 509.491C433.206 506.986 432.56 504.48 431.915 501.975C430.991 502.428 430.054 502.892 429.13 503.346C428.031 503.891 427.441 502.313 428.54 501.768C429.528 501.283 430.501 500.801 431.488 500.316C431.262 499.438 431.037 498.56 430.814 497.675C430.537 496.619 432.249 495.765 432.522 496.828C432.748 497.706 432.974 498.584 433.203 499.47C436.53 497.836 439.86 496.194 443.189 494.553C442.871 493.298 442.537 492.046 442.219 490.791C441.943 489.734 443.654 488.88 443.928 489.943C444.252 491.2 444.571 492.455 444.901 493.714C446.134 493.108 447.367 492.501 448.603 491.888C449.709 491.345 450.299 492.923 449.19 493.472C447.903 494.106 446.615 494.74 445.327 495.373C445.967 497.877 446.613 500.382 447.259 502.888C450.397 501.341 453.536 499.794 456.675 498.248C456.211 496.458 455.75 494.677 455.291 492.89C455.015 491.833 456.73 490.973 457 492.042C457.464 493.832 457.923 495.619 458.387 497.409C459.375 496.924 460.365 496.433 461.356 495.941C462.462 495.398 463.052 496.976 461.946 497.519C460.901 498.038 459.859 498.55 458.813 499.068C459.523 501.815 460.229 504.57 460.938 507.317C461.99 506.801 463.044 506.278 464.095 505.761C464.104 505.757 464.104 505.757 464.104 505.757L464.107 505.75C464.686 501.519 464.539 497.323 463.537 493.432C462.115 487.914 459.182 483.742 455.29 481.1C449.168 479.464 442.086 480.808 435.259 484.925ZM422.339 541.637C418.203 538.858 415.246 534.493 413.817 528.929C411.81 521.153 413.147 512.192 416.923 504.007C420.699 495.821 426.911 488.418 434.664 483.737C440.208 480.381 445.926 478.774 451.244 479.007C444.83 476.651 436.811 477.608 428.874 482.4C413.656 491.593 404.503 511.435 408.429 526.72C410.478 534.679 415.679 539.83 422.339 541.637ZM459.26 508.144C458.551 505.397 457.838 502.641 457.135 499.895C456.989 499.967 456.844 500.04 456.699 500.112C453.705 501.586 450.712 503.061 447.718 504.535C448.425 507.289 449.134 510.037 449.84 512.791C452.982 511.238 456.115 509.689 459.26 508.144ZM450.514 522.894C449.862 520.357 449.207 517.826 448.555 515.289C445.225 516.93 441.895 518.571 438.566 520.213C439.218 522.75 439.873 525.28 440.519 527.815C443.855 526.176 447.182 524.541 450.514 522.894Z" fill="#EAEAEA" fill-opacity="0.08"/>
<path d="M450.766 523.154C450.114 520.617 449.459 518.087 448.807 515.55C445.478 517.191 442.149 518.832 438.82 520.473C439.472 523.01 440.127 525.541 440.773 528.076C444.108 526.437 447.434 524.802 450.766 523.154ZM450.766 523.154C450.114 520.617 449.459 518.087 448.807 515.55C445.478 517.191 442.149 518.832 438.82 520.473C439.472 523.01 440.127 525.541 440.773 528.076C444.108 526.437 447.434 524.802 450.766 523.154ZM450.766 523.154C450.114 520.617 449.459 518.087 448.807 515.55C445.478 517.191 442.149 518.832 438.82 520.473C439.472 523.01 440.127 525.541 440.773 528.076C444.108 526.437 447.434 524.802 450.766 523.154ZM436.688 519.655C435.979 516.908 435.272 514.154 434.563 511.406C431.428 512.947 428.287 514.499 425.148 516.046C425.855 518.8 426.57 521.549 427.276 524.303C430.414 522.757 433.55 521.202 436.688 519.655ZM450.766 523.154C450.114 520.617 449.459 518.087 448.807 515.55C445.478 517.191 442.149 518.832 438.82 520.473C439.472 523.01 440.127 525.541 440.773 528.076C444.108 526.437 447.434 524.802 450.766 523.154ZM448.381 513.891C447.674 511.137 446.965 508.39 446.259 505.636C442.93 507.277 439.601 508.918 436.272 510.559C436.978 513.313 437.693 516.062 438.393 518.814C441.722 517.173 445.052 515.532 448.381 513.891ZM436.688 519.655C435.979 516.908 435.272 514.154 434.563 511.406C431.428 512.947 428.287 514.499 425.148 516.046C425.855 518.8 426.57 521.549 427.276 524.303C430.414 522.757 433.55 521.202 436.688 519.655ZM450.766 523.154C450.114 520.617 449.459 518.087 448.807 515.55C445.478 517.191 442.149 518.832 438.82 520.473C439.472 523.01 440.127 525.541 440.773 528.076C444.108 526.437 447.434 524.802 450.766 523.154ZM448.381 513.891C447.674 511.137 446.965 508.39 446.259 505.636C442.93 507.277 439.601 508.918 436.272 510.559C436.978 513.313 437.693 516.062 438.393 518.814C441.722 517.173 445.052 515.532 448.381 513.891ZM436.688 519.655C435.979 516.908 435.272 514.154 434.563 511.406C431.428 512.947 428.287 514.499 425.148 516.046C425.855 518.8 426.57 521.549 427.276 524.303C430.414 522.757 433.55 521.202 436.688 519.655ZM450.766 523.154C450.114 520.617 449.459 518.087 448.807 515.55C445.478 517.191 442.149 518.832 438.82 520.473C439.472 523.01 440.127 525.541 440.773 528.076C444.108 526.437 447.434 524.802 450.766 523.154ZM448.381 513.891C447.674 511.137 446.965 508.39 446.259 505.636C442.93 507.277 439.601 508.918 436.272 510.559C436.978 513.313 437.693 516.062 438.393 518.814C441.722 517.173 445.052 515.532 448.381 513.891ZM445.83 503.983C445.184 501.478 444.544 498.974 443.899 496.469C440.57 498.11 437.24 499.751 433.911 501.392C434.557 503.898 435.203 506.403 435.848 508.909C439.174 507.259 442.504 505.618 445.83 503.983ZM436.688 519.655C435.979 516.908 435.272 514.154 434.563 511.406C431.428 512.947 428.287 514.499 425.148 516.046C425.855 518.8 426.57 521.549 427.276 524.303C430.414 522.757 433.55 521.202 436.688 519.655ZM440.779 528.078C444.108 526.437 447.434 524.802 450.763 523.161C450.111 520.624 449.456 518.093 448.804 515.556C445.475 517.197 442.146 518.839 438.817 520.48C439.472 523.01 440.127 525.541 440.779 528.078ZM448.381 513.891C447.674 511.137 446.965 508.39 446.259 505.636C442.93 507.277 439.601 508.918 436.272 510.559C436.978 513.313 437.693 516.062 438.393 518.814C441.722 517.173 445.052 515.532 448.381 513.891ZM443.896 496.461C440.566 498.102 437.237 499.743 433.908 501.384C434.554 503.889 435.2 506.395 435.845 508.9C439.174 507.259 442.497 505.616 445.827 503.975C445.187 501.471 444.538 498.972 443.896 496.461ZM450.092 513.052C453.234 511.499 456.372 509.952 459.51 508.406C458.801 505.659 458.088 502.903 457.385 500.157C457.24 500.229 457.095 500.301 456.949 500.374C453.956 501.848 450.963 503.322 447.97 504.797C448.677 507.551 449.386 510.298 450.092 513.052ZM449.162 539.336C456.608 534.833 462.581 527.716 466.208 519.854C469.837 511.985 471.117 503.376 469.198 495.895C467.341 488.708 462.826 483.634 456.476 481.615C456.176 481.52 455.871 481.438 455.571 481.357C449.426 479.729 442.338 481.071 435.519 485.189C420.618 494.186 411.63 513.672 415.482 528.63C417.242 535.483 421.428 540.401 427.309 542.603C427.603 542.711 427.902 542.821 428.202 542.917C434.553 544.935 441.994 543.662 449.162 539.336ZM427.448 532.486C426.961 530.593 426.468 528.698 425.985 526.799C424.594 527.489 423.201 528.17 421.811 528.859C420.711 529.405 420.121 527.827 421.221 527.281C422.666 526.565 424.108 525.855 425.556 525.146C424.849 522.393 424.134 519.643 423.428 516.889C422.131 517.527 420.841 518.167 419.544 518.805C418.445 519.351 417.855 517.773 418.954 517.228C420.305 516.562 421.65 515.895 422.998 515.237C422.817 514.536 422.636 513.835 422.455 513.134C422.184 512.079 423.889 511.223 424.163 512.286C424.344 512.987 424.526 513.688 424.704 514.396C427.845 512.843 430.983 511.296 434.122 509.75C433.476 507.245 432.83 504.739 432.185 502.234C431.261 502.687 430.325 503.151 429.401 503.605C428.301 504.15 427.711 502.572 428.811 502.027C429.798 501.542 430.771 501.06 431.758 500.575C431.532 499.697 431.307 498.819 431.084 497.935C430.807 496.878 432.519 496.024 432.792 497.087C433.018 497.965 433.244 498.843 433.473 499.73C436.799 498.095 440.128 496.454 443.457 494.813C443.139 493.558 442.805 492.305 442.487 491.05C442.211 489.994 443.922 489.14 444.196 490.203C444.52 491.46 444.838 492.715 445.169 493.974C446.402 493.367 447.635 492.761 448.87 492.148C449.976 491.604 450.566 493.182 449.457 493.732C448.17 494.366 446.882 494.999 445.595 495.633C446.235 498.136 446.88 500.641 447.526 503.147C450.664 501.6 453.803 500.054 456.941 498.507C456.477 496.718 456.016 494.937 455.557 493.149C455.281 492.092 456.995 491.232 457.266 492.302C457.73 494.091 458.188 495.879 458.652 497.668C459.64 497.184 460.63 496.692 461.621 496.201C462.727 495.658 463.317 497.236 462.211 497.779C461.166 498.297 460.124 498.809 459.079 499.327C459.788 502.075 460.494 504.829 461.203 507.576C462.255 507.06 463.309 506.537 464.36 506.021C464.369 506.016 464.369 506.016 464.369 506.016L464.372 506.01C465.469 505.485 466.046 507.06 464.953 507.592C464.653 507.741 464.344 507.894 464.038 508.041C463.229 508.442 462.429 508.838 461.633 509.229C461.836 510.033 462.043 510.846 462.253 511.652C462.53 512.709 460.818 513.562 460.545 512.499C460.335 511.693 460.128 510.88 459.924 510.076C459.791 510.137 459.664 510.2 459.527 510.268C456.522 511.753 453.511 513.237 450.503 514.714C451.155 517.25 451.811 519.781 452.463 522.318C453.396 521.86 454.329 521.402 455.262 520.945C456.367 520.401 456.957 521.979 455.852 522.523C454.864 523.007 453.877 523.492 452.892 523.985C453.112 524.861 453.341 525.733 453.567 526.611C453.837 527.666 452.129 528.528 451.858 527.458C451.632 526.58 451.413 525.704 451.178 524.831C447.848 526.472 444.522 528.107 441.193 529.748C441.514 530.996 441.833 532.251 442.154 533.5C442.431 534.556 440.719 535.41 440.446 534.347C440.124 533.098 439.8 531.842 439.482 530.587C438.255 531.195 437.025 531.795 435.792 532.402C434.692 532.947 434.103 531.369 435.202 530.824C436.481 530.195 437.768 529.561 439.049 528.926C438.394 526.395 437.748 523.86 437.087 521.328C433.949 522.874 430.81 524.421 427.672 525.967C428.159 527.86 428.645 529.753 429.132 531.645C429.433 532.695 427.728 533.551 427.448 532.486ZM434.563 511.406C431.428 512.947 428.287 514.499 425.148 516.046C425.855 518.8 426.57 521.549 427.276 524.303C430.414 522.757 433.556 521.204 436.694 519.657C435.979 516.908 435.272 514.154 434.563 511.406ZM440.779 528.078C444.108 526.437 447.434 524.802 450.763 523.161C450.111 520.624 449.456 518.093 448.804 515.556C445.475 517.197 442.146 518.839 438.817 520.48C439.472 523.01 440.127 525.541 440.779 528.078ZM448.381 513.891C447.674 511.137 446.965 508.39 446.259 505.636C442.93 507.277 439.601 508.918 436.272 510.559C436.978 513.313 437.693 516.062 438.393 518.814C441.722 517.173 445.052 515.532 448.381 513.891ZM443.896 496.461C440.566 498.102 437.237 499.743 433.908 501.384C434.554 503.889 435.2 506.395 435.845 508.9C439.174 507.259 442.497 505.616 445.827 503.975C445.187 501.471 444.538 498.972 443.896 496.461ZM450.092 513.052C453.234 511.499 456.372 509.952 459.51 508.406C458.801 505.659 458.088 502.903 457.385 500.157C457.24 500.229 457.095 500.301 456.949 500.374C453.956 501.848 450.963 503.322 447.97 504.797C448.677 507.551 449.386 510.298 450.092 513.052ZM459.51 508.406C458.801 505.659 458.088 502.903 457.385 500.157C457.24 500.229 457.095 500.301 456.949 500.374C453.956 501.848 450.963 503.322 447.97 504.797C448.677 507.551 449.386 510.298 450.092 513.052C453.234 511.499 456.366 509.95 459.51 508.406ZM445.83 503.983C445.184 501.478 444.544 498.974 443.899 496.469C440.57 498.11 437.24 499.751 433.911 501.392C434.557 503.898 435.203 506.403 435.848 508.909C439.174 507.259 442.504 505.618 445.83 503.983ZM448.381 513.891C447.674 511.137 446.965 508.39 446.259 505.636C442.93 507.277 439.601 508.918 436.272 510.559C436.978 513.313 437.693 516.062 438.393 518.814C441.722 517.173 445.052 515.532 448.381 513.891ZM450.766 523.154C450.114 520.617 449.459 518.087 448.807 515.55C445.478 517.191 442.149 518.832 438.82 520.473C439.472 523.01 440.127 525.541 440.773 528.076C444.108 526.437 447.434 524.802 450.766 523.154ZM436.688 519.655C435.979 516.908 435.272 514.154 434.563 511.406C431.428 512.947 428.287 514.499 425.148 516.046C425.855 518.8 426.57 521.549 427.276 524.303C430.414 522.757 433.55 521.202 436.688 519.655ZM445.83 503.983C445.184 501.478 444.544 498.974 443.899 496.469C440.57 498.11 437.24 499.751 433.911 501.392C434.557 503.898 435.203 506.403 435.848 508.909C439.174 507.259 442.504 505.618 445.83 503.983ZM448.381 513.891C447.674 511.137 446.965 508.39 446.259 505.636C442.93 507.277 439.601 508.918 436.272 510.559C436.978 513.313 437.693 516.062 438.393 518.814C441.722 517.173 445.052 515.532 448.381 513.891ZM450.766 523.154C450.114 520.617 449.459 518.087 448.807 515.55C445.478 517.191 442.149 518.832 438.82 520.473C439.472 523.01 440.127 525.541 440.773 528.076C444.108 526.437 447.434 524.802 450.766 523.154ZM436.688 519.655C435.979 516.908 435.272 514.154 434.563 511.406C431.428 512.947 428.287 514.499 425.148 516.046C425.855 518.8 426.57 521.549 427.276 524.303C430.414 522.757 433.55 521.202 436.688 519.655ZM448.381 513.891C447.674 511.137 446.965 508.39 446.259 505.636C442.93 507.277 439.601 508.918 436.272 510.559C436.978 513.313 437.693 516.062 438.393 518.814C441.722 517.173 445.052 515.532 448.381 513.891ZM450.766 523.154C450.114 520.617 449.459 518.087 448.807 515.55C445.478 517.191 442.149 518.832 438.82 520.473C439.472 523.01 440.127 525.541 440.773 528.076C444.108 526.437 447.434 524.802 450.766 523.154ZM436.688 519.655C435.979 516.908 435.272 514.154 434.563 511.406C431.428 512.947 428.287 514.499 425.148 516.046C425.855 518.8 426.57 521.549 427.276 524.303C430.414 522.757 433.55 521.202 436.688 519.655ZM448.381 513.891C447.674 511.137 446.965 508.39 446.259 505.636C442.93 507.277 439.601 508.918 436.272 510.559C436.978 513.313 437.693 516.062 438.393 518.814C441.722 517.173 445.052 515.532 448.381 513.891ZM450.766 523.154C450.114 520.617 449.459 518.087 448.807 515.55C445.478 517.191 442.149 518.832 438.82 520.473C439.472 523.01 440.127 525.541 440.773 528.076C444.108 526.437 447.434 524.802 450.766 523.154ZM436.688 519.655C435.979 516.908 435.272 514.154 434.563 511.406C431.428 512.947 428.287 514.499 425.148 516.046C425.855 518.8 426.57 521.549 427.276 524.303C430.414 522.757 433.55 521.202 436.688 519.655ZM450.766 523.154C450.114 520.617 449.459 518.087 448.807 515.55C445.478 517.191 442.149 518.832 438.82 520.473C439.472 523.01 440.127 525.541 440.773 528.076C444.108 526.437 447.434 524.802 450.766 523.154ZM450.766 523.154C450.114 520.617 449.459 518.087 448.807 515.55C445.478 517.191 442.149 518.832 438.82 520.473C439.472 523.01 440.127 525.541 440.773 528.076C444.108 526.437 447.434 524.802 450.766 523.154ZM450.766 523.154C450.114 520.617 449.459 518.087 448.807 515.55C445.478 517.191 442.149 518.832 438.82 520.473C439.472 523.01 440.127 525.541 440.773 528.076C444.108 526.437 447.434 524.802 450.766 523.154Z" fill="#EAEAEA" fill-opacity="0.08"/>
<path d="M427.273 619.517C427.179 619.502 427.093 619.482 427.001 619.46L427.004 619.453C427.001 619.415 426.994 619.382 427.002 619.348C427.089 619.413 427.181 619.465 427.273 619.517Z" fill="#EAEAEA" fill-opacity="0.08"/>
<path d="M453.759 579.211C452.337 577.938 450.59 576.422 448.631 575.349C446.337 574.089 443.744 573.444 441.041 574.498C442.553 573.296 444.608 573.081 446.277 573.351C447.178 573.503 448.018 573.755 448.81 574.095C451.826 575.362 454.133 577.812 455.955 580.411C456.387 581.089 456.81 581.771 457.185 582.482C456.021 581.439 454.926 580.263 453.759 579.211ZM445.573 596.924C443.318 596.217 441.335 594.892 439.348 593.758C437.008 592.187 433.99 592.415 431.003 593.305C429.51 593.75 428.025 594.361 426.635 594.994C427.874 594.002 429.308 593.108 430.817 592.446C433.771 591.124 437.007 590.653 439.601 591.95C441.507 592.999 443.827 594.6 445.766 595.578C445.775 595.588 445.794 595.594 445.806 595.598C447.515 596.481 449.395 597.069 451.497 596.587C451.646 596.553 451.805 596.515 451.963 596.461C452.009 596.453 452.061 596.433 452.1 596.423C452.03 596.468 451.963 596.506 451.906 596.539C451.767 596.717 451.622 596.894 451.474 597.062C451.491 596.963 451.49 596.859 451.492 596.764C450.577 597.222 449.549 597.451 448.562 597.442C447.495 597.422 446.508 597.228 445.573 596.924ZM428.612 608.981C426.679 607.976 425.084 606.359 424.014 604.613C425.531 605.864 427.284 607.109 429.209 607.845C431.161 608.597 433.309 608.819 435.581 607.984C438.424 607.115 441.399 606.021 444.29 605.93C444.926 605.91 445.565 605.942 446.196 606.038C447.32 606.239 448.344 606.764 449.025 607.557L449.022 607.564C449.04 607.584 449.065 607.607 449.083 607.628C449.062 607.614 449.034 607.597 449.01 607.59C447.552 606.757 445.87 606.713 444.137 607.008C443.648 607.09 443.154 607.2 442.657 607.331C440.325 607.932 437.289 609.081 434.946 609.752C432.644 610.348 430.472 609.949 428.612 608.981ZM433.356 628.623C435.772 629.574 438.564 628.815 441.237 627.448C443.508 626.294 445.701 624.701 447.494 623.366C448.835 622.369 450.149 621.26 451.478 620.244C451.605 620.136 451.741 620.039 451.872 619.939C451.712 620.133 451.546 620.34 451.389 620.527C450.951 621.047 450.498 621.555 450.042 622.07C447.475 624.759 444.452 627.311 441.061 628.71C440.163 629.085 439.249 629.373 438.303 629.562C436.54 629.906 434.536 629.767 433.356 628.623ZM440.373 633.528C440.373 633.528 440.391 633.519 440.427 633.501C440.686 633.368 441.805 632.79 443.467 631.872C449.001 628.805 460.508 621.966 465.334 615.564C467.049 613.286 469.811 611.999 472.374 612.33C473.237 612.441 474.08 612.611 474.755 612.87C474.849 610.781 475.071 607.867 475.566 604.41C476.069 600.844 476.865 596.69 478.12 592.259C475.453 594.072 472.125 594.787 468.04 588.412C466.715 586.348 459.005 574.305 452.877 569.289C451.887 568.479 450.939 567.852 450.069 567.481C449.968 567.441 449.867 567.401 449.772 567.364C448.719 566.963 447.586 566.767 446.378 566.792C440.513 566.91 434.792 572.251 432.076 579.522C432.412 579.525 432.758 579.538 433.091 579.562C438.313 579.892 443.231 581.791 447.332 584.499C448.117 585.007 448.863 585.554 449.584 586.123C449.599 586.136 449.609 586.146 449.624 586.158C451.11 587.266 452.58 588.71 453.908 589.975C452.666 588.981 451.33 587.869 449.963 586.947C449.738 586.794 449.504 586.646 449.276 586.5C448.614 586.06 447.928 585.643 447.224 585.249C442.912 582.831 437.9 581.316 432.619 581.39C432.227 581.399 431.836 581.408 431.436 581.437C430.868 581.464 430.296 581.513 429.723 581.583C424.567 585.473 420.502 592.435 419.385 600.324C418.132 609.162 420.927 616.684 426.009 619.962C426.095 620.018 426.191 620.071 426.277 620.128C426.274 620.134 426.289 620.132 426.289 620.132C429.16 620.738 432.329 620.669 435.375 620.198C436.489 619.951 438.231 619.637 439.315 619.269C439.532 619.212 439.745 619.146 439.958 619.081C439.964 619.083 439.964 619.083 439.967 619.076C440.815 618.826 441.68 618.523 442.541 618.196C443.433 617.864 444.322 617.509 445.168 617.17L448.983 615.357L445.263 617.437C444.372 617.873 443.423 618.328 442.465 618.757C441.455 619.222 440.429 619.645 439.445 619.992C438.017 620.524 436.57 620.962 435.112 621.299C434.832 621.373 434.551 621.433 434.264 621.49C431.519 622.056 428.748 622.252 426.082 621.947C426.704 629.18 430.92 634.361 436.791 634.244C438.005 634.222 439.203 633.972 440.373 633.528Z" fill="#EAEAEA" fill-opacity="0.08"/>
<path d="M343.301 612.678L343.275 612.669C342.227 612.315 341.748 611.288 341.908 610.239C342.177 610.471 342.499 610.651 342.855 610.771L402.972 630.403C403.842 630.681 404.794 630.577 405.665 630.115C406.122 629.875 406.533 629.542 406.874 629.153L406.893 629.324C406.992 630.499 406.274 631.588 405.3 632.102C404.708 632.415 404.034 632.518 403.383 632.306L343.301 612.678Z" fill="#EAEAEA" fill-opacity="0.08"/>
<path d="M342.492 610.015C342.264 609.943 342.075 609.816 341.941 609.648C341.729 609.387 341.645 609.019 341.703 608.651C341.749 608.383 341.884 607.988 342.308 607.639L395.597 563.585C395.701 563.499 395.823 563.419 395.951 563.356C396.3 563.183 396.685 563.149 397.03 563.258C397.5 563.406 397.786 563.779 397.832 564.277L402.919 626.152C402.934 626.379 402.902 626.585 402.825 626.798C402.806 626.837 402.798 626.871 402.78 626.91C402.623 627.247 402.337 627.543 401.988 627.73C401.731 627.857 401.336 627.992 400.876 627.854L342.499 610.017L342.492 610.015Z" fill="#EAEAEA" fill-opacity="0.08"/>
<path d="M426.162 675.229C426.197 675.38 426.348 676.071 426.604 677.306C426.525 677.008 426.458 676.713 426.37 676.418C426.347 676.271 426.324 676.123 426.301 675.975C426.214 675.556 426.169 675.305 426.162 675.229Z" fill="#EAEAEA" fill-opacity="0.08"/>
<path d="M413.89 679.673L416.844 674.964C417.081 674.588 417.603 674.494 417.842 674.799L420.763 678.436C420.843 678.217 420.923 677.983 421.019 677.761C422.389 674.269 425.831 670.833 429.175 669.1C433.124 667.047 436.441 667.179 440.287 667.753C435.501 667.037 441.115 667.682 442.315 667.692C443.324 667.701 444.331 667.671 445.349 667.601C444.744 667.706 444.133 667.794 443.528 667.869C444.784 667.726 446.04 667.583 447.293 667.432C446.648 667.502 445.997 667.555 445.349 667.601C447.609 667.236 449.842 666.684 452.074 665.969C451.343 666.285 450.615 666.581 449.875 666.857C451.145 666.378 452.416 665.899 453.684 665.427C453.15 665.621 452.617 665.8 452.08 665.971C454.273 665.021 456.396 663.916 458.463 662.659C460.397 661.22 462.219 659.656 463.942 657.957C463.461 658.523 462.962 659.084 462.454 659.634C463.374 658.651 464.287 657.666 465.207 656.684C464.795 657.116 464.372 657.545 463.948 657.959C464.878 656.876 465.754 655.76 466.586 654.602C467.116 653.866 467.604 653.102 468.094 652.346C467.939 652.652 467.774 652.948 467.605 653.25C468.327 652.042 468.723 651.352 468.814 651.203C468.765 651.277 468.618 651.519 468.372 651.93C468.278 652.071 468.185 652.212 468.101 652.348C468.185 652.182 468.275 652.018 468.358 651.852C472.298 644.284 479.891 639.985 487.627 641.844C487.912 641.912 488.197 641.995 488.471 642.089L487.897 636.743C487.853 636.337 488.252 635.945 488.666 635.994L493.732 636.532C494.206 636.587 494.338 637.154 493.965 637.518L489.076 642.317C495.059 644.784 498.195 652.927 494.766 659.5C488.38 671.775 478.883 682.012 466.562 688.828C460.884 691.971 454.49 694.346 448.355 695.402C441.176 696.632 434.964 696.456 428.164 695.435C424.588 694.902 421.996 691.666 420.606 688.677C419.341 685.95 419.495 682.65 420.432 679.516L414.413 680.521C413.905 680.597 413.61 680.111 413.89 679.673Z" fill="#EAEAEA" fill-opacity="0.08"/>
</svg>
