<svg width="0" height="0" class="hidden">
  <symbol fill="none" xmlns="http://www.w3.org/2000/svg" viewBox="0 0 36 37" id="facebook">
    <path d="M35.9974 18.1784C35.9974 8.23731 27.9398 0.179688 17.9987 0.179688C8.05762 0.179688 0 8.23731 0 18.1784C0 27.1623 6.58184 34.6084 15.1864 35.9578V23.3799H10.6171V18.1758H15.1864V14.2102C15.1864 9.70022 17.8723 7.20785 21.9849 7.20785C23.9535 7.20785 26.0151 7.55875 26.0151 7.55875V11.9888H23.7446C21.5076 11.9888 20.811 13.3768 20.811 14.7985V18.1758H25.8035L25.0062 23.3799H20.8136V35.9578C29.4182 34.6084 36 27.1623 36 18.1784H35.9974Z" fill="currentColor"></path>
    <path d="M25.0034 23.3829L25.8006 18.1789H20.8082V14.8016C20.8082 13.3774 21.5048 11.9918 23.7417 11.9918H26.0122V7.56183C26.0122 7.56183 23.9533 7.21094 21.9821 7.21094C17.8694 7.21094 15.1836 9.70331 15.1836 14.2133V18.1789H10.6143V23.3829H15.1836V35.9609C16.0995 36.1054 17.0386 36.1802 17.9959 36.1802C18.9531 36.1802 19.8923 36.1054 20.8082 35.9609V23.3829H25.0008H25.0034Z" fill="white"></path>
  </symbol>
</svg>
