<svg width="0" height="0" class="hidden">
  <symbol xmlns="http://www.w3.org/2000/svg" fill="none" viewBox="0 0 24 25" id="filter">
    <path fill-rule="evenodd" clip-rule="evenodd" d="M2.32137 4.1807C2.44507 3.9178 2.70947 3.75 3.00001 3.75H21C21.2905 3.75 21.555 3.9178 21.6786 4.1807C21.8023 4.44359 21.7631 4.75427 21.5779 4.97812L14.75 13.2301V21.5C14.75 21.7599 14.6154 22.0013 14.3943 22.138C14.1732 22.2746 13.8971 22.2871 13.6646 22.1708L9.6646 20.1708C9.41051 20.0438 9.25001 19.7841 9.25001 19.5V13.2301L2.42217 4.97812C2.23695 4.75427 2.19768 4.44359 2.32137 4.1807ZM4.59403 5.25L10.5779 12.4819C10.6891 12.6164 10.75 12.7854 10.75 12.96V19.0365L13.25 20.2865V12.96C13.25 12.7854 13.3109 12.6164 13.4222 12.4819L19.406 5.25H4.59403Z" fill="currentColor"></path>
  </symbol>
</svg>
