<svg width="0" height="0" class="hidden">
  <symbol fill="none" xmlns="http://www.w3.org/2000/svg" viewBox="0 0 73 15" id="gigaprog-logo-white">
    <path d="M6.17714 5.47937H11.7886C11.7886 6.02293 11.7646 6.51666 11.7165 6.96057C11.6684 7.40447 11.5722 7.81667 11.428 8.19716C11.226 8.73166 10.9519 9.20727 10.6057 9.624C10.2595 10.0317 9.85079 10.3759 9.37957 10.6568C8.91796 10.9285 8.40826 11.1369 7.85048 11.2818C7.2927 11.4268 6.70607 11.4993 6.09059 11.4993C5.2443 11.4993 4.47014 11.3679 3.76811 11.1052C3.07569 10.8425 2.47944 10.4756 1.97937 10.0045C1.47929 9.52434 1.0898 8.95361 0.810913 8.29228C0.532023 7.62189 0.392578 6.88356 0.392578 6.07728C0.392578 5.28007 0.527215 4.55079 0.796488 3.88947C1.07538 3.21908 1.46486 2.64834 1.96494 2.17726C2.47464 1.70618 3.08531 1.33928 3.79696 1.07656C4.50861 0.813838 5.302 0.682478 6.17714 0.682478C7.31193 0.682478 8.30728 0.91349 9.16319 1.37551C10.0191 1.83754 10.6971 2.55322 11.1972 3.52257L8.51405 4.56891C8.26401 4.00724 7.93703 3.6041 7.53312 3.3595C7.13883 3.1149 6.68684 2.9926 6.17714 2.9926C5.754 2.9926 5.36932 3.0696 5.02311 3.22361C4.67691 3.36856 4.37878 3.58145 4.12874 3.86229C3.88832 4.13407 3.69598 4.46473 3.55173 4.85428C3.41709 5.24383 3.34977 5.67868 3.34977 6.15882C3.34977 6.59366 3.40748 6.9968 3.52288 7.36823C3.6479 7.73966 3.83062 8.06127 4.07104 8.33305C4.31146 8.60483 4.60959 8.81772 4.96541 8.97173C5.32124 9.11668 5.73476 9.18915 6.20599 9.18915C6.48488 9.18915 6.75415 9.16197 7.01381 9.10762C7.27347 9.0442 7.50427 8.94908 7.70623 8.82225C7.9178 8.68636 8.0909 8.51423 8.22554 8.30587C8.36018 8.09751 8.45154 7.84385 8.49962 7.54489H6.17714V5.47937Z" fill="white"></path>
    <path d="M15.9414 4.24278V11.2139H13.3304V4.24278H15.9414ZM13.1573 1.56576C13.1573 1.37551 13.1958 1.19886 13.2727 1.03579C13.3497 0.863664 13.4554 0.714186 13.5901 0.587355C13.7247 0.460525 13.8786 0.360873 14.0517 0.288399C14.2344 0.215925 14.4267 0.179688 14.6287 0.179688C14.8307 0.179688 15.0182 0.215925 15.1913 0.288399C15.374 0.360873 15.5327 0.460525 15.6673 0.587355C15.802 0.714186 15.9077 0.863664 15.9847 1.03579C16.0616 1.19886 16.1001 1.37551 16.1001 1.56576C16.1001 1.756 16.0616 1.93719 15.9847 2.10932C15.9077 2.27238 15.802 2.41733 15.6673 2.54416C15.5327 2.67099 15.374 2.77064 15.1913 2.84312C15.0182 2.91559 14.8307 2.95183 14.6287 2.95183C14.4267 2.95183 14.2344 2.91559 14.0517 2.84312C13.8786 2.77064 13.7247 2.67099 13.5901 2.54416C13.4554 2.41733 13.3497 2.27238 13.2727 2.10932C13.1958 1.93719 13.1573 1.756 13.1573 1.56576Z" fill="white"></path>
    <path d="M20.1491 7.69437C20.1491 7.92085 20.1924 8.13374 20.2789 8.33305C20.3655 8.52329 20.4809 8.69089 20.6251 8.83584C20.779 8.98079 20.9569 9.09403 21.1589 9.17556C21.3704 9.2571 21.5964 9.29786 21.8369 9.29786C22.0677 9.29786 22.284 9.2571 22.486 9.17556C22.6976 9.09403 22.8755 8.98079 23.0197 8.83584C23.1736 8.69089 23.2938 8.52329 23.3804 8.33305C23.4765 8.13374 23.5246 7.92538 23.5246 7.70796C23.5246 7.48147 23.4765 7.27311 23.3804 7.08287C23.2938 6.89262 23.1736 6.72502 23.0197 6.58008C22.8659 6.43513 22.6832 6.32189 22.4716 6.24035C22.2696 6.15882 22.0581 6.11805 21.8369 6.11805C21.6061 6.11805 21.3897 6.16335 21.1877 6.25394C20.9858 6.33548 20.8079 6.44872 20.654 6.59366C20.5001 6.72955 20.3751 6.89262 20.2789 7.08287C20.1924 7.27311 20.1491 7.47695 20.1491 7.69437ZM26.0058 4.24278V10.7383C26.0058 11.1278 25.9817 11.4766 25.9337 11.7846C25.8856 12.0927 25.8183 12.3644 25.7317 12.6C25.6163 12.8989 25.4336 13.1752 25.1835 13.4289C24.9431 13.6916 24.6498 13.9181 24.3036 14.1083C23.9574 14.2986 23.5631 14.4481 23.1207 14.5568C22.688 14.6655 22.2167 14.7198 21.707 14.7198C21.13 14.7198 20.6011 14.6519 20.1203 14.516C19.6394 14.3801 19.2163 14.1899 18.8508 13.9453C18.495 13.7097 18.2017 13.4289 17.9709 13.1028C17.7401 12.7857 17.5862 12.4369 17.5093 12.0564H20.452C20.6348 12.5184 21.0483 12.7495 21.6926 12.7495C22.2408 12.7495 22.6591 12.6045 22.9476 12.3146C23.2457 12.0247 23.3948 11.6216 23.3948 11.1052V10.4393C23.2025 10.6115 23.0149 10.7564 22.8322 10.8742C22.6591 10.9829 22.4812 11.0735 22.2985 11.146C22.1158 11.2184 21.9234 11.2683 21.7215 11.2954C21.5195 11.3317 21.2983 11.3498 21.0579 11.3498C20.529 11.3498 20.0433 11.2637 19.6009 11.0916C19.1586 10.9195 18.7739 10.6794 18.4469 10.3714C18.1296 10.0634 17.8795 9.69647 17.6968 9.27068C17.5237 8.83584 17.4371 8.3557 17.4371 7.83026C17.4371 7.29576 17.5333 6.80203 17.7256 6.34906C17.918 5.88704 18.1776 5.48843 18.5046 5.15324C18.8412 4.80898 19.2355 4.54174 19.6875 4.35149C20.1491 4.15219 20.6492 4.05253 21.1877 4.05253C22.0629 4.05253 22.7986 4.36055 23.3948 4.97658V4.24278H26.0058Z" fill="white"></path>
    <path d="M30.3624 7.70796C30.3624 7.93444 30.4056 8.14733 30.4922 8.34664C30.5787 8.53688 30.6941 8.70448 30.8384 8.84943C30.9923 8.99438 31.1702 9.10762 31.3721 9.18915C31.5837 9.27068 31.8097 9.31145 32.0501 9.31145C32.2809 9.31145 32.4973 9.27068 32.6993 9.18915C32.9108 9.10762 33.0887 8.99438 33.233 8.84943C33.3869 8.70448 33.5071 8.53688 33.5936 8.34664C33.6898 8.15639 33.7379 7.95256 33.7379 7.73513C33.7379 7.51771 33.6898 7.31388 33.5936 7.12363C33.5071 6.92433 33.3869 6.7522 33.233 6.60725C33.0887 6.4623 32.9108 6.34906 32.6993 6.26753C32.4973 6.186 32.2809 6.14523 32.0501 6.14523C31.8097 6.14523 31.5837 6.186 31.3721 6.26753C31.1702 6.34906 30.9923 6.4623 30.8384 6.60725C30.6941 6.7522 30.5787 6.9198 30.4922 7.11004C30.4056 7.29123 30.3624 7.49053 30.3624 7.70796ZM33.6513 4.24278H36.2767V11.2139H33.6513V10.4393C33.0936 11.1007 32.3386 11.4313 31.3866 11.4313C30.848 11.4313 30.3527 11.3407 29.9007 11.1595C29.4487 10.9693 29.0545 10.7066 28.7179 10.3714C28.3813 10.0362 28.1168 9.64211 27.9245 9.18915C27.7418 8.73619 27.6504 8.24246 27.6504 7.70796C27.6504 7.2097 27.7418 6.73861 27.9245 6.29471C28.1072 5.84174 28.362 5.44766 28.689 5.11247C29.016 4.77728 29.4055 4.51456 29.8575 4.32431C30.3095 4.12501 30.8095 4.02536 31.3577 4.02536C32.2809 4.02536 33.0455 4.32884 33.6513 4.93581V4.24278Z" fill="white"></path>
    <path d="M41.0139 5.67052H41.9515C42.9902 5.67052 43.5095 5.24474 43.5095 4.39316C43.5095 3.54159 42.9902 3.1158 41.9515 3.1158H41.0139V5.67052ZM41.0139 11.2148H38.1865V0.96875H42.6872C43.9086 0.96875 44.8414 1.26771 45.4857 1.86562C46.1397 2.46353 46.4667 3.30605 46.4667 4.39316C46.4667 5.48028 46.1397 6.32279 45.4857 6.9207C44.8414 7.51862 43.9086 7.81757 42.6872 7.81757H41.0139V11.2148Z" fill="#FF2D20"></path>
    <path d="M47.7178 4.24368H50.3288V5.38515C50.6077 4.96843 50.9491 4.65135 51.353 4.43393C51.7569 4.20745 52.2282 4.0942 52.7667 4.0942C52.834 4.0942 52.9062 4.0942 52.9831 4.0942C53.0696 4.0942 53.1658 4.10326 53.2716 4.12138V6.47227C52.9254 6.3092 52.5503 6.22767 52.1464 6.22767C51.5406 6.22767 51.0838 6.39979 50.776 6.74405C50.4779 7.07924 50.3288 7.57297 50.3288 8.22524V11.2148H47.7178V4.24368Z" fill="#FF2D20"></path>
    <path d="M56.9605 7.69527C56.9605 7.93082 57.0038 8.14824 57.0904 8.34754C57.1865 8.53779 57.3067 8.70538 57.451 8.85033C57.6049 8.99528 57.7828 9.10852 57.9847 9.19006C58.1963 9.27159 58.4175 9.31236 58.6483 9.31236C58.8791 9.31236 59.0955 9.27159 59.2974 9.19006C59.509 9.10852 59.6869 8.99528 59.8312 8.85033C59.9851 8.70538 60.1053 8.53779 60.1918 8.34754C60.288 8.14824 60.3361 7.93535 60.3361 7.70886C60.3361 7.49144 60.288 7.28761 60.1918 7.09736C60.1053 6.89806 59.9851 6.72593 59.8312 6.58098C59.6869 6.43603 59.509 6.32279 59.2974 6.24126C59.0955 6.15972 58.8791 6.11896 58.6483 6.11896C58.4175 6.11896 58.1963 6.15972 57.9847 6.24126C57.7828 6.32279 57.6049 6.43603 57.451 6.58098C57.3067 6.72593 57.1865 6.89353 57.0904 7.08377C57.0038 7.27402 56.9605 7.47785 56.9605 7.69527ZM54.2053 7.6681C54.2053 7.15172 54.3159 6.67157 54.5371 6.22767C54.7583 5.7747 55.066 5.38515 55.4603 5.05902C55.8546 4.72383 56.321 4.46111 56.8596 4.27086C57.4077 4.08062 58.004 3.98549 58.6483 3.98549C59.283 3.98549 59.8697 4.08062 60.4082 4.27086C60.9564 4.45205 61.4276 4.71024 61.8219 5.04543C62.2258 5.37156 62.5383 5.76564 62.7595 6.22767C62.9807 6.68063 63.0913 7.18342 63.0913 7.73604C63.0913 8.28866 62.9759 8.79598 62.7451 9.258C62.5239 9.71097 62.2162 10.105 61.8219 10.4402C61.4276 10.7664 60.9516 11.02 60.3938 11.2012C59.8456 11.3824 59.2494 11.473 58.605 11.473C57.9703 11.473 57.3837 11.3824 56.8451 11.2012C56.3066 11.02 55.8402 10.7618 55.4459 10.4267C55.0612 10.0915 54.7583 9.69285 54.5371 9.23082C54.3159 8.75974 54.2053 8.23883 54.2053 7.6681Z" fill="#FF2D20"></path>
    <path d="M67.0178 7.69527C67.0178 7.92176 67.0611 8.13465 67.1477 8.33395C67.2342 8.5242 67.3496 8.6918 67.4939 8.83674C67.6477 8.98169 67.8256 9.09493 68.0276 9.17647C68.2392 9.258 68.4652 9.29877 68.7056 9.29877C68.9364 9.29877 69.1528 9.258 69.3547 9.17647C69.5663 9.09493 69.7442 8.98169 69.8885 8.83674C70.0423 8.6918 70.1625 8.5242 70.2491 8.33395C70.3453 8.13465 70.3934 7.92629 70.3934 7.70886C70.3934 7.48238 70.3453 7.27402 70.2491 7.08377C70.1625 6.89353 70.0423 6.72593 69.8885 6.58098C69.7346 6.43603 69.5519 6.32279 69.3403 6.24126C69.1383 6.15972 68.9268 6.11896 68.7056 6.11896C68.4748 6.11896 68.2584 6.16425 68.0564 6.25485C67.8545 6.33638 67.6766 6.44962 67.5227 6.59457C67.3688 6.73046 67.2438 6.89353 67.1477 7.08377C67.0611 7.27402 67.0178 7.47785 67.0178 7.69527ZM72.8745 4.24368V10.7392C72.8745 11.1287 72.8505 11.4775 72.8024 11.7855C72.7543 12.0936 72.687 12.3653 72.6004 12.6009C72.485 12.8998 72.3023 13.1761 72.0523 13.4298C71.8118 13.6925 71.5185 13.919 71.1723 14.1093C70.8261 14.2995 70.4318 14.449 69.9894 14.5577C69.5567 14.6664 69.0855 14.7208 68.5758 14.7208C67.9987 14.7208 67.4698 14.6528 66.989 14.5169C66.5081 14.381 66.085 14.1908 65.7195 13.9462C65.3637 13.7106 65.0704 13.4298 64.8396 13.1037C64.6088 12.7866 64.4549 12.4378 64.378 12.0573H67.3208C67.5035 12.5193 67.917 12.7504 68.5613 12.7504C69.1095 12.7504 69.5278 12.6054 69.8163 12.3155C70.1145 12.0256 70.2635 11.6225 70.2635 11.1061V10.4402C70.0712 10.6124 69.8837 10.7573 69.7009 10.8751C69.5278 10.9838 69.3499 11.0744 69.1672 11.1469C68.9845 11.2193 68.7921 11.2692 68.5902 11.2963C68.3882 11.3326 68.167 11.3507 67.9266 11.3507C67.3977 11.3507 66.912 11.2646 66.4697 11.0925C66.0273 10.9204 65.6426 10.6803 65.3156 10.3723C64.9983 10.0643 64.7482 9.69738 64.5655 9.27159C64.3924 8.83674 64.3059 8.3566 64.3059 7.83116C64.3059 7.29666 64.402 6.80293 64.5944 6.34997C64.7867 5.88795 65.0464 5.48934 65.3733 5.15414C65.7099 4.80989 66.1042 4.54264 66.5562 4.3524C67.0178 4.15309 67.5179 4.05344 68.0564 4.05344C68.9316 4.05344 69.6673 4.36145 70.2635 4.97749V4.24368H72.8745Z" fill="#FF2D20"></path>
  </symbol>
</svg>
