<svg width="0" height="0" class="hidden">
  <symbol fill="none" xmlns="http://www.w3.org/2000/svg" viewBox="0 0 36 37" id="instagram">
    <path d="M18 36.1797C27.9411 36.1797 36 28.1208 36 18.1797C36 8.23856 27.9411 0.179688 18 0.179688C8.05888 0.179688 0 8.23856 0 18.1797C0 28.1208 8.05888 36.1797 18 36.1797Z" fill="currentColor"></path>
    <path d="M23.5871 11.3711C22.9033 11.3711 22.3486 11.9258 22.3486 12.6096C22.3486 13.2934 22.9033 13.8482 23.5871 13.8482C24.2709 13.8482 24.8257 13.2934 24.8257 12.6096C24.8257 11.9258 24.2709 11.3711 23.5871 11.3711Z" fill="white"></path>
    <path d="M18.0864 12.957C15.2197 12.957 12.8896 15.2896 12.8896 18.1537C12.8896 21.0178 15.2223 23.3504 18.0864 23.3504C20.9505 23.3504 23.283 21.0178 23.283 18.1537C23.283 15.2896 20.9505 12.957 18.0864 12.957ZM18.0864 21.4848C16.2492 21.4848 14.7578 19.9909 14.7578 18.1563C14.7578 16.3217 16.2518 14.8277 18.0864 14.8277C19.9209 14.8277 21.4149 16.3217 21.4149 18.1563C21.4149 19.9909 19.9209 21.4848 18.0864 21.4848Z" fill="white"></path>
    <path d="M22.2112 28.7082H13.784C10.2878 28.7082 7.44434 25.8647 7.44434 22.3685V13.9413C7.44434 10.445 10.2878 7.60156 13.784 7.60156H22.2112C25.7075 7.60156 28.551 10.445 28.551 13.9413V22.3685C28.551 25.8647 25.7075 28.7082 22.2112 28.7082ZM13.784 9.58837C11.3844 9.58837 9.43114 11.5416 9.43114 13.9413V22.3685C9.43114 24.7681 11.3844 26.7214 13.784 26.7214H22.2112C24.6109 26.7214 26.5641 24.7681 26.5641 22.3685V13.9413C26.5641 11.5391 24.6109 9.58837 22.2112 9.58837H13.784Z" fill="white"></path>
  </symbol>
</svg>
