<svg width="0" height="0" class="hidden">
  <symbol fill="none" xmlns="http://www.w3.org/2000/svg" viewBox="0 0 137 149" id="like-red">
    <path d="M67.2749 3.59001L1.58043 97.7164C0.969074 98.5918 0.53594 99.5792 0.305776 100.622C0.0756121 101.665 0.0529296 102.744 0.239024 103.796C0.425119 104.847 0.816344 105.852 1.39035 106.753C1.96435 107.653 2.70989 108.431 3.58436 109.043L58.4121 147.42C60.1784 148.656 62.3626 149.139 64.4841 148.762C66.6057 148.385 68.4909 147.18 69.7252 145.411L92.406 112.915L109.029 109.962C110.091 109.775 111.105 109.381 112.015 108.801C112.924 108.221 113.71 107.467 114.327 106.582C114.945 105.698 115.383 104.7 115.615 103.646C115.847 102.592 115.87 101.502 115.681 100.439L112.732 83.7922L135.415 51.2963C136.649 49.5276 137.131 47.3407 136.755 45.2163C136.379 43.092 135.176 41.2039 133.411 39.9672L78.5857 1.58325C77.7116 0.971019 76.7255 0.53727 75.6839 0.30678C74.6423 0.0762894 73.5655 0.0535747 72.5152 0.239933C71.4648 0.426292 70.4614 0.818071 69.5622 1.39289C68.6631 1.96771 67.8859 2.7143 67.2749 3.59001Z" fill="#C51D18"></path>
    <path d="M52.3161 65.7626C52.0724 63.7513 51.7605 61.7764 51.6125 59.7902C51.2299 54.6205 52.5871 49.9388 55.8799 45.907C60.8897 39.7499 69.4428 37.5493 76.9917 40.3086C82.8736 42.4591 86.8656 46.5729 89.5162 52.1371C91.9118 57.1654 93.1847 62.513 93.9886 67.9883C95.0156 74.9846 95.2524 82.0265 94.9974 89.0867C94.8607 92.9246 93.0253 95.7455 89.4729 97.2164C81.6758 100.45 73.6738 103.038 65.3143 104.381C60.1496 105.211 54.9554 105.583 49.7862 104.507C41.6202 102.806 35.9773 98.0715 33.5225 90.0217C30.7238 80.8407 35.6608 71.0372 44.6124 67.4456C47.0699 66.4645 49.6717 65.8944 52.3138 65.758M79.7972 46.2628C78.7269 45.6972 77.6817 45.0747 76.5818 44.573C74.6548 43.6803 72.5578 43.2154 70.4347 43.2101C68.3115 43.2048 66.2122 43.6592 64.2808 44.5423C62.3494 45.4253 60.6314 46.7161 59.2447 48.3261C57.858 49.9362 56.8352 51.8274 56.2465 53.8702C54.9986 58.203 55.6203 62.4104 57.4717 66.4125C58.4463 68.5219 57.2667 70.1478 55.0351 69.8924C52.7419 69.6302 50.4556 69.9244 48.2172 70.5195C40.6729 72.5218 35.8657 79.6412 37.043 87.1027C38.0518 93.4879 43.1208 98.7807 49.7178 100.318C54.1492 101.353 58.6125 101.18 63.0712 100.566C71.5538 99.4033 79.6241 96.7785 87.5396 93.6019C89.7735 92.7057 90.969 91.0934 90.9235 88.7036C90.8256 83.5202 90.821 78.3254 90.4681 73.158C90.0536 67.1263 88.9287 61.1972 86.5968 55.5669C85.0939 51.9182 83.0923 48.639 79.8108 46.2582" fill="white"></path>
  </symbol>
</svg>
