<svg width="0" height="0" class="hidden">
  <symbol fill="none" xmlns="http://www.w3.org/2000/svg" viewBox="0 0 150 119" id="like-blue">
    <path d="M31.7447 0.393282L144.177 36.1541C146.287 36.8264 148.045 38.3085 149.063 40.2752C150.082 42.2419 150.279 44.5324 149.61 46.644L128.757 112.229C128.085 114.34 126.602 116.097 124.636 117.116C122.669 118.134 120.378 118.331 118.267 117.663L79.4402 105.313L64.0105 113.302C62.0225 114.33 59.7076 114.527 57.5746 113.849C55.4417 113.171 53.6654 111.673 52.6362 109.686L44.6496 94.2488L5.82526 81.9066C4.77926 81.5754 3.80885 81.0411 2.96958 80.3344C2.13031 79.6277 1.43865 78.7624 0.934205 77.788C0.429758 76.8137 0.122423 75.7494 0.0297915 74.6561C-0.0628398 73.5629 0.0610515 72.4621 0.394374 71.4167L21.2477 5.82416C21.9194 3.7135 23.4016 1.95586 25.3685 0.937502C27.3355 -0.0808539 29.6263 -0.2766 31.7376 0.393282" fill="#1F6EB6"></path>
    <path d="M90.2636 28.9293C90.8263 29.3346 91.4223 29.6994 91.9444 30.1523C94.3046 32.2026 95.1509 34.8132 94.6884 37.8671C94.338 40.1797 93.3391 42.2419 92.0374 44.1444C90.4853 46.414 88.8236 48.6073 87.2692 50.8698C86.7352 51.6422 86.3609 52.5243 85.8722 53.4326C87.2788 53.6711 88.5328 53.8451 89.7749 54.0954C93.5894 54.8655 97.3419 55.8668 100.653 58.0363C102.661 59.3523 104.229 61.0259 104.732 63.4814C105.209 65.7868 104.57 67.799 103.152 69.6013C103.026 69.7361 102.938 69.9014 102.896 70.0809C102.854 70.2603 102.86 70.4476 102.913 70.6241C103.757 73.9618 102.646 77.0086 99.8404 79.0017C99.6163 79.1439 99.431 79.3394 99.3008 79.5707C99.1706 79.802 99.0996 80.0618 99.0942 80.3272C98.8081 83.5051 97.2227 85.8701 94.4023 87.3387C94.0794 87.486 93.7917 87.7008 93.5585 87.9684C93.3254 88.2361 93.1522 88.5506 93.0506 88.8907C91.9229 92.0782 89.5341 93.8353 86.2584 94.4265C83.4667 94.9295 80.7059 94.6148 78.031 93.8043C72.8171 92.226 67.8249 90.0756 62.8184 87.9371C59.4473 86.4924 56.1645 84.8378 52.8435 83.2882C52.6885 83.2167 52.5478 83.1189 52.3976 83.0498C51.6133 82.6493 50.8885 82.2654 49.8968 82.4252C49.1029 82.5491 48.1969 82.356 47.4126 82.089C44.8831 81.2212 42.3798 80.2676 39.8766 79.3259C36.6724 78.1339 35.2229 74.9511 36.4102 71.7255C38.8967 64.9691 41.4167 58.227 43.8842 51.461C45.0333 48.2974 48.2637 46.6595 51.4106 47.8277C54.1189 48.8338 56.8344 49.8208 59.5164 50.8817C60.2054 51.1535 60.7919 51.678 61.4928 52.1286C61.9038 51.731 62.3436 51.3644 62.8088 51.0319C63.8793 50.3548 64.995 49.7493 66.0893 49.1127C67.4244 48.3355 68.8453 47.6823 70.0778 46.7549C74.7887 43.2456 78.8654 39.0544 82.7133 34.6439C82.9094 34.3727 83.0437 34.0619 83.1067 33.7332C83.4402 32.3684 84.0424 31.0838 84.878 29.9545C85.2846 29.3961 85.8255 28.9493 86.4506 28.6555C87.0757 28.3617 87.7648 28.2304 88.4541 28.2737L90.2469 28.9365M54.3788 80.0053C57.7403 81.5502 61.0828 83.2143 64.5277 84.6352C69.2529 86.5822 74.021 88.4219 78.8321 90.1543C80.8962 90.9015 83.1116 91.1331 85.2857 90.829C87.4647 90.531 89.515 89.3508 89.8416 86.397C89.8667 86.001 90.0125 85.6222 90.2593 85.3115C90.506 85.0008 90.842 84.7731 91.222 84.659C91.4604 84.578 91.6988 84.4969 91.9372 84.4039C94.2808 83.4861 95.6087 81.5836 95.4036 79.1948C95.294 77.8859 95.7517 77.0944 96.8913 76.4817C99.3063 75.1895 100.031 73.2155 99.037 70.6527C98.584 69.4916 98.7985 68.6596 99.7069 67.8347C101.714 66.0276 101.669 63.6698 99.6449 61.896C98.3337 60.7493 96.7649 60.0412 95.1652 59.4047C91.8681 58.0935 88.3969 57.5261 84.9138 57.0445C82.9613 56.7751 81.8264 55.2803 82.2055 53.3444C82.3517 52.5751 82.5803 51.8238 82.8873 51.1034C83.8219 48.9578 85.2142 47.0768 86.6351 45.2291C88.3039 43.062 89.9728 40.902 90.7976 38.2271C91.5844 35.7 90.8549 33.6354 88.6139 32.2813C88.106 31.9761 87.777 32.0977 87.5672 32.5865C87.2416 33.2981 86.9597 34.029 86.7233 34.775C86.461 35.6857 86.1177 36.5082 85.4383 37.2115C83.3355 39.3882 81.3258 41.6578 79.1777 43.7868C76.5434 46.4092 73.7969 48.9125 70.6142 50.8602C69.2267 51.7066 67.6532 52.2573 66.2872 53.1346C64.7041 54.1502 63.1307 55.2016 62.6419 57.2948C62.27 58.8969 61.6049 60.4346 61.0351 61.989C58.8441 67.9492 56.6389 73.8926 54.3812 80.0053M55.1655 67.0814C56.4148 63.696 57.6736 60.313 58.9157 56.9229C59.433 55.5139 58.9943 54.5794 57.5997 54.062C55.1711 53.1577 52.7409 52.2597 50.3092 51.3681C48.9002 50.8507 47.9085 51.3013 47.3887 52.7079C44.8934 59.4373 42.4077 66.1683 39.9314 72.9009C39.3974 74.3456 39.8647 75.3493 41.2927 75.8762L48.2756 78.4605C49.985 79.0922 50.8695 78.6989 51.4965 77.0014L55.1631 67.0814" fill="white"></path>
  </symbol>
</svg>
