<svg width="0" height="0" class="hidden">
  <symbol fill="none" xmlns="http://www.w3.org/2000/svg" viewBox="0 0 57 60" id="mc-logo-white">
    <path d="M49.0258 16.4125C47.582 14.7163 45.4174 13.7951 42.584 13.6692V13.2209C42.584 12.3822 41.9022 11.6991 41.0622 11.6991H39.014C38.1861 11.6991 37.5099 12.3646 37.4935 13.1888H34.9895C34.9838 13.1888 34.975 13.1888 34.9649 13.1768C34.9554 13.1642 34.9573 13.1548 34.9592 13.1498L35.2646 11.8892C35.4736 11.026 35.1179 10.1143 34.3787 9.62006C32.5383 8.39103 27.7802 5.93169 23.3665 9.6188C22.7199 10.1584 22.4485 11.0285 22.6745 11.8332L22.8577 12.4842C22.905 12.6517 22.8338 12.7758 22.7879 12.8343C22.7413 12.8929 22.6367 12.9867 22.4636 12.981C19.0195 12.818 12.7295 13.0704 9.29867 16.6064C7.58293 18.3757 6.82612 20.7318 7.05153 23.6085L7.10064 24.2382H27.5957C26.888 23.963 26.281 23.4826 25.8497 22.8706H8.38193C8.33534 20.6908 8.97253 18.9058 10.2796 17.5584C13.4505 14.29 19.8097 14.2239 22.3981 14.3461C22.9604 14.3744 23.5069 14.1257 23.8576 13.685C24.2077 13.2436 24.326 12.6555 24.1737 12.1134L23.9904 11.4624C23.9092 11.1752 24.0087 10.8623 24.2429 10.6678C27.8148 7.68395 31.6505 9.44251 33.6187 10.7572C33.8819 10.9328 34.0097 11.2584 33.9348 11.5669L33.6295 12.8268C33.5275 13.2467 33.6219 13.6831 33.8895 14.0218C34.1564 14.3612 34.5575 14.5557 34.9888 14.5557H38.8598V13.2203C38.8598 13.1353 38.929 13.066 39.014 13.066H41.0622C41.1472 13.066 41.2165 13.1353 41.2165 13.2203V15.0217H41.9003C44.6467 15.0217 46.6917 15.7848 47.9781 17.2908C49.5736 19.1577 49.6309 21.7367 49.5654 22.8706H32.1146C31.6833 23.482 31.0763 23.963 30.3686 24.2382H50.7692L50.8624 23.664C50.8901 23.4895 51.5254 19.3478 49.0258 16.4125Z" fill="#EAEAEA"></path>
    <path d="M55.7022 22.8795H52.2128V24.2471H55.6254V25.5007C55.6254 25.9546 55.2558 26.3242 54.8018 26.3242H52.0862C50.5984 26.3242 49.3876 27.535 49.3876 29.0228V47.8935C49.3876 53.3007 44.989 57.6993 39.5818 57.6993H28.9819H18.3815C12.9742 57.6993 8.57565 53.3007 8.57565 47.8935V29.2426C8.57565 27.6332 7.26665 26.3242 5.65732 26.3242H3.42276C2.82462 26.3242 2.33728 25.8375 2.33728 25.2388V24.2465H5.74988V22.8789H2.22773C1.53387 22.8789 0.969727 23.4431 0.969727 24.1369V25.2388C0.969727 26.5912 2.06969 27.6912 3.42213 27.6912H5.65669C6.51173 27.6912 7.20747 28.3869 7.20747 29.2419V47.8935C7.20747 54.0544 12.2199 59.0669 18.3809 59.0669H28.9813H39.5818C45.7427 59.0669 50.7552 54.0544 50.7552 47.8935V29.0228C50.7552 28.2887 51.3521 27.6918 52.0862 27.6918H54.8018C56.0101 27.6918 56.9929 26.7089 56.9929 25.5007V24.1709C56.9929 23.4588 56.4143 22.8795 55.7022 22.8795Z" fill="#EAEAEA"></path>
    <path d="M38.3536 6.9306C38.421 6.98663 38.4821 7.05023 38.5406 7.11508C38.569 7.14593 38.5967 7.17741 38.6231 7.21015C38.6382 7.22778 38.6521 7.24667 38.6672 7.2643C38.71 7.3153 38.5973 7.17112 38.6275 7.21267C38.6382 7.22715 38.6489 7.241 38.6596 7.25549C38.7302 7.35119 38.7944 7.4513 38.8517 7.55582C38.8819 7.6106 38.9102 7.66663 38.9367 7.7233C38.9423 7.73526 38.9468 7.74723 38.9524 7.75856C38.987 7.8316 38.909 7.64586 38.9373 7.72204C38.9499 7.75667 38.9638 7.79067 38.9763 7.8253C38.9978 7.887 39.0173 7.94997 39.033 8.01356C39.0418 8.04819 39.05 8.08282 39.0569 8.11745C39.0613 8.13886 39.0645 8.16026 39.0689 8.18167C39.079 8.2333 39.0582 8.26037 39.0658 8.14767C39.0607 8.22071 39.0809 8.30067 39.0821 8.37434C39.0834 8.46249 39.0777 8.54937 39.0702 8.63752C39.0626 8.72756 39.0878 8.54182 39.0752 8.60289C39.0708 8.62367 39.0683 8.64445 39.0651 8.66523C39.0576 8.70804 39.0481 8.75023 39.038 8.79241C39.0141 8.89063 38.9839 8.98697 38.948 9.08078C38.9486 9.07952 38.9253 9.13115 38.9266 9.1343C38.9537 9.07071 38.9575 9.06126 38.9379 9.1066C38.9298 9.12486 38.9216 9.14312 38.9128 9.16138C38.8882 9.21301 38.8624 9.26337 38.8347 9.31312C38.773 9.42582 38.7037 9.53412 38.6288 9.63926C38.608 9.66823 38.5866 9.69719 38.5652 9.72615C38.613 9.66256 38.5683 9.72174 38.5444 9.75071C38.4953 9.81115 38.4437 9.87034 38.3914 9.92763C38.2762 10.0542 38.154 10.1738 38.0275 10.289C37.8512 10.4502 37.8518 10.7726 38.0275 10.9338C38.2164 11.1069 38.484 11.1057 38.6722 10.9338C39.407 10.2632 40.0442 9.34397 39.9907 8.30508C39.9567 7.64397 39.674 7.04393 39.2502 6.54463C39.1728 6.45334 39.0903 6.36267 38.9978 6.28586C38.8145 6.13411 38.5306 6.09319 38.353 6.28586C38.1994 6.45397 38.1572 6.76815 38.3536 6.9306Z" fill="#EAEAEA"></path>
    <path d="M41.8375 10.6091C42.5641 9.68287 42.8273 8.3512 42.4268 7.23613C42.2392 6.71353 41.942 6.25013 41.5693 5.83961C41.4767 5.73761 41.3772 5.64316 41.2821 5.54431C41.2349 5.4952 41.1883 5.4442 41.1436 5.39257C41.1178 5.36235 41.0926 5.3315 41.0668 5.30127C41.0039 5.22761 41.1046 5.35605 41.0435 5.27168C40.9717 5.17283 40.9037 5.07272 40.8427 4.96694C40.8169 4.92224 40.7917 4.87627 40.7684 4.83031C40.7432 4.7812 40.7249 4.70627 40.6897 4.66346C40.6966 4.67983 40.7035 4.69557 40.7104 4.71194C40.7023 4.69179 40.6947 4.67164 40.6871 4.6515C40.6796 4.63135 40.6727 4.6112 40.6651 4.59105C40.6475 4.54131 40.6317 4.49157 40.6173 4.4412C40.5883 4.33857 40.5675 4.23531 40.5486 4.13016C40.536 4.06027 40.5719 4.09427 40.5505 4.14905C40.5537 4.14024 40.5455 4.10372 40.5442 4.09113C40.5398 4.04327 40.5367 3.99542 40.5341 3.94757C40.5297 3.84431 40.5316 3.74105 40.5386 3.63842C40.5417 3.59246 40.5467 3.54713 40.5511 3.50116C40.5543 3.46716 40.5738 3.43127 40.5455 3.54146C40.5511 3.52005 40.5524 3.49676 40.5562 3.47472C40.5713 3.38342 40.5908 3.29213 40.6141 3.20272C40.6569 3.03524 40.7155 2.87468 40.7784 2.71413C40.8005 2.65746 40.7293 2.82557 40.7652 2.74624C40.7747 2.72483 40.7841 2.70342 40.7942 2.68201C40.8131 2.64046 40.8332 2.5989 40.854 2.55798C40.8893 2.48683 40.927 2.41694 40.9661 2.34831C41.036 2.22553 41.1115 2.1059 41.1927 1.99068C41.223 1.94724 41.2544 1.90505 41.2859 1.86287C41.3388 1.79172 41.2034 1.96613 41.2651 1.88994C41.2777 1.87483 41.2897 1.85909 41.3023 1.84398C41.3243 1.8169 41.347 1.78983 41.3709 1.76401C41.5321 1.58835 41.5573 1.29053 41.3709 1.11927C41.1953 0.958089 40.8987 0.931645 40.7262 1.11927C39.9234 1.9932 39.4619 3.27009 39.6816 4.44687C39.7691 4.91468 39.982 5.36739 40.2666 5.74705C40.4542 5.99639 40.6676 6.2092 40.8798 6.4365C40.9277 6.48813 40.9749 6.54039 41.0202 6.5939C41.0379 6.61468 41.0555 6.63546 41.0725 6.65687C41.08 6.66568 41.1606 6.77209 41.1002 6.69024C41.1757 6.79098 41.2469 6.89487 41.3124 7.00316C41.3728 7.10327 41.4289 7.20653 41.4786 7.31231C41.488 7.33246 41.4969 7.35324 41.5069 7.37339C41.5554 7.47664 41.4723 7.28083 41.512 7.38661C41.5327 7.44201 41.5535 7.49679 41.5718 7.55283C41.6026 7.64538 41.6284 7.73983 41.6492 7.8349C41.6599 7.88339 41.6694 7.93187 41.6776 7.98035C41.6794 7.99294 41.6889 8.08802 41.6826 8.00616C41.6763 7.92179 41.6864 8.04457 41.6883 8.05905C41.7059 8.23913 41.7065 8.42046 41.6908 8.60053C41.687 8.64335 41.6807 8.68553 41.6769 8.72772C41.6895 8.56905 41.6769 8.7189 41.6706 8.75479C41.6561 8.83727 41.6379 8.91976 41.6171 9.00098C41.5762 9.15964 41.5107 9.30824 41.4622 9.46376C41.5113 9.30635 41.4729 9.43857 41.4547 9.47887C41.4396 9.51161 41.4244 9.54435 41.4081 9.57646C41.3816 9.62998 41.3539 9.68287 41.325 9.7345C41.2803 9.81446 41.233 9.89253 41.182 9.96809C41.1499 10.0153 41.046 10.1475 41.1909 9.96305C41.1128 10.0625 41.0574 10.1538 41.0574 10.2854C41.0574 10.3975 41.1071 10.531 41.1909 10.6078C41.3571 10.7595 41.6807 10.8093 41.8375 10.6091Z" fill="#EAEAEA"></path>
    <path d="M12.893 28.6172H15.4745L16.5531 29.5843L17.6316 28.6172H20.1955C20.7792 28.6172 21.1676 28.881 21.1676 29.2909V40.5694H19.3996V29.8179H18.4451L17.4371 30.7554V40.5694H15.6691V30.7705L14.6258 29.8185H13.7065V40.5701H11.9209V29.2909C11.9203 28.881 12.3094 28.6172 12.893 28.6172Z" fill="#EAEAEA"></path>
    <path d="M23.2891 28.6172H25.0571V39.3687H26.0116L27.0196 38.4312V28.6172H28.8052V38.8266L26.8427 40.5694H24.2612C23.6775 40.5694 23.2891 40.3056 23.2891 39.8957V28.6172Z" fill="#EAEAEA"></path>
    <path d="M32.6948 28.6172V38.4161L33.7381 39.3681H36.4436V40.5694H32.8893L30.9268 38.8115V28.6172H32.6948Z" fill="#EAEAEA"></path>
    <path d="M36.4434 29.8179V28.6172H41.9602V29.8179H40.0858V40.5694H38.3178V29.8179H36.4434Z" fill="#EAEAEA"></path>
    <path d="M45.8491 28.6172H44.0811V40.5694H45.8491V28.6172Z" fill="#EAEAEA"></path>
    <path d="M14.6699 53.5348V44.0135C14.6699 43.6037 15.059 43.3398 15.6421 43.3398H18.2236L20.1861 45.0978V46.1228H18.4005V45.4932L17.3748 44.5412H16.4379V53.1394L17.4812 54.0914H18.4005V53.6374H20.1861V54.619C20.1861 55.0289 19.797 55.2927 19.2133 55.2927H16.6318L14.6699 53.5348Z" fill="#EAEAEA"></path>
    <path d="M22.3076 53.5348V44.0135C22.3076 43.6037 22.6967 43.3398 23.2798 43.3398H25.8612L27.8238 45.0978V54.6184C27.8238 55.0283 27.4347 55.2921 26.851 55.2921H24.2695L22.3076 53.5348ZM24.0756 53.1394L25.1189 54.0914H26.0382V45.4932L25.0125 44.5412H24.0756V53.1394Z" fill="#EAEAEA"></path>
    <path d="M29.9463 53.5348V44.0135C29.9463 43.6037 30.3354 43.3398 30.9191 43.3398H33.5005L35.4631 45.0978V54.6184C35.4631 55.0283 35.074 55.2921 34.4903 55.2921H31.9088L29.9463 53.5348ZM31.7143 53.1394L32.7576 54.0914H33.6768V45.4932L32.6512 44.5412H31.7143V53.1394Z" fill="#EAEAEA"></path>
    <path d="M37.583 55.2921V43.3398H39.3516V48.1735H40.3062L41.3142 47.236V43.3398H43.0998V47.6169L41.8091 48.7742L43.0998 49.917V55.2921H41.3142V50.3124L40.2885 49.3748H39.3516V55.2921H37.583Z" fill="#EAEAEA"></path>
    <path d="M28.9822 15.3711C26.0651 15.3711 23.6914 17.7448 23.6914 20.6619C23.6914 21.4483 23.8639 22.1963 24.1737 22.8681C24.4054 23.3712 24.7133 23.8327 25.0841 24.2357C26.0513 25.2915 27.4408 25.9539 28.9822 25.9539C30.5235 25.9539 31.9131 25.2909 32.8802 24.2357C33.2511 23.8327 33.5596 23.3712 33.7907 22.8681C34.1004 22.1963 34.273 21.4489 34.273 20.6619C34.273 17.7448 31.8993 15.3711 28.9822 15.3711ZM30.3686 24.2357C29.9386 24.4031 29.4708 24.4957 28.9822 24.4957C28.4936 24.4957 28.0258 24.4038 27.5957 24.2357C26.888 23.9605 26.2811 23.4801 25.8498 22.8681C25.4084 22.2435 25.1496 21.4823 25.1496 20.6619C25.1496 18.8385 26.4297 17.3091 28.1379 16.9231V21.3626C28.1379 21.7782 28.4753 22.1144 28.8903 22.1144H29.0741C29.489 22.1144 29.8265 21.7782 29.8265 21.3626V16.9231C31.5347 17.3085 32.8147 18.8385 32.8147 20.6619C32.8147 21.4823 32.556 22.2435 32.1146 22.8681C31.6833 23.4795 31.0763 23.9599 30.3686 24.2357Z" fill="#EAEAEA"></path>
  </symbol>
</svg>
