<svg width="114" height="127" viewBox="0 0 114 127" fill="none" xmlns="http://www.w3.org/2000/svg">
<path fill-rule="evenodd" clip-rule="evenodd" d="M84.9228 103.429C85.904 105.604 83.7841 107.448 81.7982 108.83C75.4921 113.218 66.1777 116.26 57.2184 116.148C48.5563 116.041 40.5254 112.542 34.1356 108.908C32.2878 107.858 28.526 106.007 28.7102 104.525C28.9036 102.949 30.8033 102.97 31.8558 103.798C35.2248 106.453 33.516 106.14 40.193 110.071C50.142 115.926 61.9204 117.125 72.838 111.34C82.149 106.405 80.0659 102.592 84.9228 103.432M93.7507 110.709C94.4933 111.638 94.2924 112.204 93.6728 112.699C93.5012 112.836 93.2752 113.005 93.1705 113.075L90.6002 109.864C90.6906 109.781 90.9057 109.598 91.0774 109.46C91.6969 108.965 92.2947 108.893 93.0382 109.822L93.7507 110.709ZM94.9279 109.769L94.2179 108.882C93.0558 107.431 91.6517 107.369 90.2828 108.463C89.7921 108.855 89.3297 109.281 88.8989 109.738C88.785 109.863 88.7657 109.98 88.8922 110.138L92.5308 114.684C92.6573 114.842 92.7761 114.851 92.9227 114.768C93.4639 114.449 93.9816 114.092 94.4716 113.699C95.8413 112.595 96.0866 111.212 94.9279 109.762V109.769ZM87.6439 115.013C88.1755 115.927 88.0968 116.492 87.4571 116.864C86.8175 117.237 86.2942 117.021 85.7617 116.107L85.2343 115.202C84.7026 114.289 84.7729 113.728 85.4126 113.356C86.0522 112.983 86.5847 113.194 87.1155 114.108L87.6439 115.013ZM88.9533 114.251L88.4258 113.346C87.3969 111.581 86.0045 111.484 84.7478 112.215C83.4911 112.946 82.8875 114.203 83.9164 115.969L84.4439 116.874C85.4729 118.639 86.8652 118.736 88.1219 118.005C89.3786 117.274 89.9856 116.009 88.9566 114.244L88.9533 114.251ZM80.9099 118.584C81.3151 119.559 81.1611 120.11 80.4779 120.393C79.7947 120.677 79.3057 120.393 78.8988 119.417L78.5045 118.443C78.0993 117.467 78.2441 116.92 78.9281 116.636C79.6122 116.353 80.1095 116.636 80.5189 117.609L80.9099 118.584ZM82.3098 117.999L81.9079 117.031C81.1242 115.145 79.757 114.863 78.4132 115.42C77.0695 115.977 76.305 117.143 77.0887 119.03L77.4906 119.998C78.2751 121.884 79.6423 122.166 80.9852 121.609C82.3282 121.052 83.0976 119.882 82.3131 117.995L82.3098 117.999ZM74.3099 118.143L74.0646 117.362C74.0303 117.253 73.9666 117.227 73.8436 117.247C73.2812 117.334 72.727 117.468 72.1866 117.646C71.0982 117.987 70.2191 118.559 70.6989 120.088L72.0636 124.431C72.0778 124.476 72.109 124.513 72.1504 124.535C72.1917 124.556 72.24 124.561 72.2846 124.547L73.373 124.204C73.4176 124.19 73.4548 124.159 73.4764 124.117C73.4981 124.076 73.5025 124.028 73.4886 123.983L72.7275 121.529L74.9043 120.847C74.9489 120.833 74.9861 120.801 75.0078 120.76C75.0294 120.719 75.0338 120.67 75.0199 120.626L74.7687 119.828C74.7546 119.783 74.7235 119.746 74.6821 119.725C74.6406 119.703 74.5923 119.699 74.5477 119.712L72.3708 120.395L72.1339 119.642C71.9966 119.206 72.0971 119.026 72.4922 118.902L74.1994 118.367C74.222 118.36 74.2431 118.348 74.2612 118.333C74.2793 118.318 74.2941 118.299 74.3047 118.278C74.3154 118.256 74.3216 118.233 74.3231 118.21C74.3245 118.186 74.3212 118.162 74.3132 118.14L74.3099 118.143ZM66.8542 125.529L66.1133 119.459C66.1097 119.418 66.0974 119.377 66.0773 119.341C66.0571 119.304 66.0296 119.273 65.9963 119.247C65.9631 119.222 65.925 119.204 65.8844 119.195C65.8439 119.185 65.8017 119.184 65.7608 119.192L64.9386 119.293C64.858 119.299 64.7812 119.33 64.7179 119.38C64.6546 119.43 64.6076 119.498 64.5828 119.575L63.5488 122.23C63.522 122.304 63.5011 122.35 63.4651 122.355C63.4291 122.361 63.3981 122.319 63.3546 122.253L61.711 119.926C61.6684 119.857 61.6064 119.802 61.5328 119.769C61.4592 119.735 61.3774 119.724 61.2974 119.737L60.4753 119.837C60.4341 119.838 60.3937 119.848 60.3567 119.866C60.3197 119.884 60.287 119.91 60.2606 119.942C60.2343 119.973 60.2149 120.01 60.2039 120.05C60.1928 120.089 60.1903 120.131 60.1965 120.172L60.9399 126.246C60.9517 126.343 61.0337 126.359 61.1074 126.351L62.262 126.213C62.3028 126.203 62.3381 126.177 62.3602 126.141C62.3822 126.106 62.3894 126.062 62.38 126.021L61.9338 122.376C61.9271 122.315 61.9522 122.304 61.9698 122.301C61.9873 122.299 62.015 122.314 62.0468 122.354L63.0155 123.697C63.0463 123.741 63.089 123.776 63.1387 123.796C63.1884 123.817 63.243 123.823 63.2959 123.813L63.9959 123.73C64.0497 123.726 64.1013 123.707 64.1447 123.675C64.188 123.643 64.2212 123.599 64.2404 123.549L64.8515 122.011C64.8725 121.964 64.8876 121.945 64.9143 121.941C64.9411 121.938 64.9587 121.941 64.9662 122.006L65.4125 125.651C65.4132 125.693 65.4304 125.733 65.4605 125.763C65.4906 125.792 65.5311 125.808 65.5732 125.808L66.7286 125.668C66.794 125.657 66.8668 125.622 66.8576 125.525L66.8542 125.529ZM57.9451 123.999L58.0163 120.081C58.0139 120.035 57.9935 119.992 57.9596 119.961C57.9256 119.929 57.8808 119.913 57.8346 119.914L56.6893 119.893C56.6662 119.891 56.6431 119.894 56.6213 119.902C56.5995 119.91 56.5795 119.922 56.5626 119.937C56.5457 119.953 56.5323 119.972 56.5231 119.993C56.5139 120.014 56.5092 120.037 56.5092 120.06L56.4381 123.978C56.4213 124.876 56.1676 125.25 55.3748 125.233C54.5819 125.215 54.3508 124.835 54.3701 123.938L54.4421 120.02C54.4421 119.998 54.4376 119.976 54.4288 119.955C54.42 119.934 54.4072 119.915 54.391 119.9C54.3748 119.884 54.3557 119.872 54.3347 119.864C54.3137 119.856 54.2913 119.852 54.2688 119.853L53.1142 119.832C53.0913 119.83 53.0682 119.834 53.0465 119.841C53.0248 119.849 53.005 119.861 52.9882 119.877C52.9713 119.892 52.958 119.911 52.9488 119.932C52.9397 119.954 52.935 119.976 52.935 119.999L52.863 123.917C52.827 125.924 53.9515 126.473 55.3547 126.499C56.7579 126.525 57.9083 126.003 57.9485 123.996L57.9451 123.999ZM49.7979 125.908L50.5338 119.753C50.5372 119.731 50.5361 119.708 50.5305 119.687C50.5248 119.665 50.5148 119.645 50.5011 119.628C50.4873 119.61 50.4701 119.596 50.4505 119.586C50.431 119.575 50.4095 119.569 50.3873 119.567L49.2152 119.426C49.1936 119.423 49.1717 119.425 49.1507 119.43C49.1298 119.436 49.1103 119.446 49.0935 119.46C49.0768 119.474 49.0631 119.492 49.0535 119.511C49.0439 119.531 49.0385 119.552 49.0377 119.574L48.3026 125.729C48.298 125.751 48.298 125.773 48.3024 125.795C48.3069 125.817 48.3158 125.837 48.3286 125.855C48.3414 125.874 48.3578 125.889 48.3768 125.901C48.3958 125.912 48.417 125.92 48.439 125.923L49.6112 126.062C49.6342 126.066 49.6577 126.064 49.6801 126.058C49.7024 126.051 49.7232 126.04 49.7411 126.025C49.759 126.01 49.7736 125.992 49.7839 125.971C49.7943 125.95 49.8002 125.928 49.8012 125.904L49.7979 125.908ZM45.2617 125.339L46.5343 119.362C46.5443 119.322 46.5458 119.28 46.5386 119.239C46.5314 119.198 46.5157 119.159 46.4925 119.124C46.4694 119.089 46.4392 119.06 46.404 119.038C46.3688 119.016 46.3294 119.001 46.2882 118.995L45.4777 118.822C45.3993 118.803 45.3168 118.807 45.2405 118.834C45.1643 118.86 45.0977 118.909 45.049 118.974L43.2071 121.149C43.1577 121.21 43.1234 121.247 43.0882 121.241C43.0531 121.234 43.0372 121.185 43.0179 121.108L42.2217 118.373C42.2036 118.294 42.1626 118.223 42.104 118.167C42.0453 118.111 41.9715 118.074 41.8918 118.06L41.0813 117.892C41.0419 117.88 41.0004 117.877 40.9595 117.882C40.9186 117.887 40.8792 117.901 40.844 117.922C40.8088 117.943 40.7785 117.972 40.7552 118.006C40.7319 118.04 40.7161 118.078 40.7088 118.119L39.4337 124.104C39.4136 124.199 39.4856 124.242 39.5542 124.256L40.692 124.498C40.7341 124.502 40.776 124.489 40.8087 124.463C40.8414 124.436 40.8624 124.397 40.867 124.355L41.6323 120.764C41.6448 120.704 41.6724 120.7 41.69 120.704C41.7076 120.709 41.7294 120.73 41.7461 120.779L42.2192 122.368C42.234 122.42 42.2633 122.466 42.3036 122.502C42.3439 122.538 42.3937 122.561 42.4469 122.57L43.1359 122.716C43.1879 122.73 43.2428 122.729 43.2941 122.713C43.3454 122.697 43.3911 122.666 43.4256 122.625L44.5124 121.362C44.5475 121.324 44.5685 121.311 44.5961 121.317C44.6237 121.323 44.638 121.334 44.6246 121.394L43.8602 124.986C43.8471 125.026 43.8505 125.07 43.8694 125.108C43.8884 125.145 43.9214 125.174 43.9615 125.188L45.0993 125.429C45.1612 125.44 45.245 125.43 45.2659 125.336L45.2617 125.339ZM36.6816 123.056L36.9655 122.289C36.9814 122.245 36.9794 122.196 36.9598 122.154C36.9402 122.111 36.9046 122.078 36.8608 122.062L35.1863 121.443C34.7978 121.3 34.7066 121.116 34.8648 120.69L35.1888 119.814L37.3305 120.604C37.3744 120.62 37.4228 120.618 37.4651 120.598C37.5075 120.579 37.5403 120.543 37.5566 120.499L37.8462 119.715C37.8623 119.671 37.8604 119.623 37.8409 119.58C37.8215 119.538 37.7861 119.505 37.7424 119.488L35.6007 118.699L35.8779 117.946C36.037 117.516 36.2262 117.436 36.6147 117.579L38.2891 118.198C38.333 118.214 38.3814 118.212 38.4239 118.192C38.4664 118.173 38.4995 118.138 38.516 118.094L38.7999 117.325C38.8392 117.218 38.8049 117.158 38.6952 117.099C38.1966 116.825 37.676 116.592 37.1388 116.404C36.0721 116.01 35.0239 115.924 34.468 117.427L33.4608 120.165C32.9057 121.67 33.7471 122.289 34.8137 122.682C35.3475 122.888 35.8975 123.05 36.4581 123.166C36.577 123.192 36.6423 123.161 36.685 123.053L36.6816 123.056ZM31.0554 116.225C30.769 116.751 30.3998 116.821 29.5868 116.379C29.5031 116.333 29.1263 116.12 29.0451 116.066L29.8531 114.58C29.9502 114.623 30.3613 114.826 30.4701 114.885C31.1207 115.238 31.3668 115.652 31.1098 116.124L31.0554 116.225ZM30.491 120.858C30.5059 120.828 30.5139 120.795 30.5145 120.761L30.5312 117.944C31.2186 118.028 31.9261 117.759 32.3732 116.941L32.4284 116.84C33.1727 115.471 32.3983 114.479 31.0813 113.765C30.5559 113.479 30.0125 113.227 29.4545 113.012C29.1933 112.92 29.0468 112.928 28.9045 113.194L26.0813 118.386C26.0589 118.427 26.0537 118.475 26.0669 118.52C26.0801 118.565 26.1106 118.603 26.1516 118.625L27.1563 119.171C27.1974 119.193 27.2456 119.198 27.2903 119.185C27.335 119.172 27.3726 119.141 27.3949 119.1L28.4641 117.135C28.6106 117.215 28.8425 117.36 29.0049 117.449L29.0945 117.488L29.0677 120.009C29.0677 120.106 29.0535 120.201 29.1389 120.247L30.3236 120.89C30.4132 120.931 30.4651 120.909 30.4944 120.855L30.491 120.858ZM24.9209 112.759C24.5726 113.246 24.1238 113.283 23.485 112.828C23.4063 112.771 22.9885 112.462 22.9148 112.399L23.9597 110.937C24.051 110.991 24.4554 111.259 24.5558 111.33C25.1586 111.76 25.3303 112.186 24.9669 112.695L24.9209 112.759ZM26.1399 113.629L26.1859 113.565C27.1496 112.218 26.3534 111.076 25.2692 110.303C24.7849 109.953 24.2769 109.636 23.7487 109.357C23.4975 109.234 23.3544 109.226 23.1794 109.471L19.7366 114.285C19.7234 114.303 19.7141 114.324 19.7092 114.347C19.7044 114.369 19.7041 114.392 19.7084 114.414C19.7127 114.436 19.7215 114.458 19.7343 114.476C19.7471 114.495 19.7635 114.511 19.7827 114.523L20.7037 115.184C20.7418 115.211 20.7891 115.222 20.8352 115.214C20.8812 115.206 20.9224 115.181 20.9498 115.143L22.1948 113.402C22.3689 113.537 22.5883 113.715 22.7608 113.837C23.8324 114.6 25.1854 114.969 26.1432 113.629H26.1399ZM34.3307 28.7331C33.5771 23.4026 32.7265 20.7554 34.6999 15.2727C39.154 2.91049 54.3533 0.946588 63.877 8.54123C64.3299 8.90256 64.7553 9.23713 65.0809 9.52067L66.0421 10.6917C62.7074 12.1495 59.6196 13.4008 56.2974 14.7064C53.2214 15.9117 48.9431 18.0253 45.4643 16.9514C47.9007 21.3099 60.5716 17.0049 64.4907 15.6131C80.5356 9.92968 95.1916 19.6873 92.7527 31.955C91.45 38.5075 86.7245 42.8008 78.8302 42.3014C79.2103 36.935 80.6663 35.0045 76.5319 32.1942C73.8528 30.3725 70.0115 29.5177 66.0999 29.7326C48.7112 30.6861 39.0787 48.2902 28.2029 40.8988C22.0592 36.7234 23.6298 27.1414 29.6781 23.9195C25.2482 24.5812 22.6611 28.2497 22.0809 32.4769C-10.0073 56.8308 -2.68224 91.2768 19.4018 110.642C19.963 109.555 20.7756 108.618 21.772 107.907C1.12806 90.0222 -2.82122 57.3652 22.1487 36.633C23.1308 42.508 27.8956 47.9673 36.8566 46.9109C36.736 49.5289 37.4033 50.9257 39.1791 53.8749C39.9075 54.3358 40.8159 53.7126 40.6075 52.8336C39.6145 49.8225 39.3323 48.2174 40.116 46.2527C50.8043 43.1136 61.1057 30.8442 73.6895 36.8539L73.0256 47.2681C54.7586 46.9962 46.9354 53.3998 46.1986 54.1183C46.0881 54.227 45.1378 55.8848 45.9474 55.5218C54.7268 51.5881 62.3942 50.5828 73.8661 52.7223C76.9916 53.3078 77.6262 52.371 78.4551 45.2205C80.5909 45.765 82.5073 45.8704 85.0392 45.3719C89.0312 44.5857 92.993 42.9522 95.5382 39.7872C116.386 60.429 112.044 89.364 93.816 106.443C95.0189 106.901 96.0883 107.653 96.9272 108.628C115.782 90.5157 122.336 61.0195 97.1022 37.2394C98.4828 34.1899 98.8144 30.1257 97.448 24.7259C96.1343 19.5326 91.7623 15.3162 88.0407 13.0821C82.7744 9.92131 77.1004 9.12421 69.9052 9.75069C68.2491 4.57914 54.4563 -3.34255 42.3891 2.64116C38.2866 4.67616 34.7878 8.17237 33.1577 13.0462C30.9406 19.6706 32.112 23.1843 34.334 28.7365L34.3307 28.7331Z" fill="url(#paint0_linear_561_17394)"/>
<path d="M88.7112 53.2997C91.3334 53.436 93.4332 54.4205 95.0131 56.2071C96.5553 57.9914 97.1528 59.9865 96.8056 62.1925C96.4239 64.5902 95.1426 66.3745 92.9619 67.5455C92.2293 67.7797 91.1509 67.4226 91.0178 66.3745C90.9742 66.04 91.1727 64.5796 92.0576 64.2325C93.3043 63.2865 94.2529 63.0857 94.4932 61.5024C94.6782 60.2854 94.3199 59.0517 93.3947 57.7971C92.3158 56.315 90.8701 55.5739 89.0578 55.5739C86.4757 55.5739 84.3366 56.5051 82.6403 58.3675C76.5075 65.421 75.5907 80.4639 76.9738 88.1238C77.5878 91.4299 78.4937 94.071 79.6915 96.0472C81.0021 98.1756 82.5052 99.2398 84.2009 99.2398C86.7841 99.2398 88.8273 98.3476 90.3304 96.5632C91.987 94.6244 92.4495 92.1921 91.7177 89.2664C91.8332 88.6959 92.2187 88.3728 92.8739 88.2969C93.5677 88.2596 94.1075 88.5066 94.4932 89.038C95.072 89.8371 95.3419 90.8823 95.3028 92.1737C95.2224 93.5899 94.7846 94.9627 94.0302 96.1643C92.0258 99.3945 88.6531 101.01 83.9121 101.01C80.6747 101.01 77.8415 99.9265 75.4124 97.7601C73.1384 95.7834 71.3847 93.0662 70.1511 89.6084C66.875 80.5434 67.9107 68.9114 73.2891 60.7756C76.8056 55.4543 81.9462 52.9623 88.7112 53.2997Z" fill="#E3000F"/>
<path d="M66.4882 102.687C67.2819 102.687 67.8959 102.957 68.3301 103.496C68.727 104.035 68.8858 104.671 68.8065 105.402C68.7267 106.442 68.2104 107.366 67.2576 108.175C66.3048 108.984 65.1327 109.389 63.7412 109.388C60.3269 109.388 57.9447 107.771 56.5945 104.537C55.6026 102.227 55.1064 98.8572 55.1059 94.4287C55.1059 92.234 55.3043 88.8259 55.7011 84.2044L55.9398 81.3162L56.2437 78.3687C56.4418 76.0585 56.5814 74.1524 56.6623 72.6502C57.2981 63.7167 56.7421 59.25 54.9945 59.25C54.2008 59.25 53.109 61.0789 51.7192 64.7368C50.4092 68.2414 49.1584 72.4581 47.9667 77.3868C44.9895 89.7099 44.2948 97.5271 45.8828 100.838C45.1287 102.033 44.136 102.59 42.9047 102.511C41.6734 102.432 40.7803 101.777 40.2255 100.547C39.5903 99.123 39.2728 95.7921 39.2728 90.5544C39.2728 89.6305 39.2926 88.4559 39.3322 87.0306L39.3916 83.3922C39.4307 80.3493 39.4307 77.9039 39.3916 76.056C38.9138 64.1594 37.8807 58.2111 36.2922 58.2111C34.6634 58.2111 33.1544 60.0791 31.7652 63.8151C30.5746 67.0888 29.6218 71.344 28.9068 76.5805C27.2 88.4419 27.1603 95.7778 28.7879 98.5882C27.9931 99.7815 27.0202 100.398 25.8693 100.437C24.6782 100.475 23.8245 99.8975 23.3082 98.7036C22.5145 96.9321 21.8793 93.0235 21.4026 86.9779C21.0052 81.7793 20.8065 76.3688 20.8065 70.7465C20.8065 61.1584 19.794 56.3629 17.769 56.3601C16.0225 56.3601 14.7719 57.7079 14.0173 60.4034C13.3425 62.9444 13.3425 65.351 14.0173 67.6233C13.1834 68.3554 12.1907 68.5289 11.0392 68.1435C9.84753 67.7599 9.07336 66.8747 8.71669 65.4879C7.96262 62.4467 8.57799 59.5973 10.5628 56.9398C12.6665 54.0904 15.4657 52.9161 18.9604 53.4168C21.9382 53.84 24.0427 56.9398 25.274 62.7161C25.6709 64.6415 26.0083 67.0096 26.2863 69.8206L26.4646 71.4382L26.5843 72.9437C26.663 74.0985 26.7423 74.9263 26.8221 75.427C27.8943 68.3805 29.0062 63.567 30.1577 60.9863C31.706 57.4059 34.0486 55.6155 37.1855 55.6149C42.6248 55.6149 45.3444 62.4886 45.3444 76.2359C45.8217 74.0796 46.338 72.0195 46.8933 70.0556C47.6474 67.4348 48.4414 65.1436 49.2753 63.1819C51.5392 57.9058 53.9614 55.2678 56.5417 55.2678C59.1651 55.2678 61.1901 56.5578 62.6168 59.1379C63.9268 61.4486 64.5818 64.4525 64.5818 68.1494C64.5818 70.8817 64.3834 73.8853 63.9865 77.1601C63.7074 79.3164 63.2707 82.1468 62.6762 85.6514C61.3657 92.9293 60.7107 97.8968 60.7112 100.554C60.7112 105.021 61.664 107.254 63.5696 107.254C64.9192 107.254 65.5943 106.369 65.5949 104.597C65.5949 103.984 65.4361 103.502 65.1185 103.153C65.2764 102.846 65.733 102.691 66.4882 102.691" fill="#E3000F"/>
<defs>
<linearGradient id="paint0_linear_561_17394" x1="52.8964" y1="0.499999" x2="57.0164" y2="63.5" gradientUnits="userSpaceOnUse">
<stop stop-color="#8A8A88"/>
<stop offset="0.427924" stop-color="#D1D1D1"/>
<stop offset="0.984375" stop-color="#FCFCFC"/>
</linearGradient>
</defs>
</svg>
