<svg width="0" height="0" class="hidden">
  <symbol fill="none" xmlns="http://www.w3.org/2000/svg" viewBox="0 0 24 24" id="pin">
    <path d="M18.9655 10.3636C18.9655 16.0909 11.9828 21 11.9828 21C11.9828 21 5 16.0909 5 10.3636C5 8.41068 5.73568 6.53771 7.0452 5.15676C8.35472 3.77581 10.1308 3 11.9828 3C13.8347 3 15.6108 3.77581 16.9203 5.15676C18.2298 6.53771 18.9655 8.41068 18.9655 10.3636Z" fill="#C41D18"></path>
    <path d="M15.9999 10C15.9999 12.2091 14.2091 14 11.9999 14C9.79078 14 7.99992 12.2091 7.99992 10C7.99992 7.79086 9.79078 6 11.9999 6C14.2091 6 15.9999 7.79086 15.9999 10Z" fill="#C41D18"></path>
    <path d="M15 10C15 11.6569 13.6569 13 12 13C10.3431 13 9 11.6569 9 10C9 8.34315 10.3431 7 12 7C13.6569 7 15 8.34315 15 10Z" fill="#141616"></path>
  </symbol>
</svg>
