<svg width="0" height="0" class="hidden">
  <symbol fill="none" xmlns="http://www.w3.org/2000/svg" viewBox="0 0 66 64" id="shine-direct">
    <g clip-path="url(#clip0_732_27321)">
      <path d="M14.5051 1.85522C13.2939 6.22026 11.849 10.6794 10.343 14.945L9.67361 16.7781C8.7838 19.1971 8.39335 21.885 6.83419 24.0352C5.27237 26.2849 3.32276 28.368 0.86582 29.7146L0.297404 29.4297C-0.132892 26.637 0.323965 23.8041 1.15003 21.1834C1.88313 18.6354 3.75837 16.6948 5.13425 14.5069L6.17015 12.8565C7.09183 11.3809 8.40928 9.40803 9.3894 7.96198C10.4519 6.40035 11.6578 4.69357 12.7654 3.15076C13.1558 2.61319 13.5383 2.09175 13.9367 1.57031L14.5051 1.85522Z" fill="white"></path>
      <path d="M65.8192 0.678155C57.8162 8.51319 49.4786 16.3482 41.1702 23.8715C38.0253 26.6883 35.1407 29.8196 31.8869 32.5182C28.5957 35.1841 25.1097 37.5939 21.4589 39.727C18.9856 41.2111 16.4022 42.4988 13.7321 43.5787L13.3311 43.0787C14.1163 41.8457 14.9648 40.6552 15.873 39.512C19.4022 35.0536 23.3725 30.9719 27.7221 27.3307C30.9944 24.6536 34.6095 22.4308 37.9828 19.8908L41.3667 17.3696C44.3841 15.1279 48.5383 12.1014 51.6035 9.91355C56.1907 6.64246 60.7699 3.36599 65.4155 0.183594L65.8192 0.678155Z" fill="white"></path>
      <path d="M48.7403 61.2825C44.3204 62.0297 39.7253 62.6264 35.2603 63.0404L33.3373 63.207C30.7874 63.422 28.2189 64.2096 25.6344 63.6881C22.9597 63.2151 20.269 62.3146 18.0166 60.6374V59.9977C20.3328 58.4146 23.0633 57.6271 25.754 57.2696C28.3464 56.8557 30.8777 57.748 33.4196 58.0759L35.3347 58.3232C37.0426 58.5517 39.3747 58.9118 41.0773 59.1994C42.9366 59.5085 44.9632 59.8848 46.8172 60.245C47.4547 60.3794 48.0922 60.5138 48.727 60.6455L48.7403 61.2825Z" fill="white"></path>
    </g>
    <defs>
      <clipPath id="clip0_732_27321">
        <rect width="66" height="64" fill="white"></rect>
      </clipPath>
    </defs>
  </symbol>
</svg>

