<svg width="0" height="0" class="hidden">
  <symbol fill="none" xmlns="http://www.w3.org/2000/svg" viewBox="0 0 49 99" id="shine-wave">
    <g clip-path="url(#clip0_735_27340)">
      <path d="M0.141329 30.0703C0.641377 36.701 1.41504 43.757 1.62968 50.3592C1.81602 55.776 1.66034 61.1879 1.32776 66.5999C1.24993 67.9327 1.13907 69.256 1.12256 70.5983C1.55184 70.1065 1.98349 69.5078 2.36796 68.9756C8.02888 60.4229 8.50062 49.0906 5.33758 39.5163C4.15823 36.1095 2.57081 32.7668 0.148406 30.0751" fill="currentColor"></path>
      <path d="M14.3669 17.2751C16.9992 30.6839 18.8296 44.2566 18.5182 57.9005C18.3508 66.199 17.3129 74.0723 15.9449 82.4207C16.5039 81.5773 17.0818 80.5699 17.596 79.6862C18.4393 78.1212 19.1975 76.5112 19.8674 74.8634C25.2453 61.5853 25.3113 46.3995 21.4077 32.7223C19.7896 27.2794 17.6479 21.9173 14.3669 17.2656" fill="currentColor"></path>
      <path d="M35.6755 0.800781C41.3199 22.1208 44.3297 44.2224 42.9876 66.2575C42.4908 73.9347 41.4956 81.5708 40.0085 89.117C39.6759 90.6304 39.3858 92.1675 39.065 93.688C38.7159 95.1538 38.3338 96.8026 38.039 98.2851C38.7678 96.976 39.5367 95.4341 40.2208 94.0918C40.8977 92.6664 41.4968 91.2029 42.1243 89.7561C42.4804 88.9365 42.9192 87.6512 43.2423 86.7983C43.99 84.8145 44.5868 82.7951 45.1906 80.7758C45.476 79.9181 45.7567 78.5948 45.9926 77.7039C46.4832 75.9363 46.962 73.3088 47.3252 71.4842C47.4974 70.6004 47.672 69.2367 47.8158 68.3387C48.1531 66.2551 48.3371 64.079 48.5494 62.0073C50.1392 41.6352 46.0704 18.474 35.6755 0.800781Z" fill="currentColor"></path>
    </g>
    <defs>
      <clipPath id="clip0_735_27340">
        <rect width="49" height="99" fill="white" transform="matrix(-1 0 0 1 49 0)"></rect>
      </clipPath>
    </defs>
  </symbol>
</svg>
