<svg width="0" height="0" class="hidden">
  <symbol fill="none" xmlns="http://www.w3.org/2000/svg" viewBox="0 0 36 37" id="youtube">
    <path d="M18 36.1797C27.9411 36.1797 36 28.1208 36 18.1797C36 8.23856 27.9411 0.179688 18 0.179688C8.05888 0.179688 0 8.23856 0 18.1797C0 28.1208 8.05888 36.1797 18 36.1797Z" fill="currentColor"></path>
    <path d="M27.6373 15.6071C27.6373 13.2204 25.7021 11.2852 23.3153 11.2852H12.2614C9.87466 11.2852 7.93945 13.2204 7.93945 15.6071V20.7496C7.93945 23.1363 9.87466 25.0715 12.2614 25.0715H23.3153C25.7021 25.0715 27.6373 23.1363 27.6373 20.7496V15.6071ZM21.1375 18.5641L16.1808 21.0154C15.9873 21.1212 15.3268 20.9792 15.3268 20.7599V15.7258C15.3268 15.5013 15.9925 15.362 16.186 15.4729L20.9312 18.0532C21.1298 18.1667 21.3388 18.4532 21.1375 18.5641Z" fill="white"></path>
  </symbol>
</svg>
