<svg width="37" height="36" viewBox="0 0 37 36" fill="none" xmlns="http://www.w3.org/2000/svg">
<path d="M31.9675 15.7725C31.9675 26.6637 18.6673 35.999 18.6673 35.999C18.6673 35.999 5.36719 26.6637 5.36719 15.7725C5.36719 12.0587 6.76845 8.49698 9.26271 5.87091C11.757 3.24484 15.1399 1.76953 18.6673 1.76953C22.1947 1.76953 25.5777 3.24484 28.0719 5.87091C30.5662 8.49698 31.9675 12.0587 31.9675 15.7725Z" fill="#C41D18"/>
<path d="M18.492 24.4375C23.7818 24.4375 28.07 20.1562 28.07 14.875C28.07 9.59378 23.7818 5.3125 18.492 5.3125C13.2023 5.3125 8.91406 9.59378 8.91406 14.875C8.91406 20.1562 13.2023 24.4375 18.492 24.4375Z" fill="white"/>
<path fill-rule="evenodd" clip-rule="evenodd" d="M14.5739 10.125C14.3646 10.125 14.1705 10.2287 14.0628 10.3981L13.1834 11.7814C13.0245 12.0313 13.0942 12.3543 13.3439 12.5257L13.3994 12.5639C13.6084 12.7073 13.8916 12.7073 14.1006 12.5639L15.0385 11.9201C15.2475 11.7766 15.5306 11.7766 15.7396 11.9201L16.6775 12.5639C16.8865 12.7073 17.1697 12.7073 17.3787 12.5639L18.3166 11.9201C18.5256 11.7766 18.8087 11.7766 19.0177 11.9201L19.9556 12.5639C20.1646 12.7073 20.4478 12.7073 20.6568 12.5639L21.5947 11.9201C21.8037 11.7766 22.0868 11.7766 22.2958 11.9201L23.2338 12.5639C23.4427 12.7073 23.7259 12.7073 23.9349 12.5639L23.9904 12.5257C24.2401 12.3543 24.3098 12.0313 24.1509 11.7814L23.2715 10.3981C23.1638 10.2287 22.9698 10.125 22.7604 10.125H14.5739ZM13.0407 9.81929C13.3638 9.311 13.9458 9 14.5739 9H22.7604C23.3885 9 23.9705 9.311 24.2936 9.81929L25.1731 11.2026C25.6497 11.9523 25.4407 12.9214 24.6915 13.4356L24.636 13.4737C24.4501 13.6013 24.2447 13.691 24.0313 13.743V19.6875C24.0313 19.9982 23.7645 20.25 23.4353 20.25H13.899C13.5698 20.25 13.303 19.9982 13.303 19.6875V13.743C13.0896 13.691 12.8842 13.6013 12.6983 13.4737L12.6428 13.4356C11.8936 12.9214 11.6846 11.9523 12.1612 11.2026L13.0407 9.81929ZM14.495 13.6431V19.125H16.8791V16.3125C16.8791 15.3805 17.6796 14.625 18.6672 14.625C19.6547 14.625 20.4552 15.3805 20.4552 16.3125V19.125H22.8393V13.6431C22.7328 13.597 22.63 13.5405 22.5326 13.4737L21.9453 13.0705L21.3579 13.4737C20.7309 13.904 19.8815 13.904 19.2545 13.4737L18.6672 13.0705L18.0798 13.4737C17.4528 13.904 16.6034 13.904 15.9764 13.4737L15.389 13.0705L14.8017 13.4737C14.7043 13.5405 14.6015 13.597 14.495 13.6431ZM19.2632 19.125V16.3125C19.2632 16.0018 18.9963 15.75 18.6672 15.75C18.338 15.75 18.0711 16.0018 18.0711 16.3125V19.125H19.2632Z" fill="#20201F"/>
</svg>
